<?xml version="1.0" encoding="utf-8"?>
<!-- Generator: Adobe Illustrator 16.0.0, SVG Export Plug-In . SVG Version: 6.00 Build 0)  -->
<!DOCTYPE svg PUBLIC "-//W3C//DTD SVG 1.1//EN" "http://www.w3.org/Graphics/SVG/1.1/DTD/svg11.dtd">
<svg version="1.1" id="Layer_1" xmlns="http://www.w3.org/2000/svg" xmlns:xlink="http://www.w3.org/1999/xlink" x="0px" y="0px"
	 width="256px" height="256px" viewBox="0 0 256 256" enable-background="new 0 0 256 256" xml:space="preserve">
<path fill="#FFFFFF" d="M160.271,126.234c16.61-10.668,27.677-29.268,27.677-50.438c0-33.052-26.893-59.945-59.947-59.945
	c-33.054,0-59.947,26.893-59.947,59.945c0,21.169,11.061,39.769,27.677,50.438c-33.977,13.022-58.178,45.967-58.178,84.475
	c0,16.23,13.21,29.439,29.446,29.439h122.01c16.23,0,29.44-13.209,29.44-29.439C218.448,172.201,194.247,139.256,160.271,126.234z
	 M83.533,75.796c0-24.519,19.948-44.464,44.467-44.464c24.518,0,44.467,19.945,44.467,44.464c0,24.515-19.949,44.463-44.467,44.463
	C103.481,120.26,83.533,100.312,83.533,75.796z M189.008,224.668H66.998c-7.7,0-13.965-6.26-13.965-13.959
	c0-41.338,33.63-74.969,74.967-74.969c41.336,0,74.968,33.631,74.968,74.969C202.968,218.408,196.703,224.668,189.008,224.668z"/>
</svg>
