<?xml version="1.0" encoding="utf-8"?>
<!-- Generator: Adobe Illustrator 16.0.0, SVG Export Plug-In . SVG Version: 6.00 Build 0)  -->
<!DOCTYPE svg PUBLIC "-//W3C//DTD SVG 1.1//EN" "http://www.w3.org/Graphics/SVG/1.1/DTD/svg11.dtd">
<svg version="1.1" id="Layer_1" xmlns="http://www.w3.org/2000/svg" xmlns:xlink="http://www.w3.org/1999/xlink" x="0px" y="0px"
	 width="256px" height="256px" viewBox="0 0 256 256" enable-background="new 0 0 256 256" xml:space="preserve">
<g>
	<g>
		<g>
			<path fill="#FFFFFF" d="M96.676,118.677c-2.14-11.9-1.518-24.16,0.629-36.022c0.97,0.638,1.939,1.276,2.909,1.915
				c-30.896,13.719-59.549,31.294-85.232,53.333c-0.074-1.084-0.149-2.168-0.225-3.252c24.865,16.058,51.86,28.584,80.271,36.927
				c-0.904,0.621-1.808,1.243-2.711,1.864c1.726-11.302,3.434-22.607,5.179-33.905c0.193-1.241,1.031-2.075,2.326-2.091
				c44.714-0.489,89.406-2.197,134.027-5.119c-0.775,0.696-1.55,1.393-2.324,2.09c0.997-6.271,1.992-12.543,2.989-18.813
				c0.696,0.774,1.394,1.55,2.09,2.325c-46.394-0.332-92.786-0.607-139.181-0.88c-2.794-0.017-2.551-4.343,0.229-4.326
				c46.395,0.283,92.79,0.564,139.185,0.791c1.106,0.005,2.272,1.183,2.091,2.324c-0.996,6.27-1.992,12.542-2.989,18.813
				c-0.205,1.291-1.022,2.004-2.323,2.09c-44.622,2.922-89.314,4.63-134.029,5.119c0.776-0.695,1.55-1.393,2.325-2.09
				c-1.799,11.3-3.633,22.595-5.451,33.892c-0.212,1.323-1.323,2.284-2.711,1.864c-28.724-8.687-56.027-21.164-81.244-37.452
				c-1.109-0.717-1.23-2.389-0.225-3.253c25.756-22.095,54.852-40.645,86.144-53.866c1.706-0.721,3.153,0.729,2.814,2.428
				c-2.325,11.646-2.647,23.294-2.356,35.128C98.914,119.784,96.897,119.91,96.676,118.677L96.676,118.677z"/>
		</g>
	</g>
	<g>
		<g>
			<path fill="#FFFFFF" d="M24.538,140.143c11.248-10.287,21.451-21.374,31.609-32.712c1.537-1.715,4.244-0.627,5.197,1.029
				c3.291,5.721-4.278,13.34-7.338,17.497c-5.46,7.414-11.484,14.398-17.94,20.963c-1.288-1.47-2.576-2.939-3.864-4.407
				c11.835-11.957,23.637-23.946,35.455-35.92c3.013-3.053,7.215,1.898,4.36,4.973c-10.876,11.711-21.138,23.923-30.608,36.8
				c-1.646-1.432-3.291-2.865-4.938-4.299c13.554-11.93,26.326-24.713,38.397-38.138c2.95-3.28,7.418,1.898,4.524,5.159
				c-11.182,12.605-21.604,25.835-31.23,39.664c-1.711-1.49-3.422-2.98-5.134-4.471c13.542-13.79,26.953-27.71,40.421-41.571
				c2.863-2.945,8.125,1.546,5.512,4.799c-10.418,12.971-20.97,25.835-31.467,38.742c-1.817-1.583-3.636-3.167-5.453-4.75
				c11.233-9.925,21.764-20.571,31.534-31.94c1.866,1.624,3.731,3.249,5.597,4.873c-10.898,11.794-20.996,24.264-30.207,37.42
				c-1.834-1.598-3.669-3.196-5.505-4.795c12.198-10.891,23.517-22.708,34.001-35.253c3.139-3.756,9.598,0.262,6.493,4.272
				c-9.266,11.969-18.609,23.875-27.976,35.766c-1.95-1.699-3.9-3.396-5.851-5.095c11.544-7.798,20.335-18.24,29.012-28.996
				c2.173,1.43,4.347,2.86,6.521,4.29c-10.556,12.407-21.346,25.049-27.84,40.153c-2.133-1.403-4.266-2.806-6.398-4.209
				c10.424-11.445,20.822-22.913,31.221-34.38c3.008-3.315,8.814,1.689,5.99,5.216c-7.6,9.492-14.245,19.616-19.953,30.353
				c-2.018-1.758-4.035-3.514-6.053-5.271c6.344-5.024,11.887-10.715,16.658-17.255c2.258,1.486,4.518,2.973,6.775,4.459
				c-6.738,8.183-12.506,16.998-17.307,26.447c-2.264-1.489-4.527-2.979-6.79-4.467c11.114-14.441,21.339-29.51,30.637-45.183
				c2.28,1.499,4.558,2.998,6.837,4.498c-6.285,8.349-12.569,16.698-18.855,25.046c-2.055-1.789-4.111-3.579-6.166-5.369
				c9.322-8.959,18.824-17.725,28.505-26.295c3.405-3.015,9.252,1.668,6.229,5.423c-4.127,5.125-8.255,10.247-12.38,15.372
				c-1.786-2.02-3.571-4.037-5.358-6.056c8.115-4.563,15.617-9.882,22.643-15.987c4.172-3.626,9.281,2.471,5.582,6.365
				c-5.035,5.298-10.068,10.596-15.102,15.895c-1.568-2.344-3.137-4.688-4.705-7.031c7.69-4.73,14.973-9.985,21.931-15.737
				c4.309-3.562,9.544,2.547,5.68,6.478c-4.073,4.145-8.146,8.29-12.221,12.435c-1.594-2.382-3.187-4.761-4.781-7.143
				c7.479-3.062,14.301-7.046,20.57-12.153c4.378-3.566,9.763,2.624,5.765,6.574c-4.374,4.322-8.748,8.645-13.123,12.967
				c-1.617-2.416-3.235-4.833-4.853-7.25c7.709-3.129,14.93-7.076,21.63-12.019c1.641,2.449,3.279,4.899,4.92,7.35
				c-4.633,3.075-8.572,6.948-11.855,11.417c-1.923-2.174-3.846-4.347-5.769-6.52c6.656-2.542,12.954-5.767,18.779-9.883
				c4.687-3.313,10.664,3.055,6.023,6.87c-4.207,3.459-8.411,6.922-12.624,10.375c-1.694-2.531-3.389-5.063-5.082-7.594
				c8.882-3.225,17.304-7.349,25.298-12.385c1.371,2.767,2.74,5.533,4.111,8.3c-4.634,2.496-8.822,5.459-12.75,8.957
				c-1.334-2.682-2.669-5.362-4.002-8.044c6.76-1.942,13.227-4.517,19.515-7.662c5.528-2.767,8.998,5.137,4.143,8.362
				c-4.062,2.697-8.123,5.396-12.184,8.092c-1.008-2.924-2.016-5.849-3.022-8.773c7.865-2.187,15.579-4.766,23.171-7.767
				c4.553-1.799,9.887,4.495,5.187,7.748c-4.793,3.318-9.586,6.638-14.378,9.956c-1.354-2.722-2.708-5.443-4.063-8.165
				c8.476-2.204,16.527-5.318,24.314-9.317c1.403,2.831,2.805,5.663,4.208,8.495c-5.191,1.978-9.562,4.771-13.506,8.687
				c-1.366-2.744-2.731-5.488-4.097-8.232c10.903-2.482,21.443-5.962,31.673-10.482c5.604-2.478,9.832,5.874,4.248,8.577
				c-6.296,3.047-12.241,6.577-17.868,10.737c-1.38-2.771-2.759-5.543-4.138-8.314c7.381-2.076,14.611-4.521,21.733-7.359
				c5.7-2.271,10.036,6.275,4.271,8.625c-5.45,2.219-10.446,5.022-15.086,8.655c-1.771-2.646-3.543-5.295-5.315-7.94
				c7.453-2.66,14.979-5.054,22.617-7.125c4.403-1.194,6.815,3.993,5.007,7.379c-1.143,2.142-2.9,3.162-5.199,3.77
				c-6.02,1.591-7.945-7.872-1.95-9.455c-0.305,0.127-0.608,0.254-0.914,0.38c1.669,2.459,3.339,4.92,5.008,7.38
				c-6.844,1.849-13.612,3.928-20.291,6.307c-4.697,1.672-10.009-4.273-5.315-7.941c5.281-4.13,10.953-7.507,17.169-10.033
				c1.424,2.875,2.847,5.75,4.271,8.625c-7.879,3.131-15.898,5.85-24.063,8.141c-4.516,1.268-7.967-5.487-4.137-8.314
				c6.292-4.644,12.909-8.697,19.954-12.092c1.415,2.858,2.832,5.717,4.248,8.577c-10.961,4.823-22.318,8.581-33.999,11.218
				c-4.861,1.1-7.332-5.031-4.098-8.231c4.471-4.423,9.689-7.803,15.57-10.03c5.596-2.121,9.756,5.659,4.208,8.495
				c-8.487,4.339-17.389,7.675-26.616,10.058c-4.351,1.125-7.995-5.451-4.063-8.164c4.8-3.312,9.598-6.621,14.397-9.933
				c1.729,2.583,3.458,5.165,5.187,7.749c-8.337,3.277-16.819,6.119-25.455,8.503c-5.568,1.538-7.076-6.092-3.021-8.775
				c4.064-2.688,8.131-5.379,12.195-8.068c1.382,2.786,2.762,5.574,4.143,8.362c-7,3.486-14.261,6.254-21.78,8.4
				c-4.608,1.315-7.302-5.116-4.002-8.044c4.519-4.009,9.444-7.416,14.766-10.27c5.34-2.865,9.068,5.188,4.111,8.3
				c-8.003,5.023-16.433,9.133-25.32,12.344c-4.541,1.641-9.464-4.016-5.082-7.593c4.22-3.445,8.449-6.879,12.676-10.316
				c2.008,2.289,4.016,4.58,6.023,6.87c-6.518,4.557-13.346,8.295-20.799,11.096c-3.805,1.43-8.69-2.587-5.769-6.52
				c4.318-5.811,9.385-10.487,15.43-14.451c4.184-2.744,9.005,4.368,4.92,7.349c-7.348,5.361-15.163,9.798-23.606,13.196
				c-4.6,1.85-8.507-3.66-4.852-7.251c4.386-4.308,8.773-8.617,13.159-12.925c1.923,2.19,3.844,4.383,5.765,6.574
				c-6.842,5.54-14.327,10.033-22.487,13.347c-4.576,1.858-8.298-3.585-4.781-7.143c4.085-4.132,8.17-8.263,12.256-12.395
				c1.894,2.159,3.787,4.319,5.68,6.478c-7.543,6.197-15.495,11.814-23.824,16.905c-4.387,2.681-7.824-3.769-4.706-7.03
				c5.049-5.281,10.097-10.562,15.145-15.844c1.861,2.122,3.721,4.244,5.582,6.365c-7.575,6.543-15.768,12.25-24.506,17.13
				c-3.49,1.948-7.994-2.8-5.358-6.057c4.142-5.114,8.276-10.231,12.416-15.348c2.075,1.808,4.151,3.616,6.228,5.424
				c-9.699,8.549-19.219,17.294-28.559,26.233c-3.316,3.174-8.996-1.627-6.167-5.369c6.304-8.338,12.606-16.674,18.91-25.011
				c3.164-4.184,9.55-0.057,6.837,4.498c-9.331,15.651-19.563,30.717-30.684,45.151c-3.238,4.202-9.142,0.156-6.79-4.467
				c4.807-9.448,10.58-18.259,17.321-26.439c3.244-3.936,9.91,0.167,6.775,4.459c-5.193,7.109-11.188,13.42-18.094,18.886
				c-3.695,2.923-8.18-1.271-6.052-5.271c5.714-10.734,12.396-20.834,20.023-30.306c1.996,1.738,3.993,3.477,5.989,5.216
				c-10.43,11.436-20.861,22.869-31.269,34.325c-2.606,2.87-7.898-0.705-6.397-4.21c6.814-15.903,17.65-29.029,28.878-41.997
				c3.211-3.709,9.741,0.367,6.521,4.29c-9.125,11.111-18.43,22.381-30.369,30.594c-3.294,2.265-8.818-1.285-5.852-5.096
				c9.301-11.944,18.621-23.87,28.021-35.735c2.164,1.424,4.328,2.848,6.493,4.272c-11.08,12.961-22.989,25.086-35.636,36.521
				c-3.059,2.766-7.888-1.349-5.507-4.794c9.513-13.771,19.974-26.796,31.423-39.003c3.336-3.556,8.031,2.086,4.938,5.632
				c-10.066,11.54-20.873,22.385-32.318,32.557c-2.978,2.645-8.107-1.469-5.455-4.75c10.459-12.934,20.865-25.913,31.402-38.784
				c1.838,1.601,3.674,3.199,5.511,4.799c-13.589,13.726-27.237,27.396-40.754,41.191c-2.724,2.781-7.32-1.319-5.134-4.47
				c9.962-14.352,20.778-28.044,32.444-41.048c1.508,1.721,3.017,3.44,4.524,5.159c-12.154,13.365-25.053,25.961-38.566,37.945
				c-2.73,2.423-7.174-1.232-4.937-4.299c9.767-13.381,20.312-26.17,31.767-38.142c1.453,1.658,2.906,3.315,4.36,4.973
				c-11.985,11.784-23.983,23.554-35.951,35.354c-2.71,2.672-6.413-1.699-3.864-4.407c4.848-5.155,9.43-10.522,13.666-16.191
				c1.91-2.555,3.754-5.157,5.527-7.808c0.648-0.968,4.656-5.93,3.961-7.087c1.732,0.343,3.465,0.686,5.197,1.029
				c-9.971,11.315-21.406,21.523-33.107,31.003C25.249,145.238,22.433,142.068,24.538,140.143L24.538,140.143z"/>
		</g>
	</g>
	<g>
		<g>
			<path fill="#FFFFFF" d="M63.836,113.476c-0.16,0.087-0.321,0.175-0.483,0.263c-0.723,0.394-1.558,0.117-2.105-0.417
				c-0.16-0.154-0.318-0.31-0.478-0.464c-0.433-0.422-0.55-1.188-0.358-1.742c1.255-3.64,6.783-6.285,9.743-8.432
				c4.962-3.597,9.923-7.195,14.884-10.791c2.872-2.083,6.494,1.813,3.707,4.226c-9.42,8.156-19.369,15.755-29.066,23.579
				c-2.482,2.004-5.419-1.434-3.238-3.693c6.869-7.115,14.24-13.773,21.414-20.581c1.055,1.575,2.108,3.149,3.162,4.725
				c-8.961,3.894-16.326,10.02-23.646,16.361c-2.801,2.425-6.141-1.626-3.723-4.245c8.377-9.073,17.893-16.654,28.688-22.667
				c3.049-1.698,6.338,3.029,3.455,5.163c-10.845,8.024-21.814,16.06-29.355,27.46c-1.59-1.383-3.176-2.767-4.766-4.149
				c11.519-9.801,22.948-19.705,34.365-29.624c1.51-1.313,4.61-1.099,5.365,1.063c1.936,5.537-2.254,8.81-5.7,12.661
				c-5.429,6.069-10.403,12.482-14.983,19.213c-1.528-1.728-3.056-3.454-4.584-5.182c5.066-2.349,9.206-7.866,13.167-11.736
				c4.258-4.162,8.524-8.316,12.763-12.498c2.627-2.592,6.836,0.573,5.83,3.836c-1.559,5.048-5.201,9.486-8.047,13.885
				c-3.256,5.032-6.53,10.052-9.811,15.067c-1.597-1.804-3.191-3.608-4.787-5.411c5.553-3.633,9.16-9.291,12.689-14.758
				c1.605-2.488,5.134-2.029,6.494,0.396c2.979,5.307-3.764,12.235-6.412,16.466c-1.602-1.81-3.203-3.619-4.805-5.43
				c2.846-1.176,5.279-2.703,7.291-5.067c3.066-3.602,8.814-0.142,6.282,4.133c-5.05,8.525-10.722,16.425-17.228,23.892
				c-2.583,2.963-7.701-1.465-5.256-4.576c5.869-7.479,11.35-15.271,16.201-23.448c2.095,1.378,4.188,2.755,6.282,4.133
				c-2.896,3.396-6.093,5.958-10.237,7.667c-3.382,1.394-6.861-2.147-4.807-5.431c1.162-1.855,2.326-3.711,3.488-5.566
				c0.498-0.795,0.996-1.591,1.494-2.386c0.775-1.837,1.104-2.189,0.983-1.055c2.165,0.132,4.329,0.264,6.493,0.396
				c-4.357,6.743-8.829,12.901-15.633,17.344c-3.244,2.119-6.678-2.525-4.789-5.411c2.92-4.456,5.838-8.912,8.779-13.354
				c2.828-4.27,6.873-8.804,8.445-13.713c1.943,1.278,3.886,2.557,5.83,3.836c-4.759,4.596-9.484,9.226-14.22,13.844
				c-4.091,3.989-8.038,8.937-13.303,11.371c-3.146,1.455-6.639-2.166-4.583-5.181c3.174-4.655,6.52-9.182,10.109-13.527
				c1.396-1.693,2.824-3.365,4.283-5.006c0.91-1.024,6.346-5.528,5.809-7.173c1.884,0.633,3.768,1.266,5.652,1.897
				c-11.607,9.697-23.203,19.413-34.709,29.229c-2.713,2.315-6.773-1.104-4.766-4.148c7.846-11.896,19.08-20.495,30.552-28.668
				c1.151,1.722,2.304,3.442,3.456,5.163c-10.391,5.543-19.741,12.652-27.746,21.298c-1.241-1.414-2.482-2.83-3.723-4.245
				c7.618-6.686,15.378-13.312,24.824-17.253c2.944-1.229,5.632,2.449,3.163,4.724c-7.269,6.693-14.401,13.595-21.956,19.963
				c-1.078-1.23-2.158-2.462-3.238-3.693c9.499-8.053,18.826-16.394,28.598-24.111c1.034,1.543,2.067,3.087,3.102,4.63
				c-2.322,1.531-22.646,16.438-24.243,14.475c-0.702-0.139-1.405-0.277-2.106-0.417c0.17-0.069,0.34-0.138,0.511-0.206
				C64.349,109.55,65.816,112.396,63.836,113.476L63.836,113.476z"/>
		</g>
	</g>
	<g>
		<g>
			<path fill="#FFFFFF" d="M36.438,128.077c2.769-3.738,5.538-7.476,8.306-11.213c1.641-2.212,5.238,0.134,3.588,2.36
				c-5.694,7.692-12.43,14.366-20.109,20.078c-2.175,1.618-4.456-1.135-2.723-3.106c8.338-9.482,16.653-18.865,24.266-28.956
				c2.295-3.044,7.305,0.311,4.936,3.247c-1.262,1.563-2.561,3.046-3.972,4.479c-1.544,1.567-4.468-0.359-3.642-2.396
				c0.76-1.874,1.621-3.598,2.678-5.33c1.645,1.082,3.291,2.165,4.936,3.247c-8.238,10.065-16.871,20.027-26.479,28.815
				c-0.908-1.036-1.815-2.071-2.723-3.106c7.336-5.572,13.674-11.991,19.244-19.332c1.197,0.787,2.393,1.573,3.588,2.36
				c-2.814,3.707-5.629,7.415-8.443,11.123C38.292,132.447,34.849,130.223,36.438,128.077L36.438,128.077z"/>
		</g>
	</g>
	<g>
		<g>
			<path fill="#FFFFFF" d="M55.895,106.549c1.366-2.688,3.775-4.431,6.604-5.326c1.178-0.373,2.51,0.566,2.864,1.648
				c0.422,1.29-0.165,2.348-1.241,3.065c-0.786,0.524-1.587,0.924-2.303,1.552c-0.738,0.647-1.39,1.403-2.205,1.958
				c-1.195,0.813-3.469,0.281-3.191-1.55c0.412-2.742,2.91-5.441,5.468-6.465c0.541,1.57,1.083,3.143,1.624,4.714
				c-1.828,0.183-3.465,0.908-4.637,2.366C57.425,110.32,54.853,108.596,55.895,106.549L55.895,106.549z"/>
		</g>
	</g>
</g>
</svg>
