<?xml version="1.0" encoding="utf-8"?>
<!-- Generator: Adobe Illustrator 16.0.0, SVG Export Plug-In . SVG Version: 6.00 Build 0)  -->
<!DOCTYPE svg PUBLIC "-//W3C//DTD SVG 1.1//EN" "http://www.w3.org/Graphics/SVG/1.1/DTD/svg11.dtd">
<svg version="1.1" id="Layer_1" xmlns="http://www.w3.org/2000/svg" xmlns:xlink="http://www.w3.org/1999/xlink" x="0px" y="0px"
	 width="256px" height="256px" viewBox="0 0 256 256" enable-background="new 0 0 256 256" xml:space="preserve">
<g display="none">
	<g display="inline">
		<path fill="#FFFFFF" d="M79.26,467.075c-5.18,5.177-11.961,6.786-15.15,3.602l-5.967-5.967l18.541-18.962l6.18,6.175
			C86.049,455.112,84.434,461.894,79.26,467.075z"/>
		<path fill="#FFFFFF" d="M71.442,439.821l-38.477-38.479c7.709-11.582,12.224-25.479,12.224-40.435
			c0-40.363-32.721-73.086-73.086-73.086c-40.363,0-73.698,32.728-73.086,73.086c0.632,41.119,33.202,73.659,73.086,73.083
			c15.815-0.229,30.426-5.081,42.386-13.621l38.419,38.417L71.442,439.821z M23.49,361.904c0,28.379-23.007,51.386-51.387,51.386
			s-51.388-23.007-51.388-51.386c0-28.381,23.008-51.389,51.388-51.389S23.49,333.523,23.49,361.904z"/>
	</g>
	<g display="inline">
		<path fill="#FFFFFF" d="M-27.541,409.353c-26.223,0-47.555-21.335-47.555-47.558c0-26.221,21.332-47.557,47.555-47.557
			s47.56,21.336,47.56,47.557C20.02,388.018-1.317,409.353-27.541,409.353z M-27.541,316.861c-24.778,0-44.932,20.159-44.932,44.934
			c0,24.776,20.154,44.935,44.932,44.935c24.773,0,44.932-20.158,44.932-44.935C17.392,337.021-2.768,316.861-27.541,316.861z"/>
	</g>
</g>
<path fill="#FFFFFF" d="M174.005,124.068c-13.354,0-24.211,10.856-24.211,24.217c0,13.35,10.856,24.211,24.211,24.211
	s24.212-10.861,24.212-24.211C198.217,134.924,187.359,124.068,174.005,124.068 M174.005,156.354c-4.446,0-8.074-3.621-8.074-8.068
	c0-4.453,3.628-8.074,8.074-8.074c4.454,0,8.075,3.621,8.075,8.074C182.08,152.732,178.459,156.354,174.005,156.354 M174.005,91.809
	c-30.707,0-55.69,24.97-55.69,55.664v1.457c0,15.438,8.68,33.221,25.797,52.863c12.227,14.033,24.318,23.842,24.816,24.25
	l5.077,4.092l5.071-4.092c0.506-0.408,12.597-10.217,24.823-24.25c17.117-19.643,25.796-37.426,25.796-52.863v-1.457
	C229.695,116.786,204.72,91.809,174.005,91.809 M213.554,148.93c0,20.611-25.104,47.314-39.521,60.199
	c-4.394-3.943-11.084-10.293-17.749-17.943c-14.281-16.379-21.818-30.99-21.818-42.256v-1.457c0-21.792,17.734-39.521,39.54-39.521
	c21.807,0,39.549,17.729,39.549,39.521V148.93z M138.817,230.229H67.461c-13.362,0-24.205-10.842-24.205-24.217v-88.83l-3.594,3.117
	c-3.359,2.922-8.458,2.56-11.379-0.8c-2.93-3.366-2.56-8.465,0.806-11.387l92.935-80.714c2.499-2.171,6.22-2.171,8.732,0
	l57.129,49.624c-4.495-0.887-9.13-1.351-13.88-1.351c-3.278,0-6.516,0.222-9.687,0.651c-1.008,0.129-2.028-0.161-2.809-0.825
	l-32.769-28.458c-1.357-1.175-3.358-1.175-4.709,0l-64.632,56.128v102.843c0,4.461,3.607,8.074,8.062,8.074h64.094
	c1.203,0,2.346,0.525,3.145,1.41c2.453,2.709,4.857,5.234,7.148,7.551C144.5,225.723,142.58,230.229,138.817,230.229"/>
</svg>
