<?xml version="1.0" encoding="utf-8"?>
<!-- Generator: Adobe Illustrator 16.0.0, SVG Export Plug-In . SVG Version: 6.00 Build 0)  -->
<!DOCTYPE svg PUBLIC "-//W3C//DTD SVG 1.1//EN" "http://www.w3.org/Graphics/SVG/1.1/DTD/svg11.dtd">
<svg version="1.1" id="Layer_1" xmlns="http://www.w3.org/2000/svg" xmlns:xlink="http://www.w3.org/1999/xlink" x="0px" y="0px"
	 width="256px" height="256px" viewBox="0 0 256 256" enable-background="new 0 0 256 256" xml:space="preserve">
<g>
	<g>
		<path fill="#FFFFFF" d="M215.26,215.075c-5.18,5.177-11.961,6.786-15.15,3.602l-5.967-5.967l18.541-18.962l6.18,6.175
			C222.049,203.111,220.434,209.895,215.26,215.075z"/>
		<path fill="#FFFFFF" d="M207.441,187.82l-38.477-38.479c7.709-11.582,12.225-25.479,12.225-40.434
			c0-40.364-32.722-73.086-73.086-73.086c-40.363,0-73.698,32.727-73.086,73.086c0.632,41.119,33.202,73.658,73.086,73.083
			c15.815-0.229,30.426-5.081,42.385-13.621l38.42,38.417L207.441,187.82z M159.49,109.904c0,28.379-23.008,51.386-51.387,51.386
			c-28.38,0-51.388-23.007-51.388-51.386c0-28.381,23.008-51.389,51.388-51.389C136.482,58.515,159.49,81.523,159.49,109.904z"/>
	</g>
</g>
</svg>
