<?xml version="1.0" encoding="utf-8"?>
<!-- Generator: Adobe Illustrator 16.0.0, SVG Export Plug-In . SVG Version: 6.00 Build 0)  -->
<!DOCTYPE svg PUBLIC "-//W3C//DTD SVG 1.1//EN" "http://www.w3.org/Graphics/SVG/1.1/DTD/svg11.dtd">
<svg version="1.1" id="Layer_3_2_" xmlns="http://www.w3.org/2000/svg" xmlns:xlink="http://www.w3.org/1999/xlink" x="0px" y="0px"
	 width="491.519px" height="457.932px" viewBox="6.173 38.068 491.519 457.932"
	 enable-background="new 6.173 38.068 491.519 457.932" xml:space="preserve">
<g id="Layer_2_2_">
	<g id="Layer_1_2_">
		<g>
			
				<path id="New_Taipei_City_1_" fill="none" stroke="#915353" stroke-width="0.25" stroke-linecap="round" stroke-linejoin="round" d="
				M470.388,243.762l-10.394-2.788l-8.85-0.933l-17.248,2.618l-5.196-2.38l-6.498-10.013l-5.999-21.414l-1.747-12.802l1.111-7.219
				l4.006-9.025l-7.968-5.063l-85.228-20.707l-0.733,29.441l0.415,7.465l9.115,9.535l-0.944,6.063l-6.229,4.579l-9.837,3.695
				l-12.67-1.622l-26.049-10.858l-7.359-5.25l-9.034-8.583l-7.036-8.573l-4.225-8.646l-7.028-9.099l-1.407-7.1l7.831-5.331
				l17.671-7.685l10.848-7.235l0.009-0.011l-5.673-3.988l-2.638-3.113l-0.213-5.388l2.479-4.378l2.596-3.176l0.296-2.177
				l-5.37-1.489l-7.6,0.88l-6.64,1.833l-2.895,1.219l-8.871-18.411l-24.668-34.824l-11.069-8.313l-26.623-3.138l-27.161,6.202
				l-23.659,12.07l-16.188,14.655l-7.853,14.401l-5.117,12.707l-1.961,2.276l-4.676,2.206l-4.488,3.729l-2.165,6.673l7.535,4.72
				l14.293,14.478l8.911,14.004l-8.541,3.47l-3.849-3.823l-3.009-6.776l-4.649-6.496l-8.638-2.885l-7.488,0.112l-5.583,0.988
				l-4.528,2.268l-15.191,12.646l-11.699,4.607l-27.723,5l-0.036,0.008l10.449,11.355l15.431,7.49l11.69,7.482l7.87,7.091
				l10.005,2.372l10.449,5.525l12.652,18.422l1.176,9.95l-2.409,10.349l-8.311,8.572l-32.13,9.455l-9.107,9.93l0.527,15.267
				l-2.673,14.271l2.673,12.516l13.202,12.59l2.506,12.599l-3.342,16.553l12.652,7.058l18.271-0.971l12.431,4.923l20.708,30.398
				l-3.564,12.878l-7.714,9.229l1.979,12.784l3.415,13.764l22.031,20.826l6.052,13.433l14.222-3.979l12.061-4.531l9.37-8.04
				l12.163-8.555l16.397-7.972l9.608-6.775l-1.037-5.007l-2.519-7.848l-0.322-10.239l4.712-12.202l11.681-9.828l9.366-5.611
				l32.149-13.08l33.206-19.873l15.272-4.729l12.413-8.85l7.597-12.396l8.028-10.138l9.11-4.816l8.685-3.045l11.32-7.198
				l4.015-9.353l-6.159-8.753l3.486-7.296l27.474-5.611l9.043-6l20.698-11.041l14.664-3.066l8.187,4.65l1.915,2.752v0.009
				L484.5,254.68l-4.959-6.284L470.388,243.762z"/>
		</g>
	</g>
</g>
</svg>
