<?xml version="1.0" encoding="utf-8"?>
<!-- Generator: Adobe Illustrator 16.0.0, SVG Export Plug-In . SVG Version: 6.00 Build 0)  -->
<!DOCTYPE svg PUBLIC "-//W3C//DTD SVG 1.1//EN" "http://www.w3.org/Graphics/SVG/1.1/DTD/svg11.dtd">
<svg version="1.1" id="Layer_3_2_" xmlns="http://www.w3.org/2000/svg" xmlns:xlink="http://www.w3.org/1999/xlink" x="0px" y="0px"
	 width="512px" height="512px" viewBox="0 0 512 512" enable-background="new 0 0 512 512" xml:space="preserve">
<g id="Layer_2_2_">
	<g id="Layer_1_2_">
		<g>
			
				<path id="New_Taipei_City_1_" fill="#7F7F7F" stroke="#EFEFEF" stroke-width="0.25" stroke-linecap="round" stroke-linejoin="round" d="
				M202.354,253.825l-2.301-0.617l-1.959-0.207l-3.818,0.58l-1.15-0.527l-1.438-2.217l-1.328-4.74l-0.387-2.834l0.246-1.598
				l0.887-1.998l-1.764-1.121l-18.867-4.584l-0.162,6.518l0.092,1.652l2.018,2.111l-0.209,1.342l-1.379,1.014l-2.178,0.818
				l-2.805-0.359l-5.767-2.404l-1.629-1.162l-2-1.9l-1.558-1.898l-0.936-1.914l-1.556-2.014l-0.312-1.572l1.733-1.18l3.912-1.701
				l2.401-1.602l0.002-0.002l-1.256-0.883l-0.584-0.689l-0.047-1.193l0.549-0.969l0.574-0.703l0.065-0.482l-1.188-0.33l-1.683,0.195
				l-1.47,0.406l-0.641,0.27l-1.964-4.076l-5.461-7.709l-2.45-1.84l-5.894-0.695l-6.013,1.373l-5.237,2.672l-3.583,3.244
				l-1.738,3.188l-1.133,2.813l-0.434,0.504l-1.035,0.488l-0.994,0.826l-0.479,1.477l1.668,1.045l3.164,3.205l1.973,3.1
				l-1.891,0.768l-0.852-0.846l-0.666-1.5l-1.029-1.438l-1.912-0.639l-1.658,0.025l-1.236,0.219l-1.002,0.502l-3.363,2.799
				l-2.59,1.02l-6.137,1.107l-0.008,0.002l2.313,2.514l3.416,1.658l2.588,1.656l1.742,1.57l2.215,0.525l2.313,1.223l2.801,4.078
				l0.26,2.203l-0.533,2.291l-1.84,1.897l-7.113,2.093l-2.016,2.198l0.117,3.38l-0.592,3.159l0.592,2.771l2.922,2.787l0.555,2.789
				l-0.74,3.664l2.801,1.563l4.045-0.215l2.752,1.09l4.584,6.729l-0.789,2.851l-1.708,2.043l0.438,2.83l0.756,3.047l4.877,4.61
				l1.34,2.974l3.148-0.881l2.67-1.003l2.074-1.78l2.692-1.894l3.63-1.765l2.127-1.5l-0.229-1.108l-0.558-1.737l-0.071-2.267
				l1.043-2.701l2.586-2.176l2.073-1.242l7.117-2.896l7.351-4.399l3.381-1.047l2.748-1.959l1.682-2.744l1.777-2.244l2.017-1.066
				l1.923-0.674l2.506-1.594l0.889-2.07l-1.363-1.938l0.771-1.615l6.082-1.242l2.002-1.328l4.582-2.444l3.246-0.679l1.813,1.029
				l0.424,0.609v0.002l4.74-2.348l-1.098-1.391L202.354,253.825z"/>
		</g>
	</g>
</g>
</svg>
