<?xml version="1.0" encoding="utf-8"?>
<!-- Generator: Adobe Illustrator 16.0.0, SVG Export Plug-In . SVG Version: 6.00 Build 0)  -->
<!DOCTYPE svg PUBLIC "-//W3C//DTD SVG 1.1//EN" "http://www.w3.org/Graphics/SVG/1.1/DTD/svg11.dtd">
<svg version="1.1" id="Layer_1" xmlns="http://www.w3.org/2000/svg" xmlns:xlink="http://www.w3.org/1999/xlink" x="0px" y="0px"
	 width="512px" height="512px" viewBox="0 0 512 512" enable-background="new 0 0 512 512" xml:space="preserve">
<g id="Layer_1_3_" display="none">
	<g display="inline">
		
			<path id="Yilan_County_2_" fill="#FFD522" stroke="#D64949" stroke-width="0.25" stroke-linecap="round" stroke-linejoin="round" d="
			M328.87,203.872l-0.424-0.609l-1.813-1.029l-3.246,0.678l-4.582,2.445l-2.002,1.328l-6.082,1.242l-0.771,1.615l1.363,1.938
			l-0.889,2.07l-2.506,1.594l-1.922,0.674l-2.018,1.066l-1.777,2.244l-1.682,2.744l-2.748,1.959l-3.381,1.047l-7.352,4.4
			l-7.115,2.895l-2.074,1.242l-2.586,2.176l-1.043,2.701l0.07,2.266l0.559,1.738l0.229,1.109l-2.127,1.5l-3.629,1.764l-2.693,1.893
			l-2.073,1.781l-2.67,1.002l-3.147,0.881l-1.673,0.467l-2.928,2.133l1.7,6.783l-1.229,2.088l-1.875,0.697l-1.754-0.352
			l-2.133,0.873l-0.3,0.82l-1.266,3.541l-0.736,2.588l0.314,2.391l-2.049,3.176l-7.631,7.729l-2.369,5.707l1.992,0.547l-0.373,3.035
			l0.795,2.021l2.684,0.586l2.394,1.391l2.028,1.389l2.133-0.328l2.611-1.236h2.67l3.178,2.563l1.361,1.104l3.543,1.713l8.221,2.086
			l4.498,1.719l3.563,0.018l2.688-2.473l1.267-3.252l2.078-0.479l10.092,6.025l6.07,0.914l0.592,0.014l-0.113-0.125l-0.57-0.902
			l0.277-0.75l0.547-0.723l0.307-0.891l0.281-3.467l0.439-1.76l0.701-1.229l0.631-1.461l-0.234-3.805l0.131-1.721l3.84-4.402
			l3.383-1.969l1.379-1.295l-0.328-1.525l-0.922-1.475l-0.422-1.629l0.246-1.342l3.256-1.852l0.457-3.082l-0.736-3.539l-1.434-2.736
			l1.012-0.725l1.414-0.459l1.68-0.176l1.777,0.182v-0.979l-4.182-0.768l-3.545-2.197l-1.869-3.4l-0.105-4.41l0.771-2.159
			l0.104-2.158l-1.797-8.438l-0.141-4.052l0.289-4.172l0.83-4.196l1.271-3.666l1.611-2.623l10.188-12.424l3.014-2.613l6.531-3.234
			v-0.003L328.87,203.872L328.87,203.872z M325.708,225.284l-1.053-0.18l-0.129-0.064l-0.059,0.033l-0.09-0.015l-0.082,0.115
			l-1.355,0.776l-0.539-0.18l0.701,1.133l0.047,0.006l0.211,0.334l0.736,0.418l2.088,0.07l0.398-1.271l-0.354-0.343L325.708,225.284
			z"/>
		
			<polygon id="Taoyuan_City_2_" fill="#FFD522" stroke="#D64949" stroke-width="0.25" stroke-linecap="round" stroke-linejoin="round" points="
			258.739,252.225 257.399,249.252 252.522,244.641 251.767,241.594 251.329,238.764 253.036,236.721 253.825,233.872 
			249.241,227.143 246.489,226.053 242.444,226.268 239.644,224.706 240.384,221.042 239.829,218.252 236.907,215.465 
			236.315,212.696 236.907,209.536 236.79,206.157 238.806,203.958 245.919,201.865 247.759,199.967 248.292,197.676 
			248.032,195.473 245.231,191.396 242.919,190.172 240.704,189.647 238.962,188.076 236.374,186.42 232.958,184.762 
			230.646,182.249 219.681,184.233 214.802,185.99 212.353,187.324 210.333,189.104 207.989,190.572 197.938,193.877 
			194.017,197.199 190.226,201.719 185.372,209.458 187.108,210.065 194.54,209.536 197.06,211.237 199.24,215.967 201.968,217.034 
			204.324,217.713 206.552,218.78 210.288,219.997 212.245,222.264 211.63,225.465 213.513,227.491 217.085,228.624 
			219.358,230.278 221.071,231.977 223.155,232.37 225.251,232.194 227.104,234.108 228.524,236.588 230.899,237.764 
			232.765,239.202 232.958,241.944 233.819,245.905 232.794,250.125 230.274,253.67 230.587,256.043 233.374,258.189 
			236.751,260.215 239.774,260.736 241.97,262.303 245.942,264.563 248.55,265.734 248.849,264.914 250.981,264.041 
			252.735,264.393 254.61,263.695 255.841,261.607 254.14,254.825 257.067,252.692 		"/>
		
			<polygon id="Taipei_2_" fill="#FFD522" stroke="#D64949" stroke-width="0.25" stroke-linecap="round" stroke-linejoin="round" points="
			281.364,196.238 278.86,194.831 278.759,192.049 279.646,188.449 278.759,186.026 276.638,184.146 275.29,178.66 274.368,176.729 
			273.524,174.944 273.302,173.062 273.599,171.096 272.474,169.915 270.382,169.229 268.204,170.309 266.603,171.668 
			260.661,175.206 258.72,177.385 257.562,179.874 256.583,181.182 255.71,182.803 257.771,185.111 260.913,188.122 
			261.563,191.526 260.704,195.584 262.868,199.247 266.011,201.717 268.085,204.088 270.087,205.854 272.712,206.442 
			275.88,206.475 278.163,205.526 282.313,200.295 283.396,197.971 		"/>
		
			<path id="New_Taipei_City_2_" fill="#FFD522" stroke="#D64949" stroke-width="0.25" stroke-linecap="round" stroke-linejoin="round" d="
			M330.481,199.111l-2.301-0.617l-1.959-0.207l-3.818,0.58l-1.15-0.527l-1.438-2.217l-1.328-4.74l-0.387-2.834l0.246-1.598
			l0.887-1.998l-1.764-1.121l-18.867-4.584l-0.162,6.518l0.092,1.652l2.018,2.111l-0.209,1.342l-1.379,1.014l-2.178,0.818
			l-2.805-0.359l-5.767-2.404l-1.629-1.162l-2-1.9l-1.558-1.898l-0.936-1.914l-1.556-2.014l-0.312-1.572l1.733-1.18l3.912-1.701
			l2.401-1.602l0.002-0.002l-1.256-0.883l-0.584-0.689l-0.047-1.193l0.549-0.969l0.574-0.703l0.065-0.482l-1.188-0.33l-1.683,0.195
			l-1.47,0.406l-0.641,0.27l-1.964-4.076l-5.461-7.709l-2.45-1.84l-5.894-0.695l-6.013,1.373l-5.237,2.672l-3.584,3.244
			l-1.738,3.188l-1.133,2.813l-0.434,0.504l-1.035,0.488l-0.994,0.826l-0.479,1.477l1.668,1.045l3.164,3.205l1.973,3.1L251.091,181
			l-0.852-0.846l-0.666-1.5l-1.029-1.438l-1.912-0.639l-1.658,0.025l-1.236,0.219l-1.002,0.502l-3.363,2.799l-2.59,1.02
			l-6.137,1.107l-0.008,0.002l2.313,2.514l3.416,1.658l2.588,1.656l1.742,1.57l2.215,0.525l2.313,1.223l2.801,4.078l0.261,2.203
			l-0.533,2.291l-1.84,1.898l-7.113,2.092l-2.016,2.199l0.116,3.379l-0.592,3.16l0.592,2.77l2.923,2.787l0.555,2.789l-0.74,3.664
			l2.801,1.563l4.045-0.215l2.752,1.09l4.584,6.729l-0.789,2.851l-1.707,2.043l0.438,2.83l0.756,3.047l4.877,4.61l1.34,2.974
			l3.148-0.881l2.67-1.003l2.074-1.78l2.692-1.894l3.63-1.765l2.127-1.5l-0.229-1.108l-0.558-1.737l-0.071-2.267l1.043-2.701
			l2.586-2.176l2.073-1.242l7.117-2.896l7.351-4.399l3.381-1.047l2.748-1.959l1.682-2.744l1.777-2.244l2.017-1.065l1.923-0.674
			l2.506-1.595l0.889-2.069l-1.363-1.938l0.771-1.615l6.082-1.241l2.002-1.328l4.582-2.445l3.246-0.678l1.813,1.029l0.424,0.609
			v0.002l4.74-2.348l-1.098-1.391L330.481,199.111z M282.313,200.295l-4.15,5.23l-2.281,0.948l-3.17-0.032l-2.625-0.588
			l-2.002-1.767l-2.072-2.371l-3.145-2.471l-2.164-3.662l0.859-4.059l-0.65-3.404l-3.143-3.01l-2.061-2.309l0.873-1.621l0.979-1.309
			l1.158-2.488l1.941-2.18l5.939-3.537l1.604-1.359l2.178-1.08l2.092,0.686l1.125,1.182l-0.297,1.965l0.223,1.883l0.844,1.785
			l0.922,1.932l1.35,5.484l2.121,1.881l0.887,2.424l-0.887,3.6l0.102,2.781l2.506,1.408l2.029,1.732L282.313,200.295z"/>
		
			<polygon id="Keelung_2_" fill="#FFD522" stroke="#D64949" stroke-width="0.25" stroke-linecap="round" stroke-linejoin="round" points="
			298.53,187.418 298.438,185.766 298.601,179.249 292.472,177.76 290.372,176.986 289.46,176.084 289.038,175.529 288.276,174.994 
			288.274,174.997 285.872,176.598 281.96,178.299 280.226,179.479 280.536,181.051 282.091,183.065 283.026,184.979 
			284.583,186.877 286.583,188.777 288.212,189.94 293.978,192.344 296.782,192.704 298.958,191.885 300.337,190.872 
			300.546,189.529 		"/>
		
			<polygon id="Hsinchu_County_2_" fill="#FFD522" stroke="#D64949" stroke-width="0.25" stroke-linecap="round" stroke-linejoin="round" points="
			248.55,265.734 245.942,264.563 241.97,262.303 239.774,260.736 236.751,260.215 233.374,258.189 230.587,256.043 230.274,253.67 
			232.794,250.125 233.819,245.905 232.958,241.944 232.765,239.202 230.899,237.764 228.524,236.588 227.104,234.108 
			225.251,232.194 223.155,232.37 221.071,231.977 219.358,230.278 217.085,228.624 213.513,227.491 211.63,225.465 
			212.245,222.264 210.288,219.997 206.552,218.78 204.324,217.713 201.968,217.034 199.24,215.967 197.06,211.237 194.54,209.536 
			187.108,210.065 185.372,209.458 185.372,209.459 184.249,211.252 183.024,214.581 182.662,216.182 182.779,216.852 
			181.401,217.321 179.955,218.499 178.824,220.061 178.367,221.651 178.04,223.747 177.224,224.963 177.188,225.006 
			181.72,226.967 189.947,229.581 192.896,231.149 195.007,233.239 196.015,235.239 195.481,237.247 194.201,237.985 
			191.375,238.463 188.199,239.768 186.313,242.12 185.083,245.209 183.728,246.868 186.149,252.909 188.257,255.34 
			191.533,257.777 198.17,260.908 200.263,262.734 200.69,265.605 200.5,267.732 200.07,269.602 199.537,271.322 200.07,272.906 
			200.586,275.057 199.915,277.6 199.415,280.359 201.649,280.9 205.841,279.75 209.556,279.51 212.149,279.768 219.005,278.029 
			221.731,280.207 222.45,282.615 224.257,284.373 226.731,288.633 227.081,291.291 227.503,290.994 233.269,290.451 
			234.813,290.865 237.183,285.158 244.813,277.43 246.862,274.254 246.548,271.863 247.284,269.275 		"/>
		
			<polygon id="Hsinchu_2_" fill="#FFD522" stroke="#D64949" stroke-width="0.25" stroke-linecap="round" stroke-linejoin="round" points="
			195.007,233.239 192.896,231.149 189.947,229.581 181.72,226.967 177.188,225.006 177.188,225.008 176.244,226.01 
			175.427,227.631 176.022,228.854 176.384,229.854 176.408,230.782 176.011,231.635 174.817,233.262 171.787,239.463 
			171.173,241.7 171.183,241.702 174.933,243.165 177.244,244.577 178.728,246.645 181.11,247.6 183.625,246.995 183.728,246.868 
			185.083,245.209 186.313,242.12 188.199,239.768 191.375,238.463 194.201,237.985 195.481,237.247 196.015,235.239 		"/>
	</g>
</g>
<g id="Layer_2_2_" display="none">
	<g id="Layer_1_2_" display="inline">
		<g>
			
				<path id="Yilan_County_1_" fill="#7F7F7F" stroke="#EFEFEF" stroke-width="0.25" stroke-linecap="round" stroke-linejoin="round" d="
				M328.87,203.872l-0.424-0.609l-1.813-1.028l-3.246,0.678l-4.582,2.445l-2.002,1.328l-6.082,1.241l-0.771,1.615l1.363,1.938
				l-0.889,2.069l-2.506,1.595l-1.922,0.674l-2.018,1.065l-1.777,2.244l-1.682,2.744l-2.748,1.959l-3.381,1.047l-7.352,4.4
				l-7.115,2.895l-2.074,1.242l-2.586,2.176l-1.043,2.701l0.07,2.266l0.559,1.738l0.229,1.109l-2.127,1.5l-3.629,1.764l-2.693,1.893
				l-2.073,1.781l-2.67,1.002l-3.147,0.881l-1.673,0.467l-2.928,2.133l1.7,6.783l-1.229,2.088l-1.875,0.697l-1.754-0.352
				l-2.133,0.873l-0.3,0.82l-1.266,3.541l-0.736,2.588l0.314,2.391l-2.049,3.176l-7.631,7.729l-2.369,5.707l1.992,0.547
				l-0.373,3.035l0.795,2.021l2.684,0.586l2.394,1.391l2.028,1.389l2.133-0.328l2.611-1.236h2.67l3.178,2.563l1.361,1.104
				l3.543,1.713l8.221,2.086l4.498,1.719l3.563,0.018l2.688-2.473l1.267-3.252l2.078-0.479l10.092,6.025l6.07,0.914l0.592,0.014
				l-0.113-0.125l-0.57-0.902l0.277-0.75l0.547-0.723l0.307-0.891l0.281-3.467l0.439-1.76l0.701-1.229l0.631-1.461l-0.234-3.805
				l0.131-1.721l3.84-4.402l3.383-1.969l1.379-1.295l-0.328-1.525l-0.922-1.475l-0.422-1.629l0.246-1.342l3.256-1.852l0.457-3.082
				l-0.736-3.539l-1.434-2.736l1.012-0.725l1.414-0.459l1.68-0.176l1.777,0.182v-0.979l-4.182-0.768l-3.545-2.197l-1.869-3.4
				l-0.105-4.41l0.771-2.159l0.104-2.158l-1.797-8.438l-0.141-4.052l0.289-4.172l0.83-4.196l1.271-3.666l1.611-2.623l10.188-12.425
				l3.014-2.613l6.531-3.233v-0.003L328.87,203.872L328.87,203.872z M325.708,225.284l-1.053-0.18l-0.129-0.064l-0.059,0.033
				l-0.09-0.015l-0.082,0.115l-1.355,0.776l-0.539-0.18l0.701,1.133l0.047,0.006l0.211,0.334l0.736,0.418l2.088,0.07l0.398-1.271
				l-0.354-0.343L325.708,225.284z"/>
			
				<polygon id="Taoyuan_City_1_" fill="#7F7F7F" stroke="#EFEFEF" stroke-width="0.25" stroke-linecap="round" stroke-linejoin="round" points="
				258.739,252.225 257.399,249.252 252.522,244.641 251.767,241.594 251.329,238.764 253.036,236.721 253.825,233.872 
				249.241,227.143 246.489,226.053 242.444,226.268 239.644,224.706 240.384,221.042 239.829,218.252 236.907,215.465 
				236.315,212.695 236.907,209.535 236.79,206.156 238.806,203.958 245.919,201.865 247.759,199.967 248.292,197.676 
				248.032,195.473 245.231,191.396 242.919,190.172 240.704,189.647 238.962,188.076 236.374,186.42 232.958,184.762 
				230.646,182.249 219.681,184.233 214.802,185.99 212.353,187.324 210.333,189.104 207.989,190.572 197.938,193.877 
				194.017,197.199 190.226,201.719 185.372,209.458 187.108,210.066 194.54,209.535 197.06,211.236 199.24,215.967 
				201.968,217.033 204.324,217.713 206.552,218.779 210.288,219.997 212.245,222.264 211.63,225.465 213.513,227.491 
				217.085,228.624 219.358,230.278 221.071,231.977 223.155,232.37 225.251,232.194 227.104,234.108 228.524,236.588 
				230.899,237.764 232.765,239.202 232.958,241.944 233.819,245.905 232.794,250.125 230.274,253.67 230.587,256.043 
				233.374,258.189 236.751,260.215 239.774,260.736 241.97,262.303 245.942,264.563 248.55,265.734 248.849,264.914 
				250.981,264.041 252.735,264.393 254.61,263.695 255.841,261.607 254.14,254.825 257.067,252.692 			"/>
			
				<polygon id="Taipei_1_" fill="#7F7F7F" stroke="#EFEFEF" stroke-width="0.25" stroke-linecap="round" stroke-linejoin="round" points="
				281.364,196.238 278.86,194.831 278.759,192.049 279.646,188.449 278.759,186.026 276.638,184.146 275.29,178.66 
				274.368,176.729 273.524,174.944 273.302,173.062 273.599,171.096 272.474,169.915 270.382,169.229 268.204,170.309 
				266.603,171.668 260.661,175.206 258.72,177.385 257.562,179.874 256.583,181.182 255.71,182.803 257.771,185.111 
				260.913,188.122 261.563,191.526 260.704,195.584 262.868,199.247 266.011,201.717 268.085,204.088 270.087,205.855 
				272.712,206.443 275.88,206.475 278.163,205.527 282.313,200.295 283.396,197.971 			"/>
			
				<path id="New_Taipei_City_1_" fill="#7F7F7F" stroke="#EFEFEF" stroke-width="0.25" stroke-linecap="round" stroke-linejoin="round" d="
				M330.481,199.111l-2.301-0.617l-1.959-0.207l-3.818,0.58l-1.15-0.527l-1.438-2.217l-1.328-4.74l-0.387-2.834l0.246-1.598
				l0.887-1.998l-1.764-1.121l-18.867-4.584l-0.162,6.518l0.092,1.652l2.018,2.111l-0.209,1.342l-1.379,1.014l-2.178,0.818
				l-2.805-0.359l-5.767-2.404l-1.629-1.162l-2-1.9l-1.558-1.898l-0.936-1.914l-1.556-2.014l-0.312-1.572l1.733-1.18l3.912-1.701
				l2.401-1.602l0.002-0.002l-1.256-0.883l-0.584-0.689l-0.047-1.193l0.549-0.969l0.574-0.703l0.065-0.482l-1.188-0.33l-1.683,0.195
				l-1.47,0.406l-0.641,0.27l-1.964-4.076l-5.461-7.709l-2.45-1.84l-5.894-0.695l-6.013,1.373l-5.237,2.672l-3.584,3.244
				l-1.738,3.188l-1.133,2.813l-0.434,0.504l-1.035,0.488l-0.994,0.826l-0.479,1.477l1.668,1.045l3.164,3.205l1.973,3.1L251.091,181
				l-0.852-0.846l-0.666-1.5l-1.029-1.438l-1.912-0.639l-1.658,0.025l-1.236,0.219l-1.002,0.502l-3.363,2.799l-2.59,1.02
				l-6.137,1.107l-0.008,0.002l2.313,2.514l3.416,1.658l2.588,1.656l1.742,1.57l2.215,0.525l2.313,1.223l2.801,4.078l0.261,2.203
				l-0.533,2.291l-1.84,1.897l-7.113,2.093l-2.016,2.198l0.116,3.38l-0.592,3.159l0.592,2.771l2.923,2.787l0.555,2.789l-0.74,3.664
				l2.801,1.563l4.045-0.215l2.752,1.09l4.584,6.729l-0.789,2.851l-1.707,2.043l0.438,2.83l0.756,3.047l4.877,4.61l1.34,2.974
				l3.148-0.881l2.67-1.003l2.074-1.78l2.692-1.894l3.63-1.765l2.127-1.5l-0.229-1.108l-0.558-1.737l-0.071-2.267l1.043-2.701
				l2.586-2.176l2.073-1.242l7.117-2.896l7.351-4.399l3.381-1.047l2.748-1.959l1.682-2.744l1.777-2.244l2.017-1.066l1.923-0.674
				l2.506-1.594l0.889-2.07l-1.363-1.938l0.771-1.615l6.082-1.242l2.002-1.328l4.582-2.444l3.246-0.679l1.813,1.029l0.424,0.609
				v0.002l4.74-2.348l-1.098-1.391L330.481,199.111z M282.313,200.295l-4.15,5.229l-2.281,0.949l-3.17-0.033l-2.625-0.588
				l-2.002-1.766l-2.072-2.371l-3.145-2.471l-2.164-3.662l0.859-4.059l-0.65-3.404l-3.143-3.01l-2.061-2.309l0.873-1.621
				l0.979-1.309l1.158-2.488l1.941-2.18l5.939-3.537l1.604-1.359l2.178-1.08l2.092,0.686l1.125,1.182l-0.297,1.965l0.223,1.883
				l0.844,1.785l0.922,1.932l1.35,5.484l2.121,1.881l0.887,2.424l-0.887,3.6l0.102,2.781l2.506,1.408l2.029,1.732L282.313,200.295z"
				/>
			
				<polygon id="Keelung_1_" fill="#7F7F7F" stroke="#EFEFEF" stroke-width="0.25" stroke-linecap="round" stroke-linejoin="round" points="
				298.53,187.418 298.438,185.766 298.601,179.249 292.472,177.76 290.372,176.986 289.46,176.084 289.038,175.529 
				288.276,174.994 288.274,174.997 285.872,176.598 281.96,178.299 280.226,179.479 280.536,181.051 282.091,183.065 
				283.026,184.979 284.583,186.877 286.583,188.777 288.212,189.94 293.978,192.344 296.782,192.704 298.958,191.885 
				300.337,190.872 300.546,189.529 			"/>
			
				<polygon id="Hsinchu_County_1_" fill="#7F7F7F" stroke="#EFEFEF" stroke-width="0.25" stroke-linecap="round" stroke-linejoin="round" points="
				248.55,265.734 245.942,264.563 241.97,262.303 239.774,260.736 236.751,260.215 233.374,258.189 230.587,256.043 
				230.274,253.67 232.794,250.125 233.819,245.905 232.958,241.944 232.765,239.202 230.899,237.764 228.524,236.588 
				227.104,234.108 225.251,232.194 223.155,232.37 221.071,231.977 219.358,230.278 217.085,228.624 213.513,227.491 
				211.63,225.465 212.245,222.264 210.288,219.997 206.552,218.779 204.324,217.713 201.968,217.033 199.24,215.967 
				197.06,211.236 194.54,209.535 187.108,210.066 185.372,209.458 185.372,209.459 184.249,211.252 183.024,214.581 
				182.662,216.182 182.779,216.853 181.401,217.32 179.955,218.499 178.824,220.062 178.367,221.652 178.04,223.747 
				177.224,224.963 177.188,225.006 181.72,226.967 189.947,229.581 192.896,231.149 195.007,233.239 196.015,235.239 
				195.481,237.247 194.201,237.985 191.375,238.463 188.199,239.768 186.313,242.12 185.083,245.209 183.728,246.868 
				186.149,252.909 188.257,255.34 191.533,257.777 198.17,260.908 200.263,262.734 200.69,265.605 200.5,267.732 200.07,269.602 
				199.537,271.322 200.07,272.906 200.586,275.057 199.915,277.6 199.415,280.359 201.649,280.9 205.841,279.75 209.556,279.51 
				212.149,279.768 219.005,278.029 221.731,280.207 222.45,282.615 224.257,284.373 226.731,288.633 227.081,291.291 
				227.503,290.994 233.269,290.451 234.813,290.865 237.183,285.158 244.813,277.43 246.862,274.254 246.548,271.863 
				247.284,269.275 			"/>
			
				<polygon id="Hsinchu_1_" fill="#7F7F7F" stroke="#EFEFEF" stroke-width="0.25" stroke-linecap="round" stroke-linejoin="round" points="
				195.007,233.239 192.896,231.149 189.947,229.581 181.72,226.967 177.188,225.006 177.188,225.008 176.244,226.01 
				175.427,227.631 176.022,228.854 176.384,229.854 176.408,230.782 176.011,231.635 174.817,233.262 171.787,239.463 
				171.173,241.7 171.183,241.702 174.933,243.165 177.244,244.577 178.728,246.645 181.11,247.6 183.625,246.995 183.728,246.868 
				185.083,245.209 186.313,242.12 188.199,239.768 191.375,238.463 194.201,237.985 195.481,237.247 196.015,235.239 			"/>
		</g>
	</g>
</g>
<g id="Layer_2" display="none">
	<g display="inline">
		
			<polygon id="Yunlin_County" fill="#7F7F7F" stroke="#EFEFEF" stroke-width="0.25" stroke-linecap="round" stroke-linejoin="round" points="
			236.02,332.385 231.516,332.868 227.809,334.001 224.636,332.609 222.473,330.055 222.977,326.913 224.016,324.1 223.453,319.921 
			224.016,316.003 225.108,313.448 224.073,309.48 223.511,309.864 216.975,308.57 213.8,308.614 207.167,305.329 196.417,304.12 
			190.093,301.7 186.457,300.706 182.343,300.489 170.352,301.915 166.208,299.525 166.207,299.523 165.746,300.405 
			162.703,302.739 162.28,303.568 161.721,305.055 158.358,309.497 157.671,311.128 156.399,315.919 155.718,321.391 
			153.341,325.57 151.817,330.919 151.425,337.614 151.542,346.581 149.042,349.387 149.559,349.355 149.639,349.296 
			155.391,348.652 159.925,351.206 163.214,351.241 165.378,349.527 166.296,346.844 167.425,345.227 170.332,344.771 
			174.125,341.667 176.555,340.374 178.63,338.305 187.522,333.161 191.438,332.092 198.313,330.801 202.078,330.604 
			204.953,333.128 207.682,336.331 214.559,338.854 216.573,338.563 221.108,337.27 223.688,339.079 224.992,341.247 
			228.43,340.893 234.833,339.598 236.966,338.887 236.966,337.012 237.175,334.292 237.44,334.32 		"/>
		
			<polygon id="Taichung" fill="#7F7F7F" stroke="#EFEFEF" stroke-width="0.25" stroke-linecap="round" stroke-linejoin="round" points="
			336.948,213.018 334.278,213.018 331.667,214.253 329.534,214.581 327.505,213.193 325.112,211.805 322.429,211.219 
			321.634,209.2 322.007,206.163 320.015,205.618 318.47,205.204 312.704,205.747 312.282,206.042 310.253,207.462 309.269,210.521 
			306.612,211.628 303.71,211.564 301.397,213.193 298.905,215.602 295.706,217.359 289.384,222.393 285.624,223.928 
			280.81,226.512 277.843,225.339 275.134,222.323 271.835,220.999 266.462,220.594 263.452,222.393 262.981,226.4 260.134,227.941 
			253.491,228.288 247.173,224.645 243.612,223.997 239.582,222.04 231.364,215.971 227.94,212.977 225.355,210.241 
			220.328,202.471 213.083,210.512 211.261,213.51 209.721,218.917 204.646,227.73 203.164,234.445 201.948,237.938 
			200.151,239.443 199.742,241.239 199.405,241.641 199.401,241.646 202.582,242.684 204.761,244.587 206.214,248.051 
			206.776,252.191 209.223,255.159 215.707,257.063 218.055,259.012 219.813,261.739 220.899,263.907 220.923,266.068 
			221.598,267.902 223.923,268.316 226.901,270.264 226.912,271.025 229.214,271.107 239.02,272.491 241.313,272.124 
			244.021,269.527 248.151,261.674 250.163,257.063 253.655,255.393 259.175,256.2 262.46,256.042 265.606,251.866 267.241,250.825 
			272.142,254.464 274.034,253.969 275.464,250.999 278.019,248.855 281.632,248.921 284.358,247.88 288.667,243.721 
			291.429,242.163 293.837,241.706 298.653,239.174 302.026,239.042 305.427,238.497 311.491,236.098 314.04,235.921 
			316.606,236.508 323.89,237.182 323.897,237.182 325.421,236.092 326.089,234.984 327.95,234.012 329.608,231.977 
			330.319,229.161 331.958,226.471 336.081,223.87 337.36,220.505 337.597,218.227 340.126,215.579 		"/>
		
			<polygon id="Nantou_County" fill="#7F7F7F" stroke="#EFEFEF" stroke-width="0.25" stroke-linecap="round" stroke-linejoin="round" points="
			321.948,243.895 324.769,242.573 324.636,240.604 323.89,237.182 316.606,236.508 314.04,235.921 311.491,236.098 
			305.427,238.497 302.026,239.042 298.653,239.174 293.837,241.706 291.429,242.163 288.667,243.721 284.358,247.88 
			281.632,248.921 278.019,248.855 275.464,250.999 274.034,253.969 272.142,254.464 267.241,250.825 265.606,251.866 
			262.46,256.042 259.175,256.2 253.655,255.393 250.163,257.063 248.151,261.674 244.021,269.527 241.313,272.124 239.02,272.491 
			229.214,271.107 226.912,271.025 226.925,272.989 224.591,273.813 223.923,275.413 224.237,277.622 223.132,280.085 
			222.242,283.046 222.184,286.141 221.555,289.747 221.078,297.053 222.184,300.489 224.175,302.303 226.296,303.081 
			229.335,304.618 228.821,306.538 226.727,307.383 225.348,308.614 224.073,309.48 225.108,313.448 224.016,316.003 
			223.453,319.921 224.016,324.1 222.977,326.913 222.473,330.055 224.636,332.609 227.809,334.001 231.516,332.868 236.02,332.385 
			237.44,334.32 240.764,334.682 244.438,336.105 246.69,336.753 249.505,338.27 249.3,341.15 247.667,343.962 248.352,346.581 
			249.8,350.139 250.009,353.309 250.606,355.411 254.753,356.15 268.714,356.249 269.204,356.368 271.589,356.926 274.761,358.155 
			277.044,361.32 277.401,362.417 280.69,360.546 282.364,358.997 281.438,355.614 282.271,354.167 283.077,351.95 285.909,349.859 
			289.94,348.956 293.972,348.827 296.86,346.239 297.601,341.583 299.753,338.782 303.929,337.27 306.362,335.542 307.253,332.784 
			308.983,325.88 309.659,321.329 309.147,317.417 308.497,314.441 306.776,312.241 305.606,310.055 308.71,304.939 
			308.827,302.907 310.214,299.063 312.306,294.439 313.987,289.661 314.831,284.239 315.165,280.107 314.202,277.661 
			313.062,275.844 314.366,271.691 317.122,265.872 321.493,260.18 321.634,258.102 320.827,255.614 317.995,253.77 316.44,252.105 
			316.3,246.667 318.315,245.109 		"/>
		
			<polygon id="Miaoli_County" fill="#7F7F7F" stroke="#EFEFEF" stroke-width="0.25" stroke-linecap="round" stroke-linejoin="round" points="
			311.933,203.385 309.458,199.124 307.651,197.368 306.933,194.958 304.206,192.782 297.351,194.52 294.757,194.262 
			291.042,194.501 286.851,195.652 284.616,195.111 285.116,192.352 285.788,189.809 285.272,187.659 284.737,186.075 
			285.272,184.354 285.702,182.484 285.894,180.357 285.464,177.486 283.372,175.661 276.733,172.53 273.458,170.092 
			271.353,167.661 268.931,161.62 268.827,161.747 266.313,162.352 263.931,161.396 262.444,159.329 260.134,157.916 
			256.384,156.454 256.374,156.452 256.185,157.166 254.224,158.15 253.767,159.152 252.765,162.282 250.733,164.335 
			249.25,166.354 249.774,169.344 245.852,168.598 242.809,169.4 240.296,171.258 238.009,173.645 237.266,174.98 236.645,176.419 
			235.606,177.575 231.917,178.663 231.078,180.128 230.203,183.536 226.981,189.229 225.78,192.275 225.3,195.872 224.287,198.077 
			220.328,202.471 220.328,202.471 225.355,210.241 227.94,212.977 231.364,215.971 239.582,222.04 243.612,223.997 
			247.173,224.645 253.491,228.288 260.134,227.941 262.981,226.4 263.452,222.393 266.462,220.594 271.835,220.999 
			275.134,222.323 277.843,225.339 280.81,226.512 285.624,223.928 289.384,222.393 295.706,217.359 298.905,215.602 
			301.397,213.193 303.71,211.564 306.612,211.628 309.269,210.521 310.253,207.462 312.282,206.042 		"/>
		
			<polygon id="Changhua_County" fill="#7F7F7F" stroke="#EFEFEF" stroke-width="0.25" stroke-linecap="round" stroke-linejoin="round" points="
			226.296,303.081 224.175,302.303 222.184,300.489 221.078,297.053 221.555,289.747 222.184,286.141 222.242,283.046 
			223.132,280.085 224.237,277.622 223.923,275.413 224.591,273.813 226.925,272.989 226.912,271.025 226.901,270.264 
			223.923,268.316 221.598,267.902 220.923,266.068 220.899,263.907 219.813,261.739 218.055,259.012 215.707,257.063 
			209.223,255.159 206.776,252.191 206.214,248.051 204.761,244.587 202.582,242.684 199.401,241.646 193.221,248.876 
			191.75,250.277 191.257,251.792 190.934,257.301 190.291,258.96 187.489,261.159 186.848,262.667 186.507,264.277 
			185.655,265.073 184.466,265.646 183.112,266.561 181.466,268.202 179.996,270.755 176.848,279.544 174.605,283.773 
			173.134,287.999 172.016,289.555 168.151,293.258 167.498,294.878 166.608,298.747 166.207,299.523 166.208,299.525 
			170.352,301.915 182.343,300.489 186.457,300.706 190.093,301.7 196.417,304.12 207.167,305.329 213.8,308.614 216.975,308.57 
			223.511,309.864 224.073,309.48 225.348,308.614 226.727,307.383 228.821,306.538 229.335,304.618 		"/>
	</g>
</g>
<g id="Layer_2_1_" display="none">
	<g display="inline">
		
			<polygon id="Yunlin_County_1_" fill="#FFD522" stroke="#D64949" stroke-width="0.25" stroke-linecap="round" stroke-linejoin="round" points="
			236.019,332.385 231.515,332.868 227.808,334.001 224.635,332.609 222.472,330.055 222.976,326.913 224.015,324.1 
			223.452,319.921 224.015,316.003 225.107,313.448 224.072,309.48 223.51,309.864 216.974,308.57 213.799,308.614 207.167,305.329 
			196.417,304.12 190.092,301.7 186.456,300.706 182.342,300.489 170.351,301.915 166.208,299.525 166.206,299.523 165.745,300.405 
			162.702,302.739 162.279,303.568 161.72,305.055 158.357,309.497 157.67,311.128 156.398,315.919 155.717,321.391 153.34,325.57 
			151.816,330.919 151.424,337.614 151.542,346.581 149.042,349.387 149.558,349.355 149.638,349.296 155.39,348.652 
			159.924,351.206 163.213,351.241 165.377,349.527 166.295,346.844 167.424,345.227 170.331,344.771 174.124,341.667 
			176.554,340.374 178.629,338.305 187.521,333.161 191.437,332.092 198.312,330.801 202.077,330.604 204.952,333.128 
			207.681,336.331 214.558,338.854 216.572,338.563 221.107,337.27 223.687,339.079 224.991,341.247 228.429,340.893 
			234.833,339.598 236.965,338.887 236.965,337.012 237.174,334.292 237.439,334.32 		"/>
		
			<polygon id="Taichung_1_" fill="#FFD522" stroke="#D64949" stroke-width="0.25" stroke-linecap="round" stroke-linejoin="round" points="
			336.948,213.019 334.278,213.019 331.667,214.253 329.534,214.582 327.505,213.192 325.112,211.806 322.429,211.22 321.634,209.2 
			322.007,206.163 320.015,205.618 318.47,205.204 312.704,205.747 312.282,206.042 310.253,207.462 309.269,210.521 
			306.612,211.628 303.708,211.563 301.396,213.192 298.905,215.603 295.706,217.358 289.384,222.394 285.624,223.929 
			280.808,226.513 277.843,225.339 275.134,222.323 271.833,220.999 266.462,220.595 263.452,222.394 262.979,226.399 
			260.134,227.94 253.491,228.288 247.172,224.646 243.611,223.997 239.581,222.04 231.363,215.972 227.939,212.978 
			225.355,210.241 220.327,202.472 213.083,210.513 211.26,213.51 209.72,218.917 204.646,227.729 203.163,234.444 201.947,237.937 
			200.15,239.442 199.741,241.239 199.404,241.642 199.4,241.646 202.581,242.685 204.76,244.587 206.213,248.051 206.775,252.19 
			209.222,255.159 215.706,257.062 218.054,259.013 219.812,261.739 220.898,263.907 220.922,266.067 221.597,267.901 
			223.922,268.315 226.9,270.265 226.911,271.024 229.213,271.106 239.019,272.491 241.312,272.124 244.021,269.526 248.15,261.674 
			250.163,257.062 253.653,255.394 259.175,256.2 262.458,256.042 265.604,251.866 267.241,250.825 272.14,254.464 274.034,253.97 
			275.464,250.999 278.017,248.854 281.632,248.921 284.356,247.88 288.667,243.722 291.429,242.163 293.837,241.707 
			298.653,239.174 302.026,239.042 305.427,238.497 311.491,236.099 314.04,235.921 316.604,236.508 323.89,237.183 
			323.896,237.183 325.421,236.092 326.089,234.983 327.95,234.013 329.608,231.978 330.319,229.161 331.958,226.472 
			336.081,223.87 337.36,220.505 337.597,218.228 340.126,215.579 		"/>
		
			<polygon id="Nantou_County_1_" fill="#FFD522" stroke="#D64949" stroke-width="0.25" stroke-linecap="round" stroke-linejoin="round" points="
			321.948,243.896 324.769,242.573 324.636,240.603 323.89,237.183 316.604,236.508 314.04,235.921 311.491,236.099 
			305.427,238.497 302.026,239.042 298.653,239.174 293.837,241.707 291.429,242.163 288.667,243.722 284.356,247.88 
			281.632,248.921 278.017,248.854 275.464,250.999 274.034,253.97 272.14,254.464 267.241,250.825 265.604,251.866 
			262.458,256.042 259.175,256.2 253.653,255.394 250.163,257.062 248.15,261.674 244.021,269.526 241.312,272.124 239.019,272.491 
			229.213,271.106 226.911,271.024 226.924,272.989 224.59,273.812 223.922,275.413 224.236,277.622 223.131,280.085 
			222.241,283.046 222.183,286.142 221.554,289.747 221.077,297.053 222.183,300.489 224.174,302.303 226.295,303.081 
			229.333,304.618 228.82,306.538 226.726,307.383 225.347,308.614 224.072,309.48 225.107,313.448 224.015,316.003 
			223.452,319.921 224.015,324.1 222.976,326.913 222.472,330.055 224.635,332.609 227.808,334.001 231.515,332.868 
			236.019,332.385 237.439,334.32 240.763,334.682 244.437,336.105 246.689,336.753 249.505,338.27 249.299,341.15 247.667,343.962 
			248.351,346.581 249.8,350.139 250.009,353.309 250.604,355.411 254.753,356.15 268.714,356.249 269.204,356.368 271.589,356.926 
			274.761,358.155 277.042,361.32 277.399,362.417 280.688,360.546 282.362,358.997 281.437,355.614 282.269,354.167 
			283.077,351.95 285.909,349.859 289.94,348.956 293.972,348.827 296.86,346.239 297.601,341.583 299.753,338.782 303.929,337.27 
			306.362,335.542 307.253,332.784 308.983,325.88 309.659,321.329 309.146,317.417 308.497,314.441 306.776,312.241 
			305.604,310.055 308.708,304.939 308.827,302.907 310.214,299.063 312.306,294.439 313.987,289.661 314.831,284.239 
			315.165,280.106 314.202,277.661 313.062,275.845 314.366,271.69 317.122,265.872 321.493,260.181 321.634,258.103 
			320.827,255.614 317.995,253.771 316.44,252.104 316.3,246.667 318.315,245.108 		"/>
		
			<polygon id="Miaoli_County_1_" fill="#FFD522" stroke="#D64949" stroke-width="0.25" stroke-linecap="round" stroke-linejoin="round" points="
			311.933,203.385 309.458,199.124 307.651,197.368 306.933,194.958 304.206,192.782 297.351,194.521 294.757,194.263 
			291.042,194.501 286.851,195.651 284.616,195.11 285.116,192.353 285.788,189.81 285.271,187.659 284.735,186.075 
			285.271,184.353 285.702,182.483 285.892,180.356 285.464,177.485 283.372,175.661 276.731,172.53 273.458,170.092 
			271.351,167.661 268.929,161.62 268.827,161.747 266.312,162.352 263.929,161.396 262.442,159.329 260.134,157.915 
			256.384,156.454 256.374,156.452 256.183,157.165 254.222,158.15 253.765,159.152 252.763,162.282 250.731,164.335 
			249.249,166.353 249.772,169.344 245.851,168.598 242.808,169.4 240.295,171.258 238.008,173.646 237.265,174.979 
			236.644,176.419 235.605,177.575 231.917,178.664 231.077,180.128 230.202,183.536 226.98,189.228 225.779,192.274 
			225.299,195.873 224.286,198.077 220.327,202.472 220.327,202.472 225.355,210.241 227.939,212.978 231.363,215.972 
			239.581,222.04 243.611,223.997 247.172,224.646 253.491,228.288 260.134,227.94 262.979,226.399 263.452,222.394 
			266.462,220.595 271.833,220.999 275.134,222.323 277.843,225.339 280.808,226.513 285.624,223.929 289.384,222.394 
			295.706,217.358 298.905,215.603 301.396,213.192 303.708,211.563 306.612,211.628 309.269,210.521 310.253,207.462 
			312.282,206.042 		"/>
		
			<polygon id="Changhua_County_1_" fill="#FFD522" stroke="#D64949" stroke-width="0.25" stroke-linecap="round" stroke-linejoin="round" points="
			226.295,303.081 224.174,302.303 222.183,300.489 221.077,297.053 221.554,289.747 222.183,286.142 222.241,283.046 
			223.131,280.085 224.236,277.622 223.922,275.413 224.59,273.812 226.924,272.989 226.911,271.024 226.9,270.265 223.922,268.315 
			221.597,267.901 220.922,266.067 220.898,263.907 219.812,261.739 218.054,259.013 215.706,257.062 209.222,255.159 
			206.775,252.19 206.213,248.051 204.76,244.587 202.581,242.685 199.4,241.646 193.22,248.876 191.749,250.276 191.256,251.792 
			190.933,257.301 190.29,258.96 187.488,261.159 186.847,262.667 186.506,264.276 185.654,265.073 184.465,265.646 
			183.111,266.562 181.465,268.202 179.995,270.755 176.847,279.544 174.605,283.772 173.133,287.999 172.015,289.556 
			168.15,293.258 167.497,294.878 166.607,298.747 166.206,299.523 166.208,299.525 170.351,301.915 182.342,300.489 
			186.456,300.706 190.092,301.7 196.417,304.12 207.167,305.329 213.799,308.614 216.974,308.57 223.51,309.864 224.072,309.48 
			225.347,308.614 226.726,307.383 228.82,306.538 229.333,304.618 		"/>
	</g>
</g>
<g id="Layer_3" display="none">
	<g display="inline">
		<path id="Tainan" fill="#FFD522" stroke="#D64949" stroke-width="0.25" stroke-linecap="round" stroke-linejoin="round" d="
			M183.782,210.621l-0.479-0.66l-0.387,0.012l-0.15,0.707l0.922,2.254l1.225,1.111l0.34-0.67l0.07-0.527l-1.18-1.211
			L183.782,210.621z M190.889,179.094l0.385-4.367l-0.279-0.098l-0.34,5.754l0.059,0.059L190.889,179.094z M189.733,186.918
			l-0.092-0.984l-0.293,0.039l-1.973,5.363h0.035L189.733,186.918z M267.857,184.816l-2.018-0.617l-2.729,0.355l-2.932,1.324
			l-2.05-0.031l-2.457-1.906l-0.861-2.484l0.949-7.742l-0.533-4.102l-5.396-5.52l-0.947-2.777l-1.127-2.293l-2.195-1.324
			l-3.91-1.293l-4.627,0.258l-8.299,1.553l-4.24,1.904l-3.348,2.488l-2.549,2.615l-3.619,2.811l-3.141,1.936l-1.365,2.709
			l-3.406,1.52l-3.943-1.004l-4.832-0.707l-2.861-1.082l-0.865,2.219l2.037,1.359l-1.4,0.355l-0.865,0.941l-1.844,4.891
			l-0.256,1.227l0.264,1.25l-1.24,1.438l-0.758,2.027l-0.508,1.607l0.748,1.756l0.443,2.137l-0.725,1.383l-1.48,0.496l-1.367,0.773
			l-0.373,2.186l1.529,1.748l2.322,2.008l0.42,1.434l-4.271,0.037v1.066l5.102,1.275l0.781,0.857l-0.572,1.65l-1.68,0.539
			l-2.031,0.271l-1.6,0.83l-0.641,1.262l-0.361,1.867l0.396,1.889l1.586,1.369l1.494-0.395l1.016-1.578l1.25-1.121l2.215,0.963
			l0.445,1.338l-0.27,3.824l0.713,1.215l1.809,0.078l0.969-1.465l0.57-1.844l0.666-1.016l3.453,0.494l0.586,2.859l-1.447,3.311
			l-2.592,1.844l2.123,2.141l0.994,1.977l0.523,3.422v0.004l3.363-2.016l0.074,0.24l2.164,4.732l2.607,1.32l8.537,1.223l4.506-0.484
			l4.598,0.547l2.281-0.805l1.926-1.414l3.527-1.416l3.439-2.414l1.303-2.994l1.633-2.865l2.873-3.832l3.352-3.51l3.527-2.934
			l4.061-3.961l3.525-4.543l5.455-9.281l5.689-8.256l1.246-3.607L267.857,184.816z M186.209,194.855l-0.117-0.076l-2.17,7.283
			l0.033,0.076l1.588-3.814l0.129-0.652l0.746-2.799L186.209,194.855z"/>
		
			<path id="Pingtung_County" fill="#FFD522" stroke="#D64949" stroke-width="0.25" stroke-linecap="round" stroke-linejoin="round" d="
			M306.273,250.004l-2.902-0.707l-0.416-2.637l-1.867-3.609l-0.029,0.008l-2.848-0.516l-2.34,0.129l-4.656,3.668l-3.199-3.023
			l-4.121-4.828l-3.941,0.965l-3.615,3.219l-7.145-3.605l-5.131,2.447l-3.469,3.857l-4.354,1.545l-9.725-0.576l-0.949,2.637
			l-0.711,3.922l-1.422,4.309l0.297,3.824l-0.059,5.174l-3.086,11.566l-0.088,3.885l1.512,4.078l0.209,4.494l-4.439,11.174
			l0.203,0.086l1.213,0.77l2.613,2.293l2.475,1.707l5.461,2.613l2.395,1.551l0.348,0.727l0.525,2.031l0.594,0.418l0.598,0.195
			l1.773,1.021l4.435,3.504l1.096,1.553l2.383,5.375l3.021,3.746l0.896,1.539l10.854,28.168l-0.304,1.643l-1.332,1.928l-0.313,1.721
			v5.854l-0.211,1.795l-0.035,1.098l0.246,1.34l3.013,5.021l-0.688,3.818l0.112,1.275l2.011,1.695l1.854,0.465l1.26-1.293
			l0.177-3.602l4.317,1.057l4.295,1.938l3.688,2.811l2.473,3.707l0.178-3.227l-0.771-4.98l-0.068-4.568l2.17-2.006l1.832-1.35
			l1.391-3.256l0.85-3.996l-0.465-28.158l-2.449,0.182l-5.57-2.563l-2.49-2.657l-1.778-3.235l-0.296-3.302l0.06-3.106l-1.69-2.438
			l-1.864-0.896l-1.481-2.115l0.295-2.502l1.125-2.114l2.905-1.731l1.363-2.082l-2.55-3.047l-1.422-2.728v-2.918l-0.563-3.884
			l-1.097-3.305l-0.685-3.563l0.445-8.027l1.662-4.077l2.016-3.599l1.304-3.599l2.935-2.44l4.181-0.897l2.605-1.479l5.311-2.246
			l1.096-2.701l0.088-2.825l1.512-7.523L306.273,250.004z M232.329,321.727l-0.113-0.303h-0.105l-0.176-0.26l-0.361,0.26h-1.121
			l-1.518,1.924l0.012,0.045l-0.748,1.443l0.445,1.686l0.012-0.021l0.012,0.115l1.645-1.429l0.91-0.724l0.188-0.172l1.471-0.996
			l-0.082-0.271l0.258-0.241L232.329,321.727z"/>
		
			<polygon id="Kaohsiung" fill="#FFD522" stroke="#D64949" stroke-width="0.25" stroke-linecap="round" stroke-linejoin="round" points="
			329.041,172.938 327.529,168.775 324.061,165.965 321.037,163.996 320.504,161.832 321.244,160.09 324.297,158.732 325.93,156.02 
			324.893,152.85 324.535,151.754 322.252,148.586 319.08,147.359 316.695,146.801 306.602,151.947 302.006,155.633 
			300.049,159.348 297.736,162.094 293.559,164.449 289.199,167.773 286.771,170.68 280.07,174.682 276.869,175.004 
			273.133,174.617 271.176,176.555 271.088,179.23 271.889,181.715 272.422,185.332 272.422,185.336 271.176,188.943 
			265.486,197.199 260.031,206.48 256.504,211.023 252.444,214.984 248.917,217.918 245.565,221.428 242.692,225.26 
			241.059,228.125 239.756,231.119 236.317,233.533 232.79,234.949 230.864,236.363 228.583,237.168 223.985,236.621 
			219.479,237.105 210.942,235.883 208.334,234.563 206.17,229.83 206.096,229.59 202.733,231.605 203.891,239.041 204.309,240.094 
			205.85,242.766 206.165,244.031 206.887,244.738 207.588,245.262 207.893,245.955 207.706,247.268 206.887,249.236 
			206.829,250.83 207.391,253.301 209.911,258.855 212.583,263.031 214.042,266.137 214.872,269.287 214.252,271.525 
			213.075,274.035 213.959,276.611 215.852,278.932 220.778,283.48 223.672,286.781 224.592,288.527 224.594,288.527 
			225.749,290.719 226.567,294.717 219.612,286.314 226.215,295.684 233.334,301.25 234.5,301.219 235.504,300.846 236.381,300.793 
			237.778,301.402 242.217,290.229 242.008,285.734 240.497,281.656 240.584,277.771 243.67,266.205 243.729,261.031 
			243.432,257.207 244.854,252.898 245.565,248.977 246.514,246.34 256.239,246.916 260.594,245.371 264.063,241.514 
			269.193,239.066 276.336,242.672 279.951,239.453 283.895,238.488 288.016,243.316 291.215,246.34 295.871,242.672 
			298.211,242.543 301.059,243.059 301.088,243.051 303.191,242.801 302.51,240.098 299.16,236.621 297.529,234.113 
			296.791,229.668 298.064,224.357 302.717,220.396 305.061,217.209 305.09,211.09 306.748,203.902 305.563,198.488 
			306.037,194.746 310.068,192.555 311.521,189.879 310.305,186.621 310.779,183.492 315.02,180.75 317.184,178.619 
			320.711,176.393 329.234,174.305 		"/>
		
			<path id="Chiayi_County" fill="#FFD522" stroke="#D64949" stroke-width="0.25" stroke-linecap="round" stroke-linejoin="round" d="
			M195.987,163.926l0.27-1.004l-0.49,0.205l-1.096,2.051l-0.117,0.994l0.525-0.619L195.987,163.926z M316.205,146.684l-13.963-0.102
			l-4.148-0.74l-0.594-2.1l-0.209-3.172l-1.449-3.555l-0.684-2.621l1.633-2.813l0.205-2.879l-2.816-1.518l-2.252-0.646l-3.674-1.426
			l-3.322-0.359l-0.268-0.029l-0.207,2.719v1.875l-2.133,0.713l-6.404,1.293l-3.438,0.355l-1.309-2.168l-2.578-1.811l-4.533,1.295
			l-2.018,0.289l-6.875-2.521l-2.729-3.201l-2.877-2.527l-3.764,0.197l-6.877,1.291l-3.914,1.07l-8.891,5.145l-2.078,2.068
			l-2.428,1.295l-3.795,3.102l-2.906,0.455l-1.127,1.617l-0.918,2.684l-2.164,1.713l-3.291-0.035l-4.535-2.551l-5.75,0.645
			l-0.08,0.059l-0.516,0.029l0.109,4.758l4.664-0.293l-2.215,2.873l-0.49,1.381l-0.945,1.139l-0.221,0.936l1.656,0.814v1.07
			l-1.049,1.982l2.275,4.395l1.998,5.693l-2.928-0.023l-2.01,0.141l-1.346,3.074l0.023,1.801l1.342,0.063l1.012,0.25l1.207-0.873
			l0.455,1.729l-0.77-0.252l-1.777,0.791l-2.102,0.141l2.861,1.082l4.832,0.707l3.943,1.004l3.406-1.52l1.365-2.709l3.141-1.936
			l3.619-2.811l2.549-2.615l3.348-2.488l4.24-1.904l8.299-1.553l4.627-0.258l3.91,1.293l2.195,1.324l1.127,2.293l0.947,2.777
			l5.396,5.52l0.533,4.102l-0.949,7.742l0.861,2.484l2.457,1.906l2.049,0.031l2.934-1.324l2.729-0.355l2.016,0.617l4.564,0.52
			v-0.004l-0.533-3.617l-0.801-2.484l0.088-2.676l1.957-1.938l3.736,0.387l3.201-0.322l6.701-4.002l2.428-2.906l4.357-3.324
			l4.178-2.355l2.313-2.746l1.957-3.715l4.596-3.686l10.094-5.146L316.205,146.684z M250.071,149.686l-2.461,0.326l-3.703,1.484
			l-4.002-0.906l-3.826-2.453l-3.318-1.324l-0.475-3.07l2.045-2.234l5.07-0.871l4.299-0.387l3.053,1.162l2.223,1.195l1.334,2.168
			l1.395,3.715L250.071,149.686z M195.393,169.09l-0.35-0.293l-0.572,0.832l-0.514,1.266l-1.283,1.689l0.197,0.596l0.969-0.725
			l0.83-1.729l0.781-1.049L195.393,169.09z M197.706,160.654l0.045-0.014l0.246-0.598l-0.035-1.57l-0.256-0.23V160.654z
			 M197.809,155.146l0.279,1.102l0.07-0.166l0.047,0.189l0.281-0.914l-0.049-0.014l0.012-0.02L197.809,155.146z M196.805,151.625
			l0.141,0.229l0.561,0.928l0.279-0.752l-0.115-0.045l0.035-0.131L196.805,151.625z"/>
		
			<polygon id="Chiayi_City" fill="#FFD522" stroke="#D64949" stroke-width="0.25" stroke-linecap="round" stroke-linejoin="round" points="
			250.309,144.775 248.975,142.607 246.752,141.412 243.7,140.25 239.401,140.637 234.331,141.508 232.286,143.742 232.76,146.813 
			236.079,148.137 239.905,150.59 243.907,151.496 247.61,150.012 250.071,149.686 251.704,148.49 		"/>
	</g>
</g>
<g id="Layer_3_1_" display="none">
	<g display="inline">
		<path id="Tainan_1_" fill="#7F7F7F" stroke="#EFEFEF" stroke-width="0.25" stroke-linecap="round" stroke-linejoin="round" d="
			M183.782,210.621l-0.479-0.66l-0.387,0.012l-0.15,0.707l0.922,2.254l1.225,1.111l0.34-0.67l0.07-0.527l-1.18-1.211
			L183.782,210.621z M190.889,179.094l0.385-4.367l-0.279-0.098l-0.34,5.754l0.059,0.059L190.889,179.094z M189.733,186.918
			l-0.092-0.984l-0.293,0.039l-1.973,5.363h0.035L189.733,186.918z M267.857,184.816l-2.018-0.617l-2.729,0.355l-2.932,1.324
			l-2.05-0.031l-2.457-1.906l-0.861-2.484l0.949-7.742l-0.533-4.102l-5.396-5.52l-0.947-2.777l-1.127-2.293l-2.195-1.324
			l-3.91-1.293l-4.627,0.258l-8.299,1.553l-4.24,1.904l-3.348,2.488l-2.549,2.615l-3.619,2.811l-3.141,1.936l-1.365,2.709
			l-3.406,1.52l-3.943-1.004l-4.832-0.707l-2.861-1.082l-0.865,2.219l2.037,1.359l-1.4,0.355l-0.865,0.941l-1.844,4.891
			l-0.256,1.227l0.264,1.25l-1.24,1.438l-0.758,2.027l-0.508,1.607l0.748,1.756l0.443,2.137l-0.725,1.383l-1.48,0.496l-1.367,0.773
			l-0.373,2.186l1.529,1.748l2.322,2.008l0.42,1.434l-4.271,0.037v1.066l5.102,1.275l0.781,0.857l-0.572,1.65l-1.68,0.539
			l-2.031,0.271l-1.6,0.83l-0.641,1.262l-0.361,1.867l0.396,1.889l1.586,1.369l1.494-0.395l1.016-1.578l1.25-1.121l2.215,0.963
			l0.445,1.338l-0.27,3.824l0.713,1.215l1.809,0.078l0.969-1.465l0.57-1.844l0.666-1.016l3.453,0.494l0.586,2.859l-1.447,3.311
			l-2.592,1.844l2.123,2.141l0.994,1.977l0.523,3.422v0.004l3.363-2.016l0.074,0.24l2.164,4.732l2.607,1.32l8.537,1.223l4.506-0.484
			l4.598,0.547l2.281-0.805l1.926-1.414l3.527-1.416l3.439-2.414l1.303-2.994l1.633-2.865l2.873-3.832l3.352-3.51l3.527-2.934
			l4.061-3.961l3.525-4.543l5.455-9.281l5.689-8.256l1.246-3.607L267.857,184.816z M186.209,194.855l-0.117-0.076l-2.17,7.283
			l0.033,0.076l1.588-3.814l0.129-0.652l0.746-2.799L186.209,194.855z"/>
		
			<path id="Pingtung_County_1_" fill="#7F7F7F" stroke="#EFEFEF" stroke-width="0.25" stroke-linecap="round" stroke-linejoin="round" d="
			M306.273,250.004l-2.902-0.707l-0.416-2.637l-1.867-3.609l-0.029,0.008l-2.848-0.516l-2.34,0.129l-4.656,3.668l-3.199-3.023
			l-4.121-4.828l-3.941,0.965l-3.615,3.219l-7.145-3.605l-5.131,2.447l-3.469,3.857l-4.354,1.545l-9.725-0.576l-0.949,2.637
			l-0.711,3.922l-1.422,4.309l0.297,3.824l-0.059,5.174l-3.086,11.566l-0.088,3.885l1.512,4.078l0.209,4.494l-4.439,11.174
			l0.203,0.086l1.213,0.77l2.613,2.293l2.475,1.707l5.461,2.613l2.395,1.551l0.348,0.727l0.525,2.031l0.594,0.418l0.598,0.195
			l1.773,1.021l4.435,3.504l1.096,1.553l2.383,5.375l3.021,3.746l0.896,1.539l10.854,28.168l-0.304,1.643l-1.332,1.928l-0.313,1.721
			v5.854l-0.211,1.795l-0.035,1.098l0.246,1.34l3.013,5.021l-0.688,3.818l0.112,1.275l2.011,1.695l1.854,0.465l1.26-1.293
			l0.177-3.602l4.317,1.057l4.295,1.938l3.688,2.811l2.473,3.707l0.178-3.227l-0.771-4.98l-0.068-4.568l2.17-2.006l1.832-1.35
			l1.391-3.256l0.85-3.996l-0.465-28.158l-2.449,0.182l-5.57-2.563l-2.49-2.657l-1.778-3.235l-0.296-3.302l0.06-3.106l-1.69-2.438
			l-1.864-0.896l-1.481-2.115l0.295-2.502l1.125-2.114l2.905-1.731l1.363-2.082l-2.55-3.047l-1.422-2.728v-2.918l-0.563-3.884
			l-1.097-3.305l-0.685-3.563l0.445-8.027l1.662-4.077l2.016-3.599l1.304-3.599l2.935-2.44l4.181-0.897l2.605-1.479l5.311-2.246
			l1.096-2.701l0.088-2.825l1.512-7.523L306.273,250.004z M232.329,321.727l-0.113-0.303h-0.105l-0.176-0.26l-0.361,0.26h-1.121
			l-1.518,1.924l0.012,0.045l-0.748,1.443l0.445,1.686l0.012-0.021l0.012,0.115l1.645-1.429l0.91-0.724l0.188-0.172l1.471-0.996
			l-0.082-0.271l0.258-0.241L232.329,321.727z"/>
		
			<polygon id="Kaohsiung_1_" fill="#7F7F7F" stroke="#EFEFEF" stroke-width="0.25" stroke-linecap="round" stroke-linejoin="round" points="
			329.041,172.938 327.529,168.775 324.061,165.965 321.037,163.996 320.504,161.832 321.244,160.09 324.297,158.732 325.93,156.02 
			324.893,152.85 324.535,151.754 322.252,148.586 319.08,147.359 316.695,146.801 306.602,151.947 302.006,155.633 
			300.049,159.348 297.736,162.094 293.559,164.449 289.199,167.773 286.771,170.68 280.07,174.682 276.869,175.004 
			273.133,174.617 271.176,176.555 271.088,179.23 271.889,181.715 272.422,185.332 272.422,185.336 271.176,188.943 
			265.486,197.199 260.031,206.48 256.504,211.023 252.444,214.984 248.917,217.918 245.565,221.428 242.692,225.26 
			241.059,228.125 239.756,231.119 236.317,233.533 232.79,234.949 230.864,236.363 228.583,237.168 223.985,236.621 
			219.479,237.105 210.942,235.883 208.334,234.563 206.17,229.83 206.096,229.59 202.733,231.605 203.891,239.041 204.309,240.094 
			205.85,242.766 206.165,244.031 206.887,244.738 207.588,245.262 207.893,245.955 207.706,247.268 206.887,249.236 
			206.829,250.83 207.391,253.301 209.911,258.855 212.583,263.031 214.042,266.137 214.872,269.287 214.252,271.525 
			213.075,274.035 213.959,276.611 215.852,278.932 220.778,283.48 223.672,286.781 224.592,288.527 224.594,288.527 
			225.749,290.719 226.567,294.717 219.612,286.314 226.215,295.684 233.334,301.25 234.5,301.219 235.504,300.846 236.381,300.793 
			237.778,301.402 242.217,290.229 242.008,285.734 240.497,281.656 240.584,277.771 243.67,266.205 243.729,261.031 
			243.432,257.207 244.854,252.898 245.565,248.977 246.514,246.34 256.239,246.916 260.594,245.371 264.063,241.514 
			269.193,239.066 276.336,242.672 279.951,239.453 283.895,238.488 288.016,243.316 291.215,246.34 295.871,242.672 
			298.211,242.543 301.059,243.059 301.088,243.051 303.191,242.801 302.51,240.098 299.16,236.621 297.529,234.113 
			296.791,229.668 298.064,224.357 302.717,220.396 305.061,217.209 305.09,211.09 306.748,203.902 305.563,198.488 
			306.037,194.746 310.068,192.555 311.521,189.879 310.305,186.621 310.779,183.492 315.02,180.75 317.184,178.619 
			320.711,176.393 329.234,174.305 		"/>
		
			<path id="Chiayi_County_1_" fill="#7F7F7F" stroke="#EFEFEF" stroke-width="0.25" stroke-linecap="round" stroke-linejoin="round" d="
			M195.987,163.926l0.27-1.004l-0.49,0.205l-1.096,2.051l-0.117,0.994l0.525-0.619L195.987,163.926z M316.205,146.684l-13.963-0.102
			l-4.148-0.74l-0.594-2.1l-0.209-3.172l-1.449-3.555l-0.684-2.621l1.633-2.813l0.205-2.879l-2.816-1.518l-2.252-0.646l-3.674-1.426
			l-3.322-0.359l-0.268-0.029l-0.207,2.719v1.875l-2.133,0.713l-6.404,1.293l-3.438,0.355l-1.309-2.168l-2.578-1.811l-4.533,1.295
			l-2.018,0.289l-6.875-2.521l-2.729-3.201l-2.877-2.527l-3.764,0.197l-6.877,1.291l-3.914,1.07l-8.891,5.145l-2.078,2.068
			l-2.428,1.295l-3.795,3.102l-2.906,0.455l-1.127,1.617l-0.918,2.684l-2.164,1.713l-3.291-0.035l-4.535-2.551l-5.75,0.645
			l-0.08,0.059l-0.516,0.029l0.109,4.758l4.664-0.293l-2.215,2.873l-0.49,1.381l-0.945,1.139l-0.221,0.936l1.656,0.814v1.07
			l-1.049,1.982l2.275,4.395l1.998,5.693l-2.928-0.023l-2.01,0.141l-1.346,3.074l0.023,1.801l1.342,0.063l1.012,0.25l1.207-0.873
			l0.455,1.729l-0.77-0.252l-1.777,0.791l-2.102,0.141l2.861,1.082l4.832,0.707l3.943,1.004l3.406-1.52l1.365-2.709l3.141-1.936
			l3.619-2.811l2.549-2.615l3.348-2.488l4.24-1.904l8.299-1.553l4.627-0.258l3.91,1.293l2.195,1.324l1.127,2.293l0.947,2.777
			l5.396,5.52l0.533,4.102l-0.949,7.742l0.861,2.484l2.457,1.906l2.049,0.031l2.934-1.324l2.729-0.355l2.016,0.617l4.564,0.52
			v-0.004l-0.533-3.617l-0.801-2.484l0.088-2.676l1.957-1.938l3.736,0.387l3.201-0.322l6.701-4.002l2.428-2.906l4.357-3.324
			l4.178-2.355l2.313-2.746l1.957-3.715l4.596-3.686l10.094-5.146L316.205,146.684z M250.071,149.686l-2.461,0.326l-3.703,1.484
			l-4.002-0.906l-3.826-2.453l-3.318-1.324l-0.475-3.07l2.045-2.234l5.07-0.871l4.299-0.387l3.053,1.162l2.223,1.195l1.334,2.168
			l1.395,3.715L250.071,149.686z M195.393,169.09l-0.35-0.293l-0.572,0.832l-0.514,1.266l-1.283,1.689l0.197,0.596l0.969-0.725
			l0.83-1.729l0.781-1.049L195.393,169.09z M197.706,160.654l0.045-0.014l0.246-0.598l-0.035-1.57l-0.256-0.23V160.654z
			 M197.809,155.146l0.279,1.102l0.07-0.166l0.047,0.189l0.281-0.914l-0.049-0.014l0.012-0.02L197.809,155.146z M196.805,151.625
			l0.141,0.229l0.561,0.928l0.279-0.752l-0.115-0.045l0.035-0.131L196.805,151.625z"/>
		
			<polygon id="Chiayi_City_1_" fill="#7F7F7F" stroke="#EFEFEF" stroke-width="0.25" stroke-linecap="round" stroke-linejoin="round" points="
			250.309,144.775 248.975,142.607 246.752,141.412 243.7,140.25 239.401,140.637 234.331,141.508 232.286,143.742 232.76,146.813 
			236.079,148.137 239.905,150.59 243.907,151.496 247.61,150.012 250.071,149.686 251.704,148.49 		"/>
	</g>
</g>
<g id="Layer_4">
	<g>
		
			<path id="Taitung_County" fill="#FFD522" stroke="#D64949" stroke-width="0.25" stroke-linecap="round" stroke-linejoin="round" d="
			M289.727,343.316l0.035-0.594l-0.199-0.889l0.199-0.907l0.49-0.872l0.432-2.15l-0.396-1.049l-0.606-0.355l-5.486,0.406
			l-0.303,0.328l0.76,2.301l1.537,2.676l1.438,0.574l0.244,0.305l0.487,0.111h0.945L289.727,343.316z M287.346,218.566l-1.908-0.551
			l-5.867,2.842l-2.104,2.975l0.918,3.746l0.326,3.744l-1.984,3.744l-1.836,2.842l-1.484,3.615l-1.303,4.582l-2.018,4.195
			l-2.605,7.226l-1.721,3.287l0.061,3.677l-0.504,3.385l-3.527,2.028l-4.477-0.646l-6.408-5.252l-5.006-8.74l-3.084-0.836
			l-3.441-0.484l-2.723-2.613l-3.352-1.551l-4.24-1.547l-2.756-4.42l-0.607-4.025l-8.521,2.09l-3.527,2.227l-2.166,2.129
			l-4.24,2.742l-0.473,3.129l1.215,3.258l-1.453,2.678l-4.031,2.19l-0.475,3.74l1.186,5.414l-1.656,7.188l-0.031,6.119l-2.344,3.188
			l-4.652,3.962l-1.273,5.311l0.738,4.443l1.633,2.508l3.348,3.479l0.684,2.701l-2.105,0.252l1.867,3.608l0.416,2.638l2.904,0.704
			l3.023,1.996l-1.512,7.522l-0.09,2.828l-1.094,2.699l-5.309,2.248l-2.609,1.479l-4.18,0.899l-2.934,2.438l-1.303,3.6l-2.016,3.598
			l-1.662,4.078l-0.445,8.025l0.684,3.563l1.096,3.306l0.564,3.883v2.918l1.422,2.728l2.549,3.047l-1.361,2.084l-2.906,1.732
			l-1.125,2.112l-0.297,2.504l1.482,2.113l1.865,0.897l1.691,2.438l-0.059,3.105l0.297,3.299l1.777,3.238l2.49,2.654l5.572,2.563
			l2.449-0.181l-0.141-7.989l0.91-8.789l0.748-3.104l5.203-9.117l2.615-9.141l1.027-6.699l1.773-3.262l4.391-5.477l1.422-2.75
			l2.848-7.32l1.156-1.5l1.434-0.758l5.906-6.477l8.775-5.859l2.568-2.439l2.59-3.293l1.168-1.916l0.676-1.738l0.094-1.525
			l-0.348-3.42l0.254-1.438l1.799-2.074l7.572-6.424l0.701-1.482l5.602-8.078l1.158-3.213l1.606-7.125l2.614-4.604l0.91-3.166
			l0.573-1.236l1.152-1.199l2.612-1.902l1.136-1.16l2.647-5.434l0.537-5.266l-0.07-5.535l0.793-6.219l1.132-3.352l1.438-2.664
			l3.848-5.133l1.228-2.656L287.346,218.566z"/>
		
			<polygon id="Hualien_County" fill="#FFD522" stroke="#D64949" stroke-width="0.25" stroke-linecap="round" stroke-linejoin="round" points="
			329.289,80.912 328.902,80.105 328.414,79.299 328.051,78.889 328.051,78.887 327.459,78.871 321.389,77.961 311.297,71.934 
			309.219,72.408 307.953,75.662 305.264,78.135 301.699,78.115 297.201,76.398 288.98,74.316 285.438,72.602 284.076,71.498 
			281.547,74.146 281.311,76.424 280.031,79.787 275.908,82.389 274.27,85.076 273.559,87.895 271.9,89.93 270.039,90.904 
			269.371,92.01 267.846,93.1 267.84,93.1 268.586,96.52 268.719,98.49 265.898,99.813 262.266,101.025 260.25,102.584 
			260.391,108.023 261.945,109.688 264.777,111.531 265.584,114.02 265.443,116.098 261.072,121.789 258.316,127.609 
			257.012,131.762 258.152,133.578 259.115,136.025 258.781,140.156 257.938,145.578 256.256,150.357 254.164,154.98 
			252.777,158.824 252.66,160.857 249.555,165.973 250.727,168.158 252.447,170.359 253.098,173.336 253.609,177.246 
			252.934,181.799 251.203,188.701 250.313,191.461 247.879,193.188 243.703,194.699 241.551,197.502 240.811,202.156 
			237.922,204.744 233.891,204.873 229.859,205.777 227.027,207.867 226.219,210.086 225.389,211.531 226.314,214.914 
			224.641,216.465 221.352,218.336 222.389,221.504 220.758,224.219 217.703,225.574 216.963,227.316 217.496,229.482 
			220.52,231.451 223.988,234.262 225.5,238.424 225.693,239.789 226.301,243.814 229.057,248.234 233.297,249.781 236.648,251.332 
			239.371,253.945 242.813,254.43 245.896,255.266 250.902,264.006 257.309,269.258 261.785,269.902 265.313,267.873 
			265.816,264.488 265.758,260.813 267.477,257.525 270.084,250.301 272.1,246.105 273.402,241.523 274.887,237.908 
			276.723,235.066 278.709,231.322 278.383,227.578 277.465,223.832 279.57,220.857 285.438,218.016 287.346,218.566 
			287.346,218.566 293.367,183.605 295.994,178.262 300.371,156.438 303.836,147.121 305.586,138.25 305.797,134.748 
			306.215,132.848 308.211,129.723 308.809,127.75 308.773,125.984 308.316,125.238 307.605,124.664 306.775,123.453 
			305.797,120.598 305.691,118.031 306.496,115.633 310.547,109.699 312.109,103.049 313.641,99.762 315.004,98.443 318.646,95.691 
			319.102,94.873 318.717,93.723 319.523,92.646 322.043,90.629 325.461,85.9 328.637,82.801 329.395,81.496 		"/>
	</g>
</g>
<g id="Layer_4_1_" display="none">
	<g display="inline">
		
			<path id="Taitung_County_1_" fill="#7F7F7F" stroke="#EFEFEF" stroke-width="0.25" stroke-linecap="round" stroke-linejoin="round" d="
			M289.727,343.316l0.035-0.594l-0.199-0.889l0.199-0.907l0.49-0.872l0.432-2.15l-0.396-1.049l-0.606-0.355l-5.486,0.406
			l-0.303,0.328l0.76,2.301l1.537,2.676l1.438,0.574l0.244,0.305l0.487,0.111h0.945L289.727,343.316z M287.346,218.566l-1.908-0.551
			l-5.867,2.842l-2.104,2.975l0.918,3.746l0.326,3.744l-1.984,3.744l-1.836,2.842l-1.484,3.615l-1.303,4.582l-2.018,4.195
			l-2.605,7.226l-1.721,3.287l0.061,3.677l-0.504,3.385l-3.527,2.028l-4.477-0.646l-6.408-5.252l-5.006-8.74l-3.084-0.836
			l-3.441-0.484l-2.723-2.613l-3.352-1.551l-4.24-1.547l-2.756-4.42l-0.607-4.025l-8.521,2.09l-3.527,2.227l-2.166,2.129
			l-4.24,2.742l-0.473,3.129l1.215,3.258l-1.453,2.678l-4.031,2.19l-0.475,3.74l1.186,5.414l-1.656,7.188l-0.031,6.119l-2.344,3.188
			l-4.652,3.962l-1.273,5.311l0.738,4.443l1.633,2.508l3.348,3.479l0.684,2.701l-2.105,0.252l1.867,3.608l0.416,2.638l2.904,0.704
			l3.023,1.996l-1.512,7.522l-0.09,2.828l-1.094,2.699l-5.309,2.248l-2.609,1.479l-4.18,0.899l-2.934,2.438l-1.303,3.6l-2.016,3.598
			l-1.662,4.078l-0.445,8.025l0.684,3.563l1.096,3.306l0.564,3.883v2.918l1.422,2.728l2.549,3.047l-1.361,2.084l-2.906,1.732
			l-1.125,2.112l-0.297,2.504l1.482,2.113l1.865,0.897l1.691,2.438l-0.059,3.105l0.297,3.299l1.777,3.238l2.49,2.654l5.572,2.563
			l2.449-0.181l-0.141-7.989l0.91-8.789l0.748-3.104l5.203-9.117l2.615-9.141l1.027-6.699l1.773-3.262l4.391-5.477l1.422-2.75
			l2.848-7.32l1.156-1.5l1.434-0.758l5.906-6.477l8.775-5.859l2.568-2.439l2.59-3.293l1.168-1.916l0.676-1.738l0.094-1.525
			l-0.348-3.42l0.254-1.438l1.799-2.074l7.572-6.424l0.701-1.482l5.602-8.078l1.158-3.213l1.606-7.125l2.614-4.604l0.91-3.166
			l0.573-1.236l1.152-1.199l2.612-1.902l1.136-1.16l2.647-5.434l0.537-5.266l-0.07-5.535l0.793-6.219l1.132-3.352l1.438-2.664
			l3.848-5.133l1.228-2.656L287.346,218.566z"/>
		
			<polygon id="Hualien_County_1_" fill="#7F7F7F" stroke="#EFEFEF" stroke-width="0.25" stroke-linecap="round" stroke-linejoin="round" points="
			329.289,80.912 328.902,80.105 328.414,79.299 328.051,78.889 328.051,78.887 327.459,78.871 321.389,77.961 311.297,71.934 
			309.219,72.408 307.953,75.662 305.264,78.135 301.699,78.115 297.201,76.398 288.98,74.316 285.438,72.602 284.076,71.498 
			281.547,74.146 281.311,76.424 280.031,79.787 275.908,82.389 274.27,85.076 273.559,87.895 271.9,89.93 270.039,90.904 
			269.371,92.01 267.846,93.1 267.84,93.1 268.586,96.52 268.719,98.49 265.898,99.813 262.266,101.025 260.25,102.584 
			260.391,108.023 261.945,109.688 264.777,111.531 265.584,114.02 265.443,116.098 261.072,121.789 258.316,127.609 
			257.012,131.762 258.152,133.578 259.115,136.025 258.781,140.156 257.938,145.578 256.256,150.357 254.164,154.98 
			252.777,158.824 252.66,160.857 249.555,165.973 250.727,168.158 252.447,170.359 253.098,173.336 253.609,177.246 
			252.934,181.799 251.203,188.701 250.313,191.461 247.879,193.188 243.703,194.699 241.551,197.502 240.811,202.156 
			237.922,204.744 233.891,204.873 229.859,205.777 227.027,207.867 226.219,210.086 225.389,211.531 226.314,214.914 
			224.641,216.465 221.352,218.336 222.389,221.504 220.758,224.219 217.703,225.574 216.963,227.316 217.496,229.482 
			220.52,231.451 223.988,234.262 225.5,238.424 225.693,239.789 226.301,243.814 229.057,248.234 233.297,249.781 236.648,251.332 
			239.371,253.945 242.813,254.43 245.896,255.266 250.902,264.006 257.309,269.258 261.785,269.902 265.313,267.873 
			265.816,264.488 265.758,260.813 267.477,257.525 270.084,250.301 272.1,246.105 273.402,241.523 274.887,237.908 
			276.723,235.066 278.709,231.322 278.383,227.578 277.465,223.832 279.57,220.857 285.438,218.016 287.346,218.566 
			287.346,218.566 293.367,183.605 295.994,178.262 300.371,156.438 303.836,147.121 305.586,138.25 305.797,134.748 
			306.215,132.848 308.211,129.723 308.809,127.75 308.773,125.984 308.316,125.238 307.605,124.664 306.775,123.453 
			305.797,120.598 305.691,118.031 306.496,115.633 310.547,109.699 312.109,103.049 313.641,99.762 315.004,98.443 318.646,95.691 
			319.102,94.873 318.717,93.723 319.523,92.646 322.043,90.629 325.461,85.9 328.637,82.801 329.395,81.496 		"/>
	</g>
</g>
</svg>
