<?xml version="1.0" encoding="utf-8"?>
<!-- Generator: Adobe Illustrator 16.0.0, SVG Export Plug-In . SVG Version: 6.00 Build 0)  -->
<!DOCTYPE svg PUBLIC "-//W3C//DTD SVG 1.1//EN" "http://www.w3.org/Graphics/SVG/1.1/DTD/svg11.dtd">
<svg version="1.1" id="Layer_1" xmlns="http://www.w3.org/2000/svg" xmlns:xlink="http://www.w3.org/1999/xlink" x="0px" y="0px"
	 width="238px" height="123.334px" viewBox="8.833 66.5 238 123.334" enable-background="new 8.833 66.5 238 123.334"
	 xml:space="preserve">
<g>
	<path fill="#EEA987" d="M179.601,126.671c0,0-2.111-0.133-2.434-0.145c-0.324-0.01-1.088,0.471-1.918,1.098
		c-0.828,0.627-1.668,1.846-1.658,2.024c0.012,0.18-0.063,0.365,0.225,0.727s0.813,0.455,0.813,0.455s0.113,0.541,0.67,0.682
		c0,0,0.113,0.604,0.77,0.66c0,0,0.166,0.637,0.646,0.639c0,0,0.768-0.479,1.102-0.574c0.336-0.096,1.734-1.34,3.035-2.625
		C180.849,129.611,182.47,128.384,179.601,126.671z"/>
</g>
<g>
	<path fill="#1B1D2E" d="M220.786,178.484c0,0-0.652,0.287-1.637,0.807c-0.982,0.52-2.1,1.094-3.49,1.188
		c-1.393,0.096-2.848,0.596-2.746,1.928c0.102,1.33,4.563,1.738,8.736,1.006c4.174-0.73,4.244-0.826,4.273-1.148
		c0.031-0.322-0.285-3.627-0.461-3.754C225.288,178.381,220.786,178.484,220.786,178.484z"/>
</g>
<g>
	<path fill="#1F2136" d="M220.44,176.971c0,0,0.307,1.494,0.318,1.67c0.014,0.176,5.027,1.025,4.76-0.012
		c-0.285-1.092-1.832-3.229-1.832-3.229L220.44,176.971z"/>
</g>
<g>
	<path fill="#3F5370" d="M202.413,142.473c0.398-4.094,14.043-12.98,14.703-9.1c0.662,3.881-4.971,12.789-5.322,15.699
		c-0.354,2.912-0.061,3.674,2.146,6.186c2.203,2.516,11.479,21.064,11.479,21.064c-0.266,1.412-5.137,1.854-5.27,1.545
		c-0.133-0.311-13.266-17.67-13.971-18.332c-0.707-0.662-3.307-3.615-3.705-5.07c-0.252-0.926-0.686-4.949-0.42-7.801
		C202.054,146.664,202.358,142.807,202.413,142.473z"/>
</g>
<g>
	<path fill="#1B1D2E" d="M194.321,178.301c0,0-0.893,0.16-1.895,0.689c-1.004,0.527-2.371,1.418-3.791,1.514
		c-1.418,0.098-3.031,0.656-2.93,2.014s4.781,1.727,9.039,0.979c4.26-0.746,4.328-0.842,4.359-1.172
		c0.031-0.328-0.121-2.873-0.371-3.52C198.655,178.6,194.321,178.301,194.321,178.301z"/>
</g>
<path fill="#325E7C" d="M200.47,105.734c0,0-5.898,8.832-9.266,12.09c-1.057,1.021-11.607,8.185-12.008,8.592
	c-0.396,0.406,1.033,3.934,1.033,3.934s13.494-7.8,14.279-8.291c0.785-0.489,10.572-11.703,11.051-13.258
	c0.479-1.556,0.305-3.39-1.277-4.117C202.065,103.662,200.47,105.734,200.47,105.734z"/>
<g>
	<path fill="#1F2136" d="M192.927,177.217c0,0,0.406,1.236,0.279,1.418c-0.127,0.184,5.668,0.631,5.529,0.17
		c-0.08-0.266-0.893-2.016-1.32-2.934C197.042,175.07,192.927,177.217,192.927,177.217z"/>
</g>
<g>
	<path fill="#3F5370" d="M198.433,131.639c0,0-15.797,11.969-17.564,14.416c-1.77,2.447,0.215,6.084,0.479,7.275
		c0.264,1.189,11.326,22.438,11.457,24.488c0,0,4.828,0.678,6.084-0.91c0,0-7.023-20.471-8.148-24.309
		c-1.123-3.834,3.902-4.432,7.012-5.818c3.109-1.389,16.754-9.396,17.549-12.408c0.725-2.75,0.008-4.822,0.008-4.822
		S211.483,127.078,198.433,131.639z"/>
</g>
<g>
	<path fill="#CFBEB6" d="M197.142,102.283c0,0-1.188,5.217-0.898,8.092c0.291,2.875,3.246,10.193,3.467,11.796
		c0.217,1.602-1.275,9.468-1.275,9.468l17.758,2.688c0,0-0.027-4.602-0.68-10.06c-0.654-5.459-2.709-9.778-3.43-12.862
		c-2.457-10.527-11.443-11.99-11.443-11.99L197.142,102.283z"/>
</g>
<g>
	<path fill="#EEA886" d="M188.55,90.601c0,0-1.15,2.802-0.398,3.14c0.621,0.278-0.377,3.015-0.498,3.458
		c-0.123,0.443,1.139,0.623,1.428,0.869c0.289,0.246,1.416,3.532,2.438,3.527c1.023-0.005,5.41-2.068,6.516-3.488
		c1.105-1.42,1.512-7.353,0.424-9.722C197.372,86.015,190.589,85.703,188.55,90.601z"/>
</g>
<g>
	<path fill="#EEA886" d="M194.479,100.552c0,0,0.15,0.257,0.375,0.656c0.094,0.168,0.201,0.361,0.316,0.57
		c0.086,0.159,0.178,0.328,0.271,0.504c0.588,1.1,1.254,2.441,1.404,3.129c0.279,1.281,3.195-5.906,3.195-5.906
		s-2.109-3.673-3.787-8.104C194.579,86.97,194.479,100.552,194.479,100.552z"/>
</g>
<g>
	<path fill="#754836" d="M188.325,91.205c0,0-1.762-2.71,0.666-5.114c2.43-2.403,7.713,0.811,8.277,0.896
		c0.566,0.084,3.664-0.04,2.715,5.627c-0.824,4.924-1.082,4.765-1.082,4.765s-1.246-2.314-1.861-2.67
		c-0.965-0.556-2.912-0.193-2.912-0.193s0.674-2.583-0.824-2.781C191.804,91.537,189.747,90.5,188.325,91.205z"/>
</g>
<g>
	<path fill="#EEA886" d="M195.536,92.929c0.094-0.354,0.355-1.862,1.701-1.135c1.35,0.728-0.4,3.702-0.615,3.76
		C196.405,95.614,194.753,95.91,195.536,92.929z"/>
</g>
<g>
	<path fill="#EDDAD3" d="M199.72,98.921c0,0-1.838,4.283-3.408,5.734l0.74,2.549l3.586-7.793L199.72,98.921z"/>
</g>
<polygon fill="#3D4169" points="198.433,131.639 198.733,129.982 216.146,132.531 216.19,134.326 "/>
<g>
	<path fill="#35669B" d="M197.614,112.33c0.449,0.918,0.877,1.853,1.283,2.793l0,0c0.896,2.066,1.689,4.168,2.393,6.225
		c0.252,0.732,0.488,1.461,0.717,2.18c2.705,8.563,8.066,14.493,8.066,14.493s6.965-1.299,8.477-2.633c0,0-1.512-10.033-4.779-19.5
		c-0.252-0.73-0.516-1.46-0.789-2.18l0,0c-2.889-7.608-6.959-14.295-12.344-14.295C200.548,99.546,195.257,107.503,197.614,112.33z"
		/>
</g>
<path fill="#235D84" d="M214.001,116.563c0,0,2.283,9.925,8.066,17.734c0.783,1.059-7.582,2.699-7.582,2.699L214.001,116.563z"/>
<path fill="#1D2133" d="M206.089,108.854c2.357,2.065,7.682,7.032,7.682,7.032c-0.252-0.73-0.516-1.46-0.789-2.18l0,0
	C211.136,112.208,206.167,108.906,206.089,108.854z"/>
<path fill="#A77860" d="M194.479,100.552c0,0,0.15,0.257,0.375,0.656c0.094,0.168,0.201,0.361,0.316,0.57
	c2.238-2.063,2.678-3.432,2.689-3.475C196.813,99.248,194.479,100.552,194.479,100.552z"/>
<path fill="#548AD1" d="M196.354,104.806c0,0-0.268,1.751-0.074,2.396c0.072,0.242,0.73-0.143,0.73-0.143L196.354,104.806z"/>
<g>
	<path fill="#BCC0CF" d="M243.944,119.919v2.17c-7.59,5.582-16.51,11.637-26.203,15.153c-5.445,1.975-10.625,2.963-15.568,2.963
		c-7.621,0-14.697-2.354-21.371-7.076c-16.107-11.391-41.966-4.146-42.226-4.068l-0.092,0.021c-2.572,0.455-5.186,0.662-7.805,0.662
		c-21.272,0-43.442-13.762-57.301-22.364c-4.86-3.016-8.693-5.395-11.221-6.434c-10.903-4.482-22.053-2.729-22.17-2.709
		l-0.279-1.729c0.474-0.077,11.734-1.858,23.111,2.819c2.665,1.093,6.557,3.51,11.481,6.568
		c15.347,9.52,41.019,25.458,63.838,21.469c0.648-0.182,7.018-1.924,15.398-2.332c8.044-0.391,19.474,0.447,28.271,6.667
		C204.128,147.49,227.468,132.121,243.944,119.919z"/>
</g>
<path fill="#DBDFF0" d="M33.957,74.877l-14.034-2.669l-7.866,41.364l14.034,2.668c7.9,1.504,15.522-3.684,17.025-11.584
	l2.425-12.753C47.042,84.002,41.856,76.38,33.957,74.877z"/>
<rect x="42.44" y="92.854" transform="matrix(0.9824 0.1867 -0.1867 0.9824 19.129 -6.5472)" fill="#DBDFF0" width="3.766" height="10.853"/>
<path fill="#DBDFF0" d="M132.553,108.943c-0.104,1.954,0.213,5.588-1.18,5.729c-0.438,0.044-1.49-0.132-2.859-0.431
	c-0.071-0.015-0.143-0.03-0.217-0.047c-0.298-0.066-0.609-0.14-0.932-0.216c-0.067-0.015-0.137-0.03-0.205-0.047
	c-4.947-1.181-12.261-3.345-12.261-3.345l2.775-3.334c0,0,7.523,2.008,10.505,2.527c0.048,0.008,0.093,0.016,0.136,0.022
	c-0.019-0.11-0.039-0.222-0.061-0.331c-0.042-0.229-0.087-0.46-0.133-0.688c-0.516-2.607-1.107-4.885-1.107-4.885
	s-4.25-10.409,0.918-9.595c0,0,2.676,1.459,3.256,4.789C131.77,102.423,132.658,106.988,132.553,108.943z"/>
<path fill="#B3B7C4" d="M128.514,114.242c-0.071-0.015-0.143-0.03-0.217-0.047c-0.298-0.066-0.609-0.14-0.932-0.216l2.323-11.079
	C130.279,107.729,128.514,114.242,128.514,114.242z"/>
<g>
	<path fill="#4A4F80" d="M109.321,180.795c0,0-2.236-0.221-2.813-0.348c-0.576-0.129-0.941-0.83-1.356-0.455
		c-0.415,0.377-1.923,2.797-3.05,3.16c-1.151,0.371-4.545,0.998-4.632,2.865c-0.087,1.869,10.892,0.594,12.001,0.895
		C110.582,187.215,109.321,180.795,109.321,180.795z"/>
</g>
<g>
	<path fill="#4A4F80" d="M124.483,179.41c0,0-2.236-0.223-2.812-0.352c-0.576-0.127-0.941-0.83-1.356-0.453
		c-0.415,0.375-1.924,2.797-3.051,3.16c-1.151,0.371-4.544,0.998-4.632,2.865c-0.087,1.869,10.892,0.594,12.001,0.896
		C125.741,185.828,124.483,179.41,124.483,179.41z"/>
</g>
<path fill="#EEA886" d="M118.667,88.114c0,0,1.269,3.265,0.283,5.789c0,0,4.649-0.294,4.825-0.822
	c0.176-0.528-0.187-5.421,0.453-6.866C124.865,84.768,118.667,88.114,118.667,88.114z"/>
<path fill="#DBDFF0" d="M118.217,92.799c0,0-2.748,0.951-3.989,1.215c-1.242,0.264-3.839,1.461-3.628,5.97
	c0.211,4.508,0.987,8.418,1.269,10.354c0.282,1.937,0.105,6.868-0.352,9.263c0,0,6.585,1.621,14.334,0c0,0-1.374-4.085-1.338-5.143
	c0.035-1.057,4.579-9.756,4.79-11.129s1.127-7.433-0.95-8.771c-2.079-1.338-3.769-1.162-4.649-1.761
	C122.822,92.2,119.502,92.368,118.217,92.799z"/>
<path fill="#5B54A3" d="M111.518,119.601c0,0-1.198,2.831-1.303,3.547c-0.106,0.715-3.86,10.063-4.121,12.797
	c-0.265,2.764-1.057,10.143-1.339,11.199c-0.282,1.057,0.634,5.775,0.774,6.832c0.141,1.059,0.071,18.314-1.197,26.838
	c0,0,4.504,1.15,6.759-0.117c0,0,2.187-13.195,1.976-20.873c-0.211-7.68-0.562-10.682,0.629-13.779
	c1.192-3.1,7.542-12.637,8.247-13.623c0.704-0.984,5.118-6.436,0.938-12.34C118.701,114.177,111.518,119.601,111.518,119.601z"/>
<path fill="#5B54A3" d="M125.938,144.82c-0.371,2.467,0.019,5.705,0.793,14.723c0.776,9.016-0.48,19.941-0.48,19.941
	c-2.677,0.916-6.634-0.008-6.634-0.008c0.071-0.635,0-21.979,0-23.881c0-1.9-0.546-4.061-0.687-6.242
	c-0.096-1.486-0.788-4.23-1.567-7.031c-0.233-0.838-0.474-1.682-0.708-2.498c0-0.002,0-0.002,0-0.002
	c-0.132-0.457-0.261-0.906-0.386-1.342c-1.097-3.805-2.573-18.493-2.573-18.493s8.363-6.701,12.156-0.386
	c3.759,6.261,1.937,10.707,1.795,11.48C127.507,131.859,126.31,142.354,125.938,144.82z"/>
<path fill="#DBDFF0" d="M110.879,108.07c0,0,0.803,12.031-1.838,18.424c0,0,7.809,2.461,19.062-0.444c0,0-1.351-8.289-1.158-9.504
	c0.193-1.216,4-15.39,2.703-18.687C128.353,94.559,112.177,97.664,110.879,108.07z"/>
<path fill="#EEA886" d="M121.273,75.259c-1.963-0.222-7.044,0.176-6.657,7.819c0.388,7.643,3.17,7.185,5.952,6.375
	c2.783-0.81,6.093-6.727,6.093-8.312C126.662,79.555,126.874,75.892,121.273,75.259z"/>
<path fill="#FCCCA2" d="M114.898,79.578c0,0,2.211,2.819,4.434,3.494c0,0,1.711,3.061,4.696,3.839c0,0,6.368-6.088,1.013-10.667
	C119.688,71.666,114.862,77.242,114.898,79.578z"/>
<path fill="#EEA886" d="M118.914,82.021c0.074-0.417,1.001-1.268,1.716-0.317c0.714,0.951-0.589,3.17-1.082,3.17
	S118.631,83.606,118.914,82.021z"/>
<path fill="#1B1C2E" d="M122.548,131.572c-0.063,0.143-4.137,9.184-5.186,10.75c-0.233-0.838-0.474-1.682-0.708-2.498
	c0-0.002,0-0.002,0-0.002S122.413,131.771,122.548,131.572z"/>
<path fill="#FCCCA2" d="M125.938,77.622c0.159-0.243,4.985-2.417,5.989,2.127c1.004,4.544-3.887,9.827-4.743,12.098
	c-0.858,2.271,0.387,7.596,0.387,7.596s-2.942-2.707-3.833-5.541C122.76,90.791,122.432,82.944,125.938,77.622z"/>
<path fill="#E8734D" d="M126.181,77.468c0,0-1.477,1.137-1.667,2.932c0,0-0.277-1.4,0.318-2.256
	C125.428,77.288,126.181,77.468,126.181,77.468z"/>
<path fill="#EEA886" d="M82.825,108.291c0,0-0.883,0.453-1.348,0.662c-0.465,0.209-0.974,0.533-0.936,0.967
	s-0.129,1.583-0.097,2.232c0.032,0.648,2.856,2.023,3.43,1.949c0.574-0.072,2.183-2.32,2.007-3.337
	c-0.177-1.019-0.482-2.515-0.482-2.515L82.825,108.291z"/>
<path fill="#DBDFF0" d="M117.01,94.7c0,0-2.229-2.447-7.762,2.034c-4.055,3.284-6.257,5.375-7,5.746
	c-0.744,0.372-3.465,1.91-5.547,2.272c-2.082,0.36-11.597,3.526-11.597,3.526l0.598,3.08c0,0,12.3-1.794,13.801-2.412
	c1.501-0.617,11.116-5.553,12.632-6.64C113.322,101.457,119.333,97.519,117.01,94.7z"/>
<path fill="#EEA886" d="M103.729,106.777c0,0-1.618-1.271-2.191-3.927c0,0-3.443,1.772-4.835,1.902
	c-1.392,0.128-11.597,3.526-11.597,3.526l0.498,3.119c0,0,12.129-1.58,13.901-2.451
	C101.276,108.078,103.729,106.777,103.729,106.777z"/>
<path fill="#DBDFF0" d="M110.922,108.927c0,0-1.234,0.045-1.881-2.271c-0.056-0.197-0.087-0.432-0.098-0.692
	c-0.024-0.532,0.032-1.183,0.14-1.892c0.468-3.047,1.902-7.126,1.902-7.126c0.608,2.119,0.965,3.871,1.147,5.321
	c0.045,0.381,0.081,0.741,0.105,1.084C112.572,107.99,110.922,108.927,110.922,108.927z"/>
<path fill="#9EA1AD" d="M114.299,100.701c0,0-0.891,1.321-2.063,2.649c-1.021,1.157-2.252,2.322-3.294,2.612
	c-0.024-0.532,0.032-1.184,0.14-1.893c0,0,1.556-0.85,3.049-1.805C112.968,101.736,113.782,101.168,114.299,100.701z"/>
<g>
	<path fill="#EFAA88" d="M231.911,132.465c0,0,0.012-0.574-0.105-0.826c0,0-0.248-0.443-0.406-0.77
		c-0.049-0.105-0.09-0.195-0.109-0.258c-0.086-0.26-0.193-0.852-0.572-1.414c-0.377-0.563-1.914-2.417-1.914-2.417l-1.813,1.028
		l-1.758,0.419c0,0,0.16,4.116,0.451,4.682c0.029,0.055,0.061,0.107,0.092,0.156c0.293,0.453,0.703,0.67,0.883,0.891
		c0.068,0.08,0.787,0.84,1.1,0.818c0.434-0.029,0.721-0.227,0.867-0.484c0,0,0.846-0.094,1.246-0.502c0,0,0.779-0.063,1.133-0.713
		C231.005,133.076,231.79,132.924,231.911,132.465z"/>
</g>
<path fill="#35669B" d="M202.19,106.343c0,0,9.863,6.123,13.543,9.684c1.154,1.117,8.686,12.635,9.145,13.055
	s4.938-1.519,4.938-1.519s-9.012-14.461-9.574-15.301c-0.563-0.839-15.045-11.74-16.762-12.206
	c-1.715-0.466-1.838,0.404-2.574,2.157C199.866,104.674,202.19,106.343,202.19,106.343z"/>
<g>
	<g>
		<path fill="#CEA655" d="M196.269,107.156c0,0,1.594,6.205,7.064,6.063c4.898-0.127,12.205,1.57,14.688,3.201l3.088,2.169
			l-1.023-3.198c0,0-2.584-4.967-16.762-2.822c0,0-4.279,1.275-6.504-6.162C196.819,106.406,196.144,106.856,196.269,107.156z"/>
	</g>
</g>
<g>
	<path fill="#DB9C7C" d="M173.802,129.477c0,0,2.143-1.538,2.432-1.224c0.291,0.314,0.207,0.607,0.207,0.607l1.168-0.234
		c0,0,0.861,0.283,0.303,1.139c0,0,0.832,0.18,0.193,0.941c0,0,0.494,0.363,0.262,0.768s-1.652,1.338-1.652,1.338
		s-0.389,0.063-0.652-0.551c0,0-0.633-0.018-0.82-0.625c0,0-0.504-0.094-0.697-0.752c0,0-1.109-0.295-0.951-1.234
		C173.591,129.65,173.712,129.541,173.802,129.477z"/>
</g>
<g>
	<path fill="#EEA987" d="M177.095,126.57c0,0-0.828,1.608-0.893,2.686c-0.016,0.244,0.016,0.482,0.234,0.588
		c0.221,0.107,0.654-0.08,1.047-0.758c0.395-0.68,1.215-1.377,1.215-1.377S178.897,126.892,177.095,126.57z"/>
</g>
</svg>
