<?xml version="1.0" encoding="utf-8"?>
<!-- Generator: Adobe Illustrator 16.0.0, SVG Export Plug-In . SVG Version: 6.00 Build 0)  -->
<!DOCTYPE svg PUBLIC "-//W3C//DTD SVG 1.1//EN" "http://www.w3.org/Graphics/SVG/1.1/DTD/svg11.dtd">
<svg version="1.1" id="Layer_1" xmlns="http://www.w3.org/2000/svg" xmlns:xlink="http://www.w3.org/1999/xlink" x="0px" y="0px"
	 width="249.667px" height="256px" viewBox="2.833 0 249.667 256" enable-background="new 2.833 0 249.667 256"
	 xml:space="preserve">
<g>
	<path fill="#EEA886" d="M169.426,109.544c0,0,1.538-0.753,1.776-0.86s0.959,0.016,1.772,0.229s1.819,0.863,1.866,1.002
		c0.048,0.137,0.159,0.252,0.057,0.611c-0.104,0.358-0.478,0.596-0.478,0.596s0.063,0.479-0.308,0.759c0,0,0.023,0.467-0.449,0.713
		c0,0,0.179,0.501-0.18,0.651c0,0-0.723-0.123-1.002-0.09c-0.281,0.03-2.123-0.513-3.494-1.072
		C168.989,112.081,168.231,111.303,169.426,109.544z"/>
</g>
<g>
	<path fill="#CF8C6C" d="M171.694,110.419c0,0-0.563,0.649-0.813,0.752s0.774,1.75,0.774,1.75S172.466,111.125,171.694,110.419z"/>
</g>
<path fill="#16202E" d="M159.747,171.279c0,0,1.184,2.117,1.886,2.545c0.875,0.535,2.574,2.25,3.167,2.328
	c0.594,0.078,2.727,0.457,2.314,1.66c-0.338,0.988-5.426,0.846-6,0.352c-0.572-0.494-2.287-2.27-2.979-2.229
	c-0.692,0.039-0.437,2.561-0.437,2.561h-0.752c0,0-0.262-2.453-0.293-2.875c-0.096-1.248,0.795-2.166,0.834-2.879
	c0.039-0.711,0.08-1.242,0.08-1.242L159.747,171.279z"/>
<path fill="#EEA886" d="M164.63,176.094c0,0-1.676,0.58-2.967-0.162s-3.77-1.869-4.646-1.875c0,0,0.478-1.463,0.487-1.627
	c0.011-0.162,0.063-0.932,0.063-0.932l2.166-0.348c0,0,1.404,2.063,2.025,2.549C162.377,174.186,163.962,175.396,164.63,176.094z"/>
<path fill="#EEA886" d="M139.301,173.271c0,0,0.21,1.463,0.438,1.863c0.228,0.398,0.854,2.434,1.14,2.813
	c0.286,0.381,0.913,3.232,0,3.574c-0.912,0.342-3.062,0.912-3.783-0.229c-0.724-1.141-0.817-2.281-0.703-3.156
	c0.113-0.873,0.979-4.889,0.97-5.285C137.351,172.455,139.301,173.271,139.301,173.271z"/>
<path fill="#16202E" d="M140.516,177.158c0,0,0.099,2.217-1.575,2.217s-2.414-2.018-2.414-2.018s-0.57,0.99,0,3.1
	c0.569,2.111,2.945,1.676,3.479,1.6C140.536,181.979,143.06,181.311,140.516,177.158z"/>
<path fill="#896E29" d="M142.062,122.792c0,0-2.162,2.756-2.926,4.578c-0.764,1.824-2.036,5.82-1.866,8.917
	c0.169,3.096,1.188,8.904,0.892,10.221c-0.297,1.314-0.594,4.027-0.912,4.961c-0.317,0.934-1.592,3.646-1.717,6.445
	c-0.127,2.799,0.904,15.076,0.819,16.221c-0.084,1.146,3.706,0.445,3.706,0.445s0.096-11.066,0.521-12.977
	c0.423-1.908,0.933-8.396,1.313-8.863c0.383-0.465,1.452-5.387,1.521-6.188c0.066-0.777,4.604-14.229,4.857-16.518
	c0.256-2.291,5.937-7.244,5.937-7.244S148.635,120.659,142.062,122.792z"/>
<path fill="#896E29" d="M156.153,171.887c-0.807-0.127-2.965-12.531-2.709-14.734c0.252-2.207,0.508-6.908-0.213-8.816
	c-0.474-1.256-3.43-7.639-5.42-12.119c-0.279-0.633-0.539-1.227-0.773-1.762c-0.631-1.459-1.047-2.492-1.059-2.703
	c-0.043-0.85-2.809-15.458,8.115-8.96c0,0,0.111,1.154,0.238,1.58c0.127,0.424,3.053,11.238,3.351,15.394
	c0.298,4.154,1.06,7.682,1.187,8.57c0.127,0.887-0.127,3.855-0.383,4.619c-0.252,0.762,1.656,17.996,1.785,18.422
	C160.397,171.799,156.956,172.014,156.153,171.887z"/>
<path fill="#1D5E94" d="M150.411,100.879c0,0,2.222-0.727,3.484,0.508c1.264,1.234,2.244,2.88,2.59,3.555
	c0.348,0.672,3.775,5.328,4.012,5.461s3.094-0.464,4.828-0.705c2.443-0.34,4.656-0.492,4.656-0.492l0.326,3.25
	c0,0-10.933,2.104-11.883,1.332c-2.1-1.705-7.252-8.015-7.252-8.015S146.905,103.397,150.411,100.879z"/>
<path fill="#EDDAD3" d="M149.81,99.708c0,0,2.067,0.977,2.785,1.119c0.717,0.144,3.503,3.761,3.991,5.08
	c0.487,1.321,0.001,3.301-1.003,5.627c-1.006,2.324-0.057,3.101-0.516,5.426c-0.459,2.324-0.859,7.248-0.773,8.541
	c0.087,1.291-11.61,1.537-14.281-0.815c0,0,2.684-4.019,3.027-4.593s0.056-3.703-0.26-4.508c-0.316-0.803-3.621-7.27-3.621-7.27
	s-0.508-5.505,1.045-6.71c1.351-1.049,5.016-1.538,5.676-1.769C146.54,99.608,148.461,99.508,149.81,99.708z"/>
<path fill="#D6C5BE" d="M150.471,104.315l1.256-1.471l-1.092-3.871C150.635,98.973,150.27,101.13,150.471,104.315z"/>
<path fill="#EEA886" d="M150.796,97.323c0,0-0.412,3.791-0.325,5.025c0,0-2.146,2.154-4.591-2.511c0,0,1.027-1.923,0.253-4.542
	C145.36,92.677,150.796,97.323,150.796,97.323z"/>
<polygon fill="#EEA886" points="150.471,102.348 150.471,104.315 147.999,102.469 "/>
<polygon fill="#D6C5BE" points="150.471,104.315 149.444,103.045 145.987,99.601 144.868,100.678 "/>
<path fill="#1D5E94" d="M146.501,127.364c-0.973,4.66-8.016-0.523-8.016-0.523s4.564-7.674,2.75-13.805
	c-0.015-0.049-0.029-0.097-0.045-0.145c-0.115-0.389-0.23-0.756-0.347-1.105c-1.669-5.07-2.874-6.408-2.874-6.408
	s1.824-4.504,3.788-4.805c1.962-0.304,3.748-0.642,3.748-0.642s2.901,4.401,3.042,6.339
	C148.687,108.208,147.474,122.704,146.501,127.364z"/>
<path fill="#1D5E94" d="M156.874,106.8c0,0,0.219,2.672-1.616,6.18c0,0,0.039,4.698,0.099,6.334
	c0.057,1.636,0.445,7.823,0.445,7.823l-2.016,1.182c-0.407,0.238-0.909-0.093-0.854-0.562c0.57-4.708,2.424-22.569-1.59-27.369
	l1.609,0.474C152.952,100.862,156.874,104.931,156.874,106.8z"/>
<polygon fill="#FAE6DE" points="151.727,102.844 153.31,103.282 150.635,98.973 "/>
<polygon fill="#FAE6DE" points="149.444,103.045 147.999,104.942 145.045,100.016 145.987,99.601 "/>
<path fill="#EEA886" d="M149.299,85.084c1.513-0.145,4.911,0.458,5.62,4.451c0,0-0.068,1.089-0.292,1.953
	c-0.224,0.862,0.659,3.336,0.466,3.469c-0.189,0.134-1.007,0.331-1.007,0.331s-0.755,2.785-1.718,2.806
	c-0.965,0.021-4.644-0.559-6.521-3.887S143.192,85.673,149.299,85.084z"/>
<path fill="#D88A51" d="M154.919,89.534c0,0-2.381,1.795-4.809,2.25c-2.427,0.456-3.738,4.675-3.738,4.675s-4.066-6.115-1.25-10.032
	C147.94,82.512,155.229,84.826,154.919,89.534z"/>
<path fill="#EEA886" d="M149.091,91.721c-0.035-0.472-0.596-1.157-1.339-0.474c-0.744,0.683,0.403,2.881,1.028,2.631
	C149.405,93.627,149.129,92.208,149.091,91.721z"/>
<path fill="#A77860" d="M150.801,97.87c-0.054,0.295-0.11,0.642-0.157,1.006c-2.033-1.161-3.103-2.64-3.103-2.64
	C148.719,97.204,150.801,97.87,150.801,97.87z"/>
<path fill="#912B2B" d="M142.618,106.964c-0.106,2.755-1.428,5.927-1.428,5.927c-0.115-0.389-0.23-0.756-0.347-1.105
	C141.588,109.704,142.618,106.964,142.618,106.964z"/>
<ellipse transform="matrix(-0.4022 -0.9155 0.9155 -0.4022 118.4412 261.1484)" fill="#D88A51" cx="144.477" cy="91.907" rx="3.348" ry="2.567"/>
<path fill="#EEA886" d="M154.942,122.151l-1.223-0.049l-0.124,2.291C153.596,124.393,154.583,123.588,154.942,122.151z"/>
<g>
	<g>
		<g>
			<g>
				<g>
					<path fill="#EEA987" d="M37.179,92.33c0.002,0.004,0.002,0.004,0.002,0.004c0.404,0.975,0.909,1.906,1.474,2.702
						c1.952,2.753,6.783,3.037,7.185-4.26c0.076-1.383-0.046-2.513-0.282-3.435c-0.843-3.284-3.144-3.929-3.144-3.929
						c-1.713-0.173-4.739,0.117-5.842,2.308C35.789,87.278,36.184,89.934,37.179,92.33z"/>
				</g>
			</g>
		</g>
	</g>
</g>
<g>
	<g>
		<g>
			<g>
				<g>
					<path fill="#665249" d="M37.179,92.33c0.002,0.004,0.002,0.004,0.002,0.004s0.245,0.078,1.218-1.686
						c0.195-0.353,0.321-0.089,0.406-0.246l1.447-0.489c0,0-1.259-1.982,0.61-2.552c1.906-0.58,4.695-0.021,4.695-0.021
						c1.749-6.319-3.452-4.295-3.452-4.295c-1.823,0.258-4.431,0.483-5.534,2.674C35.789,87.278,36.184,89.934,37.179,92.33z"/>
				</g>
			</g>
		</g>
	</g>
</g>
<g>
	<g>
		<g>
			<g>
				<g>
					<path fill="#EEA987" d="M39.144,89.324c-0.083-0.493-1.029-0.958-1.486,0.073c-0.457,1.031,0.863,2.207,1.235,1.992
						C39.265,91.174,39.283,90.139,39.144,89.324z"/>
				</g>
			</g>
		</g>
	</g>
</g>
<g>
	<path fill="#EEA886" d="M17.387,114.618c0,0-1.627-0.676-1.879-0.771c-0.251-0.098-0.983,0.075-1.807,0.346
		c-0.822,0.27-1.813,1-1.854,1.146c-0.04,0.143-0.146,0.27-0.019,0.632c0.127,0.359,0.499,0.576,0.499,0.576
		s-0.048,0.521,0.352,0.783c0,0-0.053,0.466,0.45,0.688c0,0-0.056,0.523,0.323,0.654c0,0,0.733-0.17,1.022-0.154
		c0.29,0.016,2.147-0.66,3.52-1.32C17.994,117.196,18.724,116.348,17.387,114.618z"/>
</g>
<g>
	<path fill="#CF8C6C" d="M15.112,115.659c0,0,0.619,0.631,0.883,0.722c0.263,0.09-0.683,1.846-0.683,1.846
		S14.363,116.432,15.112,115.659z"/>
</g>
<g>
	<g>
		<path fill="#931C55" d="M17.9,118.157c0,0,8.642-0.84,10.514-1.594c0.865-0.347,1.415-1.484,2.33-3.101
			c0.302-0.531,0.594-1.087,0.867-1.634c0.001,0,0.001-0.002,0.001-0.002c1.094-2.184,1.901-4.242,1.901-4.242
			s3.39-5.348-0.178-7.01c0,0-1.396,0.06-2.097,0.748c-0.646,0.635-2.007,4.439-2.321,5.059c-0.345,0.679-1.991,6.308-2.18,6.467
			c-0.188,0.16-2.368,0.585-3.786,0.936c-1.99,0.494-5.797,0.59-5.797,0.59L17.9,118.157z"/>
	</g>
</g>
<g>
	<path fill="#202026" d="M56.162,176.301c0,0,0.565,1.264,1.026,1.76c0.461,0.496,2.198,1.355,2.248,2.861
		c0.053,1.633-2.857,1.258-3.993,1.229c-1.135-0.029-1.244-0.9-1.746-1.813s-0.979-0.742-1.088-1.486
		c-0.11-0.742,0.301-2.424,0.301-2.424L56.162,176.301z"/>
</g>
<g>
	<g>
		<path fill="#202026" d="M33.479,177.197c0,0-1.535,1.699-3.129,2.09c-1.593,0.391-2.703,0.863-2.689,1.814
			c0.013,0.953,4.655,1.455,6.464,0.447c2.699-1.504,2.99-1.08,3.274-1.803c0.284-0.727-0.435-2.619-0.421-2.85
			C36.993,176.615,33.479,177.197,33.479,177.197z"/>
	</g>
</g>
<g>
	<g>
		<path fill="#8E5B19" d="M32.392,129.314c0,0-1.338,12.09-1.907,16.18c-0.665,4.785-0.829,8.727-0.984,11.195
			c-0.195,3.107,3.155,19.707,2.985,20.617c-0.17,0.912,5.223-0.518,5.223-0.518s-2.233-19.795-1.494-23.119
			c0.688-3.096,3.108-16.68,3.834-15.857c0.725,0.82,5.535,15.529,6.12,17.938c0.585,2.412,6.111,21.26,6.111,21.26
			s3.774,0.707,4.708-0.08c0,0-3.739-17.35-4.192-21.887c-0.172-1.729-1.702-20.619-4.836-28.205
			C46.303,122.829,32.392,129.314,32.392,129.314z"/>
	</g>
</g>
<g>
	<g>
		<path fill="#FFA15B" d="M44.455,125.839c0,0-1.765-0.536-2.631-0.673c-0.868-0.135,8.758-6.815,8.665-9.018
			c-0.074-1.783-1.177-6.473-1.177-6.473s0,0.003-0.001,0.008c-0.001,0.002-0.001,0.004-0.001,0.006s-0.001,0.006-0.001,0.008
			c-0.087,0.356-1.276,5.284-1.259,7.637c0.017,2.439,0.631,11.763,0.631,11.763l-3.625,0.449l-10.438,0.535l-2.186-0.199
			c0,0,0.153-3.998,0.2-5.896c0.028-1.207,0.205-3.371,0.089-5.47c0,0-0.021-2.216-0.267-3.164c-0.136-4.207-0.502-8.37-0.502-8.37
			c-0.192-1.904-0.337-3.687-0.438-5.35c0.453-0.256,0.999-0.557,1.437-0.778c1.354-0.69,3.24-1.62,4.45-2.215
			c0.71-0.351,1.406-0.606,1.406-0.606s4.886-0.603,5.285-0.586c0.126,0.004,0.744,0.2,1.555,0.484
			c1.755,0.613,5.139,1.866,5.683,2.234c0.797,0.539,2.805,13.802,2.904,14.73C54.415,116.575,44.455,125.839,44.455,125.839z"/>
	</g>
</g>
<g>
	<path fill="#25252B" d="M32.702,128.206c0,0,7.186,0.419,13.448-0.356l0.055,2.061c0,0-9.394,1.611-13.772-0.027L32.702,128.206z"
		/>
</g>
<g>
	<g>
		<path fill="#931C55" d="M32.835,100.52c-0.544,0.18-1.331,0.688-1.731,1.096c0.1,1.69,0.526,3.494,0.723,5.436
			c0,0,0.262,4.744,0.655,9.238c0.11,0.644,0.174,1.303,0.14,1.979c-0.044,0.883-0.114,1.848-0.203,2.854
			c-0.001,0.013-0.002,0.025-0.004,0.037c-0.02,0.238-0.043,0.479-0.065,0.723c0,0.003-0.001,0.007-0.001,0.01
			c-0.476,5.034-1.354,10.816-1.847,12.572c-0.104,0.365,0.297,0.691,0.584,0.943l1.994,1.186c0,0,0.61-7.463,0.811-9.998
			c0.194-2.443,0.922-5.734,1.195-8.932l0,0c0.345-4.053,0.862-8.029,1.136-10.39c0.712-6.147,1.805-8.918,1.805-8.918
			C36.661,98.973,32.835,100.52,32.835,100.52z"/>
	</g>
</g>
<g>
	<path fill="#CAC7D1" d="M38.432,99.772c0,0-0.081,1.879,1.507,1.881c1.586,0,2.806-1.555,2.806-1.555l-2.616,0.748l-1.638-1.314
		L38.432,99.772z"/>
</g>
<g>
	<g>
		<path fill="#EEA987" d="M43.721,98.25c-1.905,1.89-4.971,0.394-4.882-0.155c0.084-0.513,0.021-2.857,0.021-2.857
			s4.595-1.355,4.495-0.445c-0.039,0.361,0.012,0.982,0.087,1.601c0.013,0.106,0.025,0.213,0.04,0.316
			C43.591,97.526,43.721,98.25,43.721,98.25z"/>
	</g>
</g>
<g>
	<path fill="#A09EA6" d="M38.746,99.879l1.383,0.967c0,0-1.198-2.387-1.248-3.354L38.746,99.879z"/>
</g>
<g>
	<polygon fill="#EAE6F2" points="38.882,97.493 37.976,98.375 37.082,101.297 38.746,99.879 	"/>
</g>
<g>
	<path fill="#EEA987" d="M39.074,98.351c0,0,0.41,1.31,1.055,2.495c0,0,1.392-1.285,1.828-1.742
		C42.393,98.648,39.074,98.351,39.074,98.351z"/>
</g>
<g>
	<path fill="#A09EA6" d="M41.583,99.413l-1.454,1.434c0,0,1.759-0.164,2.081-0.466L41.583,99.413z"/>
</g>
<g>
	<path fill="#EAE6F2" d="M43.491,96.79c0,0-1.14,1.97-1.908,2.623l1.381,2.16l2.017-3.908L43.491,96.79z"/>
</g>
<g>
	<g>
		<path fill="#931C55" d="M49.325,124.378c-0.13-0.503-0.248-1-0.357-1.485c0.004-0.004,0.009-0.005,0.008-0.008
			c2.915-3.173,5.885-6.594,5.804-7.251c-0.116-0.925-1.969-14.841-2.769-15.379c-0.459-0.313-3.838-1.409-5.495-2.013
			c-0.304-0.108-1.266-0.483-1.536-0.578c-0.336,0.397-3.181,7.599-3.324,13.156c-0.042,1.692,0.448,5.256,0.827,8.159
			c0.163,1.24,0.33,2.371,0.489,3.445c-1.782,1.79-3.167,3.229-2.994,3.513c0.275,0.447,3.54,2.734,3.54,2.734
			s0.101-0.105,0.284-0.293c0.567,4.495,0.958,7.897,0.958,7.897l5.039-2.406c0.815-0.436,1.914-2.158,1.578-3.02
			C50.7,129.104,49.922,126.689,49.325,124.378z M49.187,110.392c0,0,0.291,1.356,0.552,3.948c0.045,0.449-0.422,1.223-1.178,2.17
			C48.707,114.305,48.941,111.342,49.187,110.392z"/>
	</g>
</g>
<g>
	
		<rect x="37.838" y="128.16" transform="matrix(0.9996 -0.0266 0.0266 0.9996 -3.4255 1.0962)" fill="#3A4066" width="3.381" height="2.514"/>
</g>
<path fill="#3B3D47" d="M49.325,124.378l-4.544,2.981l-0.086,0.057l4.273-4.531c0.004,0,0.004,0,0.008,0
	c0,0.003-0.004,0.004-0.008,0.008C49.077,123.378,49.196,123.875,49.325,124.378z"/>
<path fill="#A77860" d="M43.482,96.709c-1.899,1.373-3.679-0.671-3.755-0.771c2.064,1.352,3.712,0.455,3.712,0.455h0.002
	C43.455,96.5,43.467,96.606,43.482,96.709z"/>
<rect x="236.913" y="74.765" transform="matrix(-0.1867 0.9824 -0.9824 -0.1867 368.4713 -132.2736)" fill="#BCC0CF" width="4.154" height="23.252"/>
<rect x="233.487" y="92.68" transform="matrix(0.1867 -0.9824 0.9824 0.1867 89.121 316.2604)" fill="#BCC0CF" width="4.154" height="23.252"/>
<rect x="229.373" y="74.761" transform="matrix(-0.9824 -0.1868 0.1868 -0.9824 443.2744 230.6811)" fill="#DBDFF0" width="6.27" height="39.382"/>
<g>
	<path fill="#BCC0CF" d="M213.735,90.696l-0.494,0.575l-0.504,0.575c-0.021-0.028-2.715-2.327-6.886-3.455
		c-5.552-1.5-10.975-0.327-16.124,3.489c-4.42,3.269-8.298,8.019-12.787,13.526c-8.421,10.309-18.898,23.14-38.578,32.705
		c-0.717,0.52-7.113,4.971-18.396,7.684c-4.661,1.119-10.562,2.018-17.522,2.018c-9.192,0-20.232-1.557-32.722-6.207
		c-22.95-8.531-44.631-18.66-64.521-30.14v-1.748c20.024,11.611,41.886,21.851,65.044,30.468
		c21.558,8.021,38.702,6.684,49.281,4.154c11.469-2.74,17.928-7.439,17.995-7.49l0.118-0.068
		c19.423-9.421,29.791-22.125,38.121-32.332c4.562-5.586,8.495-10.404,13.065-13.786c6.927-5.135,13.328-4.854,17.481-3.714
		C210.8,88.177,213.616,90.595,213.735,90.696z"/>
</g>
<path fill="#DBDFF0" d="M216.03,109.895l12.174,2.316l6.822-35.879l-12.172-2.315c-6.854-1.303-13.465,3.196-14.77,10.048
	l-2.102,11.063C204.679,101.981,209.178,108.593,216.03,109.895z"/>
<rect x="205.792" y="84.874" transform="matrix(0.9824 0.1868 -0.1868 0.9824 20.3844 -37.1696)" fill="#DBDFF0" width="3.267" height="9.414"/>
<g>
	<path fill="#EEA886" d="M156.698,127.079c0,0-0.396-0.073-0.556-0.188c0,0-0.271-0.235-0.473-0.392
		c-0.063-0.047-0.12-0.088-0.161-0.111c-0.165-0.096-0.559-0.255-0.893-0.596c-0.334-0.34-1.394-1.659-1.394-1.659l0.966-1.103
		l0.752-0.879c0,0,2.598,0.424,2.946,0.704c0.034,0.027,0.065,0.056,0.095,0.084c0.271,0.269,0.362,0.58,0.487,0.735
		c0.046,0.059,0.466,0.661,0.407,0.872c-0.081,0.294-0.258,0.465-0.455,0.528c0,0-0.186,0.568-0.523,0.787
		c0,0-0.154,0.527-0.652,0.678C157.245,126.542,157.03,127.062,156.698,127.079z"/>
</g>
<path fill="#1D5E94" d="M141.102,100.823c0,0-3.075,1.931-3.345,5.149c-0.27,3.222,0.211,4.347,0.566,5.714
	c0.336,1.292,0.688,4.895,0.752,5.271s0.267,5.273,1.679,6.367c1.421,1.098,12.708,1.635,12.79,1.974
	c0.08,0.341,0.701-3.593,0.701-3.593s-5.957-0.455-6.75-0.803c-1.285-0.563-3.596-0.781-3.692-2.106
	c-0.116-1.556-0.678-6.734-0.644-7.541C143.196,110.448,143.485,100.835,141.102,100.823z"/>
<g>
	<path fill="#DB9C7C" d="M174.632,109.849c0,0-2.08-0.487-2.2-0.164c-0.118,0.326,0.034,0.519,0.034,0.519l-0.945,0.188
		c0,0-0.557,0.479,0.127,0.944c0,0-0.566,0.391,0.145,0.764c0,0-0.256,0.427,0.043,0.656c0.301,0.229,1.65,0.489,1.65,0.489
		s0.31-0.073,0.317-0.614c0,0,0.468-0.209,0.419-0.72c0,0,0.35-0.229,0.292-0.779c0,0,0.736-0.564,0.328-1.217
		C174.842,109.913,174.718,109.87,174.632,109.849z"/>
</g>
<g>
	<path fill="#EEA886" d="M171.27,108.694c0,0,1.115,0.947,1.497,1.731c0.088,0.178,0.139,0.366,0.008,0.514
		c-0.135,0.147-0.515,0.142-1.02-0.243c-0.505-0.388-1.332-0.654-1.332-0.654S170.019,109.493,171.27,108.694z"/>
</g>
<g>
	<path fill="#EFAA88" d="M40.633,132.09c0,0,0.387-0.24,0.505-0.428c0,0,0.189-0.357,0.338-0.604
		c0.048-0.08,0.091-0.146,0.124-0.186c0.136-0.17,0.484-0.5,0.696-0.994s0.785-2.322,0.785-2.322l-1.47-0.763l-1.04-0.993
		c0,0-2.677,1.887-2.928,2.326c-0.023,0.043-0.046,0.086-0.064,0.129c-0.177,0.392-0.143,0.757-0.212,0.974
		c-0.025,0.08-0.22,0.889-0.07,1.088c0.206,0.275,0.461,0.383,0.697,0.369c0,0,0.428,0.523,0.874,0.613c0,0,0.379,0.494,0.966,0.447
		C39.834,131.748,40.275,132.207,40.633,132.09z"/>
</g>
<path fill="#931C55" d="M43.516,128.672c0,0-2.497-1.619-3.73-2.849l5.423-5.648l4.085,2.363L43.516,128.672z"/>
<g>
	<path fill="#DB9C7C" d="M12.061,115.256c0,0,2.102-0.633,2.246-0.305c0.144,0.326-0.001,0.531-0.001,0.531l0.983,0.135
		c0,0,0.602,0.453-0.07,0.978c0,0,0.606,0.366-0.103,0.793c0,0,0.292,0.421-0.002,0.677c-0.293,0.254-1.662,0.605-1.662,0.605
		s-0.323-0.057-0.366-0.611c0,0-0.494-0.186-0.476-0.713c0,0-0.373-0.211-0.348-0.781c0,0-0.794-0.533-0.415-1.228
		C11.848,115.337,11.972,115.284,12.061,115.256z"/>
</g>
<g>
	<path fill="#EEA886" d="M15.44,113.858c0,0-1.086,1.045-1.429,1.877c-0.078,0.187-0.119,0.381,0.027,0.525
		c0.145,0.143,0.536,0.113,1.03-0.314c0.494-0.428,1.328-0.756,1.328-0.756S16.774,114.601,15.44,113.858z"/>
</g>
<path fill="#DBDFF0" d="M104.234,106.673c0,0-2.72-0.197-4.641,0c-1.919,0.196-4.572,1.767-6.179,2.222
	c-1.605,0.453-5.479,3.059-5.375,3.414s1.605,4.592,4.38,8.035C94.796,123.29,104.234,106.673,104.234,106.673z"/>
<path fill="#A9ADBA" d="M98.364,108.38c0,0-2.933,2.172-3.953,4.161c-1.021,1.99-1.369,4.359-1.369,4.359L98.364,108.38z"/>
<path fill="#0F1E2B" d="M113.677,174.695c0,0,0.756,0.803,1.194,1.018c0.437,0.213,5.661,1.109,6.015,1.535s0.354,2.104-0.993,2.104
	c-1.348,0-5.838-0.021-6.595,0c-0.756,0.023-3.952,0.662-4.28,0c-0.329-0.66-0.298-3.748,0.286-4.49
	C109.889,174.119,113.677,174.695,113.677,174.695z"/>
<path fill="#944A31" d="M114.023,173.678l0.178,1.039c0,0-1.545,0.707-4.843,0.184v-1.072L114.023,173.678z"/>
<path fill="#0F1E2B" d="M65.826,170.537c0,0-0.762,0.893-0.805,1.438c-0.044,0.545-0.979,2.938-0.631,3.523
	c0.349,0.59,3.09,0.676,4.46,0.457c1.371-0.217,4.353,0.24,4.657-0.348c0.304-0.588,0.479-1.443-0.414-1.777
	c-0.892-0.334-2.938-1.203-3.308-2.115C69.417,170.801,65.826,170.537,65.826,170.537z"/>
<path fill="#944A31" d="M70.494,170.398l-0.458,1.178c0,0-4.725-0.354-4.765-1.414l1.492-2.172L70.494,170.398z"/>
<g>
	<g>
		<path fill="#EEA886" d="M109.276,104.689c0,0-2.617,2.218-3.366,2.032c-0.75-0.184,2.583,4.732,2.583,4.732
			s3.172-3.123,3.888-3.217C113.095,108.142,109.276,104.689,109.276,104.689z"/>
	</g>
</g>
<path fill="#DBDFF0" d="M109.472,113.5c-0.897,0.543-1.047,0.716-0.943,3.281c0.105,2.565,1.169,4.635,1.249,5.342
	c0.078,0.707,1.962,9.031,2.356,9.425c0.392,0.393,4.982,5.934,5.436,6.387s3.666,4.434,3.666,4.434l2.304-0.803
	c0,0-6.143-10.682-6.388-11.275c-0.244-0.594-2.005-10.585-2.215-11.667c-0.209-1.082,0.156-2.781-1.137-5.35
	C112.641,110.976,109.472,113.5,109.472,113.5z"/>
<path fill="#236C9E" d="M100.397,133.572c0,0,0.663,0.908,1.151,1.432c0.489,0.523,8.727,9.773,9.25,10.996s0.663,5.934,0.838,7.645
	c0.174,1.711,2.9,21.207,3.04,21.451c0.139,0.244-4.011,1.174-6.175,0.057c0,0-2.519-12.711-3.042-14.561
	c-0.524-1.852-1.466-8.17-1.362-8.902c0.105-0.732-6.632-8.516-8.517-9.67c-1.885-1.15-6.493-5.234-7.016-5.758
	s-3.491-1.92-3.211-4.572c0.279-2.654,2.251-4.748,2.251-4.748L100.397,133.572z"/>
<path fill="#236C9E" d="M92.112,139.367c0,0-0.294,0.775-0.708,1.861c-0.888,2.332-2.323,6.096-2.561,6.689
	c-0.349,0.873-2.094,4.645-2.932,5.377s-15.128,18.143-15.164,18.281c-0.035,0.139-6.12-0.107-6.435-1.119
	c0,0,8.927-13.01,10.079-14.439c1.152-1.432,3.561-3.563,4.364-6.947c0.803-3.385,6.561-16.404,6.578-16.895
	c0,0,0.927-4.013,2.271-5.234c1.343-1.223,6.23,0.209,6.998,2.755C95.371,132.246,92.112,139.367,92.112,139.367z"/>
<path fill="#EEA886" d="M122.933,140.664c0,0,0.88,0.965,1.325,1.24c0.443,0.277,0.87,0.291,0.772,0.729
	c-0.097,0.436-0.085,1.627-0.207,2.281s-3.18,1.666-3.752,1.514c-0.573-0.154-1.901-2.656-1.582-3.668
	c0.318-1.01,0.834-2.486,0.834-2.486L122.933,140.664z"/>
<path fill="#EEA886" d="M117.093,130.096c0,0-2.584-0.01-4.96,1.453c0,0,3.519,4.195,4.785,5.645
	c1.265,1.447,4.317,5.176,4.317,5.176l2.304-0.803c0,0-3.77-6.492-4.434-7.994C118.443,132.072,117.093,130.096,117.093,130.096z"/>
<g>
	<g>
		<path fill="#EEA886" d="M119.857,100.384c0,0-0.219,3.185-0.942,3.604c-0.722,0.418-0.055,3.064-0.547,3.198
			c-0.493,0.132-1.325,0.134-1.377,0.234c-0.054,0.099-2.567,2.743-3.262,2.37c-0.695-0.37-4.985-3.604-4.416-5.241
			c0.571-1.64,1.543-5.416,1.668-6.154C111.108,97.657,116.619,95.018,119.857,100.384z"/>
	</g>
</g>
<g>
	<g>
		<path fill="#1D3B54" d="M114.675,96.244c-0.555,0.023-1.051,0.114-1.491,0.249c-0.384-0.06-2.811,0.354-3.077,1.518
			c-0.357,1.566-0.532,5.486-0.603,5.943c-0.01,0.062,0.054-0.026,0.164-0.224c0.913-1.094,3.247-1.435,3.247-1.435l1.006,0.173
			c0.103-1.021,0.734-1.613,0.734-1.613c1.505-0.345,5.087,0.604,5.087,0.604C122.124,97.042,117.594,96.114,114.675,96.244z"/>
	</g>
</g>
<g>
	<g>
		<path fill="#EEA886" d="M113.288,101.13c0.006-0.451-1.111-1.132-1.577-0.103c-0.466,1.03,0.363,2.668,0.93,2.452
			C113.208,103.262,113.281,101.612,113.288,101.13z"/>
	</g>
</g>
<path fill="#DBDFF0" d="M105.671,106.7l1.113-0.44c0,0,2.81,0.647,4.433,2.897l-0.14,0.674
	C111.077,109.829,106.792,108.901,105.671,106.7z"/>
<path fill="#0F1E2B" d="M92.112,139.367c0,0-0.294,0.775-0.708,1.861c-0.938-1.08-3.079-5.162-3.079-5.162
	c0.139,0.1,0.587,0.521,0.691,0.613C89.117,136.775,92.112,139.367,92.112,139.367z"/>
<path fill="#DBDFF0" d="M109.961,123.088c-0.226,0.314-0.408,0.537-0.524,0.641c-0.08,0.069-0.176,0.149-0.287,0.24
	c-0.001,0.001-0.002,0.001-0.002,0.001c-1.065,0.853-3.458,2.51-4.562,3.108c-1.223,0.664-4.189,6.494-4.189,6.494
	s-10.28-0.979-12.793-6.632c0,0,1.78-3.979,3.403-6.336c1.623-2.355,5.183-10.838,7.068-12.042c1.885-1.204,3.509-1.989,7.226-1.886
	c3.717,0.105,5.777,3.055,5.777,3.055s2.828,3.038,3.106,4.643C114.425,115.756,111.355,121.146,109.961,123.088z"/>
<path fill="#A9ADBA" d="M109.961,123.088c-0.226,0.314-0.408,0.537-0.524,0.641c-0.08,0.069-0.176,0.149-0.287,0.24
	c-0.001,0.001-0.002,0.001-0.002,0.001l-0.106-4.224c0,0,0.53,1.629,0.609,1.869C109.73,121.858,109.961,123.088,109.961,123.088z"
	/>
</svg>
