<?xml version="1.0" encoding="utf-8"?>
<!-- Generator: Adobe Illustrator 16.0.0, SVG Export Plug-In . SVG Version: 6.00 Build 0)  -->
<!DOCTYPE svg PUBLIC "-//W3C//DTD SVG 1.1//EN" "http://www.w3.org/Graphics/SVG/1.1/DTD/svg11.dtd">
<svg version="1.1" id="Layer_1" xmlns="http://www.w3.org/2000/svg" xmlns:xlink="http://www.w3.org/1999/xlink" x="0px" y="0px"
	 width="256px" height="256px" viewBox="0 0 256 256" enable-background="new 0 0 256 256" xml:space="preserve">
<g>
	
		<linearGradient id="SVGID_1_" gradientUnits="userSpaceOnUse" x1="79.603" y1="127.3516" x2="176.5566" y2="127.3516" gradientTransform="matrix(4.366649e-008 1 1 -4.366649e-008 0.0181 -0.0195)">
		<stop  offset="0" style="stop-color:#E9C156"/>
		<stop  offset="0.4136" style="stop-color:#633110"/>
		<stop  offset="0.4461" style="stop-color:#6F3C14"/>
		<stop  offset="0.5041" style="stop-color:#8D5A1E"/>
		<stop  offset="0.5803" style="stop-color:#BF8A2E"/>
		<stop  offset="0.6278" style="stop-color:#E1AB39"/>
		<stop  offset="0.6348" style="stop-color:#E3B141"/>
		<stop  offset="0.6729" style="stop-color:#EDCD66"/>
		<stop  offset="0.7108" style="stop-color:#F5E384"/>
		<stop  offset="0.7481" style="stop-color:#FBF299"/>
		<stop  offset="0.7845" style="stop-color:#FEFCA6"/>
		<stop  offset="0.8191" style="stop-color:#FFFFAA"/>
		<stop  offset="0.8528" style="stop-color:#FDFAA3"/>
		<stop  offset="0.9015" style="stop-color:#F8EC90"/>
		<stop  offset="0.959" style="stop-color:#F0D571"/>
		<stop  offset="1" style="stop-color:#E9C156"/>
	</linearGradient>
	<path fill="url(#SVGID_1_)" d="M130.529,128.061c0.058-0.025,0.114-0.051,0.171-0.077c0.119-0.067,0.238-0.135,0.355-0.202
		c0.92-0.586,1.518-1.496,1.748-2.414c0.12-0.459,0.146-0.923,0.111-1.359c-0.015-0.108-0.029-0.216-0.043-0.322
		c-0.018-0.105-0.049-0.208-0.071-0.31l-0.04-0.155l-0.006-0.016l-0.047-0.13c-0.023-0.076-0.082-0.197-0.128-0.297
		c-0.191-0.389-0.466-0.689-0.768-0.921c-0.303-0.229-0.634-0.383-0.96-0.467c-0.326-0.087-0.648-0.096-0.939-0.063
		c-0.072,0.013-0.144,0.024-0.214,0.035c-0.069,0.015-0.136,0.035-0.202,0.053l-0.049,0.014l-0.023,0.007
		c-0.002,0-0.027,0.008-0.021,0.007l-0.012,0.004c-0.027,0.011-0.057,0.022-0.084,0.033c-0.051,0.018-0.125,0.057-0.184,0.085
		c-0.235,0.124-0.408,0.293-0.538,0.465c-0.13,0.171-0.21,0.35-0.26,0.512c-0.1,0.327-0.068,0.589-0.04,0.751
		c0.015,0.083,0.035,0.144,0.049,0.184c0.013,0.04,0.02,0.061,0.02,0.061s-0.002-0.021-0.006-0.063s-0.01-0.104-0.007-0.185
		c0.003-0.161,0.03-0.406,0.171-0.673c0.13-0.265,0.396-0.552,0.776-0.686c0.048-0.014,0.079-0.03,0.145-0.043
		c0.029-0.007,0.059-0.014,0.089-0.021l0.074-0.009c0.056-0.006,0.111-0.016,0.169-0.019c0.058-0.001,0.116-0.002,0.176-0.003
		c0.236,0.007,0.482,0.058,0.724,0.15c0.239,0.094,0.473,0.238,0.672,0.432c0.199,0.19,0.366,0.439,0.468,0.705
		c0.021,0.067,0.045,0.108,0.067,0.21l0.034,0.133l0.005,0.018c-0.012-0.039-0.002-0.002-0.004-0.007l0.004,0.03l0.008,0.061
		c0.011,0.081,0.027,0.161,0.033,0.244c0.004,0.082,0.008,0.165,0.013,0.249c0.001,0.336-0.054,0.68-0.163,1.016
		c-0.219,0.67-0.695,1.306-1.367,1.693c-0.086,0.045-0.172,0.09-0.259,0.135c-0.083,0.032-0.164,0.064-0.245,0.101
		c-0.113,0.033-0.228,0.066-0.343,0.1c-0.034,0.01,0.022-0.006,0.01-0.003l-0.021,0.004l-0.04,0.007l-0.081,0.016l-0.16,0.03
		c-0.215,0.053-0.435,0.057-0.655,0.084c-0.11,0.004-0.222,0.001-0.333,0.002c-0.056-0.001-0.111,0.003-0.167-0.001l-0.167-0.016
		c-0.111-0.014-0.226-0.012-0.336-0.036c-0.111-0.021-0.223-0.041-0.335-0.062c-0.221-0.062-0.445-0.117-0.662-0.209
		c-0.436-0.172-0.864-0.402-1.266-0.696c-0.398-0.3-0.779-0.646-1.128-1.04c-0.338-0.38-0.667-0.833-0.951-1.306
		c-1.162-1.888-1.82-4.248-1.769-6.724c0.012-1.238,0.215-2.498,0.539-3.744c0.331-1.246,0.814-2.471,1.394-3.662
		c0.577-1.191,1.271-2.341,2.034-3.447l0.285-0.415l0.3-0.405c0.202-0.269,0.397-0.541,0.612-0.805
		c0.423-0.531,0.846-1.064,1.269-1.597l0.319-0.4l0.305-0.412l0.613-0.82c0.198-0.278,0.389-0.563,0.583-0.843l0.29-0.422
		c0.095-0.143,0.183-0.289,0.274-0.433c0.742-1.146,1.406-2.341,1.979-3.573c0.569-1.233,1.045-2.51,1.355-3.825
		c0.312-1.313,0.459-2.664,0.393-4.001c-0.011-0.167-0.018-0.334-0.031-0.5c-0.021-0.166-0.042-0.331-0.063-0.496l-0.032-0.248
		c-0.013-0.082-0.03-0.163-0.046-0.245c-0.032-0.163-0.064-0.326-0.096-0.488c-0.16-0.644-0.342-1.281-0.615-1.878l-0.098-0.226
		l-0.111-0.219c-0.075-0.145-0.145-0.293-0.227-0.433c-0.083-0.141-0.166-0.28-0.25-0.419c-0.081-0.14-0.18-0.269-0.27-0.403
		c-0.373-0.526-0.785-1.021-1.257-1.451c-0.469-0.433-0.986-0.808-1.556-1.107c-0.134-0.076-0.3-0.146-0.461-0.215l-0.121-0.051
		c-0.041-0.017-0.069-0.023-0.104-0.036l-0.199-0.066l-0.05-0.017c-0.001,0-0.079-0.023-0.06-0.017l-0.028-0.007l-0.112-0.028
		l-0.225-0.055c-0.151-0.028-0.301-0.063-0.452-0.083c-1.21-0.188-2.433-0.043-3.496,0.391c-1.063,0.432-1.97,1.157-2.556,2.058
		c-0.291,0.451-0.5,0.942-0.615,1.44c-0.023,0.126-0.056,0.248-0.068,0.374l-0.023,0.186c-0.007,0.063-0.009,0.132-0.013,0.196
		c-0.003,0.063-0.009,0.139-0.007,0.19l0.005,0.158l0.002,0.078c0-0.012,0,0.038,0.001,0.042l0.002,0.023l0.005,0.045l0.017,0.181
		c0.054,0.478,0.201,0.923,0.396,1.315c0.196,0.395,0.442,0.738,0.716,1.028c0.548,0.583,1.193,0.954,1.812,1.147
		c0.31,0.096,0.612,0.148,0.897,0.169c0.286,0.016,0.555-0.002,0.798-0.042c0.487-0.094,0.867-0.271,1.145-0.447
		c0.07-0.043,0.134-0.087,0.19-0.133c0.058-0.045,0.111-0.083,0.159-0.124c0.092-0.086,0.172-0.151,0.229-0.213
		c0.111-0.122,0.169-0.185,0.169-0.185s-0.07,0.048-0.207,0.141c-0.068,0.048-0.158,0.095-0.26,0.155
		c-0.052,0.029-0.112,0.056-0.174,0.086c-0.061,0.031-0.129,0.06-0.202,0.085c-0.286,0.115-0.657,0.211-1.09,0.216
		c-0.217-0.003-0.446-0.02-0.687-0.07c-0.238-0.054-0.484-0.137-0.729-0.255c-0.489-0.233-0.978-0.607-1.359-1.118
		c-0.381-0.509-0.653-1.156-0.679-1.853l-0.002-0.131v-0.033l-0.001-0.017c0-0.009,0.001,0.028,0.001,0.003l0.004-0.079l0.009-0.158
		c0.003-0.054,0.012-0.085,0.017-0.128l0.019-0.123l0.026-0.135c0.015-0.09,0.046-0.177,0.067-0.266
		c0.106-0.354,0.285-0.694,0.51-1.015c0.466-0.632,1.164-1.162,1.999-1.47c0.414-0.161,0.862-0.266,1.327-0.311
		c0.463-0.051,0.943-0.035,1.424,0.038c0.121,0.015,0.24,0.045,0.36,0.066l0.18,0.045l0.09,0.022l0.022,0.006
		c0.037,0.011-0.024-0.009-0.009-0.003l0.05,0.017l0.199,0.064c0.031,0.012,0.071,0.021,0.096,0.033l0.072,0.032
		c0.097,0.044,0.193,0.079,0.306,0.144c0.438,0.223,0.859,0.529,1.258,0.877c0.4,0.348,0.76,0.759,1.09,1.201
		c0.078,0.113,0.167,0.221,0.239,0.34c0.075,0.117,0.149,0.235,0.224,0.354s0.136,0.246,0.205,0.37l0.102,0.187l0.089,0.193
		c0.257,0.51,0.44,1.063,0.606,1.625c0.034,0.144,0.068,0.286,0.104,0.431c0.017,0.072,0.036,0.144,0.051,0.217l0.037,0.22
		c0.024,0.147,0.05,0.295,0.074,0.442c0.019,0.149,0.031,0.3,0.047,0.45c0.123,1.203,0.059,2.458-0.168,3.71
		c-0.226,1.252-0.605,2.501-1.099,3.72l-0.183,0.459l-0.207,0.451l-0.424,0.9c-0.152,0.296-0.305,0.593-0.458,0.889
		c-0.162,0.292-0.335,0.579-0.502,0.87c-0.085,0.145-0.167,0.291-0.255,0.434l-0.271,0.425c-0.183,0.282-0.361,0.568-0.547,0.849
		l-0.579,0.83l-0.293,0.414l-0.308,0.402l-1.243,1.61c-0.211,0.264-0.409,0.545-0.611,0.819l-0.593,0.834
		c-0.775,1.119-1.485,2.279-2.114,3.474c-0.626,1.196-1.152,2.437-1.564,3.704c-0.192,0.638-0.372,1.278-0.495,1.929
		c-0.035,0.161-0.067,0.323-0.091,0.487c-0.026,0.162-0.053,0.325-0.079,0.487c-0.036,0.327-0.083,0.653-0.101,0.98
		c-0.029,0.326-0.032,0.653-0.042,0.979c0.006,0.325,0.006,0.65,0.032,0.974c0.044,0.646,0.125,1.286,0.261,1.91
		c0.276,1.246,0.72,2.435,1.329,3.501c0.306,0.535,0.641,1.027,1.043,1.506c0.393,0.465,0.827,0.89,1.308,1.25
		c0.448,0.333,0.937,0.612,1.446,0.822c-0.51,0.21-0.998,0.489-1.446,0.822c-0.48,0.359-0.915,0.785-1.308,1.249
		c-0.402,0.479-0.737,0.972-1.043,1.507c-0.609,1.065-1.053,2.254-1.329,3.5c-0.136,0.624-0.217,1.265-0.261,1.91
		c-0.026,0.323-0.026,0.648-0.032,0.975c0.01,0.325,0.013,0.652,0.042,0.979c0.018,0.328,0.064,0.653,0.101,0.98
		c0.026,0.162,0.053,0.325,0.079,0.488c0.023,0.163,0.056,0.325,0.091,0.486c0.123,0.65,0.303,1.291,0.495,1.929
		c0.412,1.269,0.938,2.508,1.564,3.704c0.629,1.195,1.339,2.354,2.114,3.474l0.593,0.834c0.202,0.274,0.4,0.556,0.611,0.819
		l1.243,1.611l0.308,0.402l0.293,0.413l0.579,0.83c0.186,0.28,0.364,0.566,0.547,0.849l0.271,0.425
		c0.088,0.144,0.17,0.29,0.255,0.435c0.167,0.29,0.34,0.577,0.502,0.869c0.153,0.297,0.306,0.593,0.458,0.89l0.218,0.448
		l0.413,0.902l0.183,0.459c0.493,1.219,0.873,2.468,1.099,3.721c0.227,1.251,0.291,2.506,0.168,3.71
		c-0.016,0.149-0.028,0.3-0.047,0.449c-0.024,0.147-0.05,0.296-0.074,0.442l-0.037,0.221c-0.015,0.072-0.034,0.145-0.051,0.217
		c-0.035,0.144-0.069,0.287-0.104,0.43c-0.166,0.563-0.35,1.115-0.606,1.625l-0.089,0.194l-0.102,0.187
		c-0.069,0.123-0.131,0.25-0.205,0.369s-0.148,0.237-0.224,0.355c-0.072,0.119-0.161,0.227-0.239,0.34
		c-0.33,0.441-0.689,0.853-1.09,1.2c-0.398,0.349-0.82,0.654-1.258,0.878c-0.112,0.063-0.208,0.1-0.306,0.143l-0.072,0.032
		c-0.024,0.012-0.064,0.022-0.096,0.033l-0.199,0.065l-0.05,0.017c-0.016,0.005,0.046-0.015,0.009-0.004l-0.023,0.006l-0.09,0.022
		l-0.18,0.045c-0.12,0.021-0.239,0.052-0.36,0.066c-0.48,0.074-0.961,0.089-1.424,0.039c-0.465-0.046-0.913-0.15-1.327-0.311
		c-0.835-0.309-1.533-0.839-1.999-1.471c-0.225-0.32-0.403-0.66-0.51-1.014c-0.021-0.09-0.053-0.177-0.067-0.267l-0.026-0.134
		l-0.019-0.123c-0.005-0.044-0.014-0.074-0.017-0.129l-0.009-0.158l-0.004-0.079c0-0.024-0.001,0.013-0.001,0.003l0.001-0.017
		v-0.032l0.002-0.131c0.025-0.697,0.298-1.344,0.679-1.853c0.382-0.511,0.87-0.886,1.359-1.118c0.244-0.119,0.49-0.202,0.729-0.256
		c0.24-0.05,0.47-0.067,0.687-0.069c0.433,0.004,0.804,0.1,1.09,0.215c0.073,0.026,0.142,0.054,0.202,0.086
		c0.062,0.03,0.122,0.056,0.174,0.085c0.102,0.061,0.191,0.107,0.26,0.155c0.137,0.094,0.207,0.142,0.207,0.142
		s-0.058-0.063-0.169-0.186c-0.057-0.061-0.137-0.127-0.229-0.212c-0.048-0.041-0.102-0.08-0.159-0.124
		c-0.057-0.047-0.12-0.09-0.19-0.133c-0.277-0.176-0.657-0.354-1.145-0.448c-0.243-0.04-0.512-0.057-0.798-0.042
		c-0.285,0.021-0.588,0.073-0.897,0.169c-0.618,0.193-1.264,0.565-1.812,1.147c-0.273,0.29-0.52,0.635-0.716,1.028
		c-0.195,0.394-0.343,0.838-0.396,1.316l-0.017,0.181l-0.005,0.045l-0.002,0.022c-0.001,0.004-0.001,0.054-0.001,0.042l-0.002,0.078
		l-0.005,0.159c-0.002,0.052,0.004,0.126,0.007,0.189c0.004,0.064,0.006,0.133,0.013,0.196l0.023,0.186
		c0.013,0.126,0.045,0.249,0.068,0.374c0.115,0.498,0.324,0.989,0.615,1.44c0.586,0.9,1.492,1.627,2.556,2.058
		c1.063,0.435,2.286,0.579,3.496,0.391c0.151-0.019,0.301-0.055,0.452-0.082l0.225-0.055l0.113-0.028l0.028-0.008
		c-0.02,0.007,0.059-0.016,0.06-0.017l0.05-0.017l0.199-0.066c0.035-0.012,0.063-0.019,0.104-0.036l0.121-0.05
		c0.161-0.068,0.327-0.139,0.461-0.216c0.569-0.3,1.087-0.675,1.556-1.107c0.472-0.431,0.884-0.925,1.257-1.451
		c0.09-0.134,0.188-0.264,0.27-0.403c0.084-0.139,0.167-0.278,0.25-0.418c0.082-0.141,0.151-0.289,0.227-0.434l0.111-0.219
		l0.098-0.225c0.273-0.598,0.455-1.235,0.615-1.878c0.031-0.163,0.063-0.326,0.096-0.489c0.016-0.082,0.033-0.163,0.046-0.245
		l0.032-0.247c0.021-0.166,0.041-0.331,0.063-0.497c0.014-0.166,0.021-0.333,0.031-0.5c0.066-1.336-0.081-2.688-0.393-4.001
		c-0.311-1.314-0.786-2.592-1.355-3.824c-0.572-1.233-1.236-2.428-1.979-3.573c-0.092-0.145-0.18-0.29-0.274-0.433l-0.29-0.423
		c-0.194-0.28-0.385-0.563-0.583-0.842l-0.613-0.821l-0.305-0.412l-0.319-0.4c-0.423-0.532-0.846-1.064-1.269-1.596
		c-0.215-0.265-0.41-0.536-0.612-0.806l-0.3-0.405l-0.285-0.415c-0.764-1.106-1.457-2.255-2.034-3.447
		c-0.579-1.19-1.063-2.415-1.394-3.662c-0.324-1.246-0.527-2.506-0.539-3.744c-0.052-2.476,0.606-4.836,1.769-6.724
		c0.284-0.473,0.613-0.926,0.951-1.306c0.349-0.394,0.729-0.74,1.128-1.039c0.401-0.295,0.83-0.524,1.266-0.696
		c0.217-0.093,0.441-0.147,0.662-0.21c0.112-0.021,0.224-0.04,0.335-0.061c0.11-0.025,0.225-0.023,0.336-0.036l0.167-0.017
		c0.056-0.003,0.111,0,0.167-0.001c0.111,0.002,0.223-0.002,0.333,0.002c0.221,0.027,0.44,0.031,0.655,0.084l0.16,0.031l0.081,0.015
		l0.04,0.007l0.021,0.004c0.013,0.003-0.044-0.013-0.01-0.003c0.115,0.033,0.229,0.067,0.343,0.101
		c0.081,0.035,0.162,0.067,0.245,0.1c0.087,0.046,0.173,0.091,0.259,0.135c0.672,0.389,1.148,1.024,1.367,1.693
		c0.109,0.336,0.164,0.68,0.163,1.016c-0.005,0.084-0.009,0.167-0.013,0.25c-0.006,0.082-0.022,0.162-0.033,0.244l-0.008,0.061
		l-0.004,0.03c0.002-0.005-0.008,0.032,0.004-0.007l-0.005,0.017l-0.034,0.134c-0.022,0.101-0.047,0.143-0.067,0.209
		c-0.102,0.266-0.269,0.515-0.468,0.705c-0.199,0.193-0.433,0.338-0.672,0.432c-0.241,0.093-0.487,0.144-0.724,0.15
		c-0.06-0.001-0.118-0.002-0.176-0.003c-0.058-0.003-0.113-0.013-0.169-0.019l-0.074-0.009c-0.03-0.007-0.06-0.014-0.089-0.021
		c-0.065-0.013-0.097-0.029-0.145-0.043c-0.381-0.134-0.646-0.42-0.776-0.686c-0.141-0.266-0.168-0.512-0.171-0.672
		c-0.003-0.082,0.003-0.144,0.007-0.185c0.004-0.042,0.006-0.063,0.006-0.063s-0.007,0.02-0.02,0.06
		c-0.014,0.041-0.034,0.101-0.049,0.184c-0.028,0.163-0.06,0.425,0.04,0.752c0.05,0.162,0.13,0.34,0.26,0.511
		c0.13,0.172,0.303,0.341,0.538,0.465c0.059,0.028,0.133,0.068,0.184,0.086c0.027,0.011,0.057,0.021,0.084,0.032l0.012,0.005
		c-0.006-0.002,0.02,0.006,0.021,0.007l0.023,0.007l0.049,0.013c0.066,0.018,0.133,0.038,0.202,0.053
		c0.07,0.012,0.142,0.023,0.214,0.035c0.291,0.033,0.613,0.024,0.939-0.063c0.326-0.084,0.657-0.236,0.96-0.467
		c0.302-0.231,0.576-0.532,0.768-0.921c0.046-0.1,0.104-0.22,0.128-0.297l0.047-0.129l0.006-0.017l0.021-0.079l0.02-0.075
		c0.022-0.103,0.054-0.204,0.071-0.311c0.014-0.106,0.028-0.214,0.043-0.322c0.035-0.437,0.009-0.899-0.111-1.359
		c-0.23-0.917-0.828-1.828-1.748-2.414c-0.117-0.067-0.236-0.134-0.355-0.202C130.644,128.111,130.587,128.086,130.529,128.061z"/>
	
		<linearGradient id="SVGID_2_" gradientUnits="userSpaceOnUse" x1="68.7051" y1="128.0605" x2="127.1416" y2="128.0605" gradientTransform="matrix(4.366649e-008 1 1 -4.366649e-008 0.0181 -0.0195)">
		<stop  offset="0" style="stop-color:#E9C156"/>
		<stop  offset="0.4136" style="stop-color:#633110"/>
		<stop  offset="0.4461" style="stop-color:#6F3C14"/>
		<stop  offset="0.5041" style="stop-color:#8D5A1E"/>
		<stop  offset="0.5803" style="stop-color:#BF8A2E"/>
		<stop  offset="0.6278" style="stop-color:#E1AB39"/>
		<stop  offset="0.6348" style="stop-color:#E3B141"/>
		<stop  offset="0.6729" style="stop-color:#EDCD66"/>
		<stop  offset="0.7108" style="stop-color:#F5E384"/>
		<stop  offset="0.7481" style="stop-color:#FBF299"/>
		<stop  offset="0.7845" style="stop-color:#FEFCA6"/>
		<stop  offset="0.8191" style="stop-color:#FFFFAA"/>
		<stop  offset="0.8528" style="stop-color:#FDFAA3"/>
		<stop  offset="0.9015" style="stop-color:#F8EC90"/>
		<stop  offset="0.959" style="stop-color:#F0D571"/>
		<stop  offset="1" style="stop-color:#E9C156"/>
	</linearGradient>
	<path fill="url(#SVGID_2_)" d="M125.508,127.027c0,0-0.247-0.16-0.66-0.533c-0.408-0.374-0.983-0.957-1.571-1.807
		c-0.596-0.841-1.195-1.953-1.633-3.313c-0.218-0.681-0.388-1.423-0.505-2.214c-0.025-0.198-0.063-0.397-0.077-0.603
		c-0.019-0.204-0.036-0.411-0.055-0.62c-0.015-0.42-0.04-0.849-0.024-1.287c-0.003-0.439,0.039-0.887,0.066-1.342
		c0.057-0.454,0.094-0.918,0.179-1.385c0.064-0.469,0.169-0.94,0.269-1.419c0.048-0.24,0.117-0.478,0.176-0.719
		c0.063-0.241,0.118-0.485,0.195-0.726c0.073-0.241,0.146-0.484,0.22-0.729l0.027-0.092l0.014-0.046l0.013-0.037l0.064-0.185
		c0.043-0.124,0.086-0.247,0.13-0.372c0.165-0.505,0.364-0.98,0.557-1.469c0.414-0.971,0.859-1.962,1.384-2.933
		c0.063-0.122,0.128-0.245,0.191-0.367l0.204-0.364c0.137-0.242,0.271-0.487,0.411-0.73c0.287-0.483,0.571-0.972,0.877-1.454
		c0.601-0.969,1.24-1.934,1.897-2.901c1.305-1.942,2.688-3.894,3.969-5.939c0.637-1.024,1.247-2.073,1.799-3.156
		c0.552-1.082,1.025-2.209,1.405-3.363c0.377-1.154,0.657-2.34,0.8-3.535c0.136-1.195,0.138-2.391,0.031-3.554
		c-0.037-0.29-0.073-0.578-0.109-0.865c-0.015-0.145-0.045-0.286-0.072-0.427s-0.056-0.281-0.083-0.422
		c-0.028-0.141-0.056-0.281-0.083-0.421l-0.011-0.052l-0.005-0.026l-0.009-0.037l-0.024-0.1l-0.051-0.197
		c-0.062-0.258-0.148-0.543-0.227-0.816c-0.17-0.537-0.357-1.063-0.575-1.571c-0.224-0.507-0.472-0.998-0.746-1.467
		c-0.551-0.938-1.229-1.776-1.993-2.478c-0.771-0.693-1.629-1.245-2.521-1.615c-0.891-0.372-1.804-0.576-2.677-0.635
		c-0.874-0.063-1.708,0.041-2.46,0.238c-1.511,0.391-2.677,1.25-3.31,2.185c-0.32,0.467-0.503,0.946-0.599,1.369
		c-0.096,0.426-0.097,0.797-0.071,1.089c0.028,0.294,0.073,0.513,0.113,0.657c0.041,0.144,0.062,0.218,0.062,0.218
		c0.02,0.068,0.091,0.108,0.159,0.089c0.063-0.018,0.102-0.078,0.093-0.141l-0.001-0.01c0,0-0.009-0.071-0.027-0.21
		c-0.016-0.139-0.032-0.346-0.023-0.611c0.013-0.266,0.058-0.591,0.179-0.948c0.123-0.355,0.325-0.743,0.638-1.109
		c0.607-0.744,1.676-1.379,3.005-1.635c1.325-0.252,2.919-0.121,4.411,0.596c0.743,0.357,1.464,0.843,2.104,1.466
		c0.645,0.618,1.209,1.365,1.688,2.2c0.477,0.837,0.86,1.765,1.163,2.747c0.068,0.244,0.142,0.476,0.205,0.748l0.05,0.198l0.025,0.1
		l0.017,0.085c0.026,0.128,0.052,0.257,0.079,0.386c0.025,0.129,0.052,0.258,0.078,0.388c0.027,0.129,0.056,0.259,0.069,0.391
		c0.034,0.263,0.069,0.526,0.104,0.791c0.104,1.063,0.109,2.151-0.007,3.245c-0.124,1.094-0.375,2.188-0.72,3.266
		c-0.346,1.079-0.786,2.144-1.306,3.184c-0.513,1.042-1.087,2.066-1.694,3.077c-1.223,2.019-2.57,3.983-3.856,5.96
		c-0.641,0.989-1.265,1.982-1.854,2.984c-0.299,0.497-0.578,1.004-0.859,1.504c-0.139,0.252-0.271,0.507-0.404,0.759
		c-0.066,0.126-0.133,0.252-0.199,0.378c-0.063,0.127-0.126,0.255-0.188,0.382c-0.513,1.011-0.956,2.036-1.35,3.06
		c-0.187,0.52-0.381,1.034-0.527,1.534c-0.039,0.126-0.078,0.251-0.117,0.375l-0.059,0.188l-0.018,0.056l-0.013,0.048l-0.025,0.096
		c-0.068,0.256-0.136,0.509-0.203,0.761c-0.071,0.25-0.121,0.504-0.178,0.755c-0.053,0.252-0.116,0.499-0.159,0.749
		c-0.087,0.499-0.179,0.989-0.231,1.479c-0.072,0.485-0.096,0.969-0.133,1.441c-0.011,0.475-0.036,0.939-0.015,1.396
		c0.002,0.456,0.045,0.901,0.079,1.336c0.027,0.217,0.055,0.431,0.081,0.643c0.024,0.212,0.071,0.417,0.105,0.622
		c0.155,0.816,0.36,1.581,0.621,2.273c0.522,1.387,1.191,2.504,1.846,3.333c0.651,0.834,1.271,1.394,1.706,1.749
		c0.439,0.354,0.704,0.505,0.704,0.505l0.001,0.001c0.024,0.014,0.056,0.006,0.069-0.02
		C125.537,127.072,125.53,127.042,125.508,127.027z"/>
	
		<linearGradient id="SVGID_3_" gradientUnits="userSpaceOnUse" x1="129.0186" y1="128.0605" x2="187.4541" y2="128.0605" gradientTransform="matrix(4.366649e-008 1 1 -4.366649e-008 0.0181 -0.0195)">
		<stop  offset="0" style="stop-color:#E9C156"/>
		<stop  offset="0.4136" style="stop-color:#633110"/>
		<stop  offset="0.4461" style="stop-color:#6F3C14"/>
		<stop  offset="0.5041" style="stop-color:#8D5A1E"/>
		<stop  offset="0.5803" style="stop-color:#BF8A2E"/>
		<stop  offset="0.6278" style="stop-color:#E1AB39"/>
		<stop  offset="0.6348" style="stop-color:#E3B141"/>
		<stop  offset="0.6729" style="stop-color:#EDCD66"/>
		<stop  offset="0.7108" style="stop-color:#F5E384"/>
		<stop  offset="0.7481" style="stop-color:#FBF299"/>
		<stop  offset="0.7845" style="stop-color:#FEFCA6"/>
		<stop  offset="0.8191" style="stop-color:#FFFFAA"/>
		<stop  offset="0.8528" style="stop-color:#FDFAA3"/>
		<stop  offset="0.9015" style="stop-color:#F8EC90"/>
		<stop  offset="0.959" style="stop-color:#F0D571"/>
		<stop  offset="1" style="stop-color:#E9C156"/>
	</linearGradient>
	<path fill="url(#SVGID_3_)" d="M125.508,129.093c0,0-0.247,0.161-0.66,0.533c-0.408,0.374-0.983,0.958-1.571,1.807
		c-0.596,0.841-1.195,1.954-1.633,3.313c-0.218,0.681-0.388,1.424-0.505,2.214c-0.025,0.198-0.063,0.397-0.077,0.603
		c-0.019,0.204-0.036,0.411-0.055,0.62c-0.015,0.42-0.04,0.849-0.024,1.288c-0.003,0.438,0.039,0.886,0.066,1.341
		c0.057,0.454,0.094,0.918,0.179,1.385c0.064,0.47,0.169,0.94,0.269,1.42c0.048,0.239,0.117,0.478,0.176,0.719
		c0.063,0.241,0.118,0.484,0.195,0.725c0.073,0.242,0.146,0.485,0.22,0.729l0.027,0.093l0.014,0.046l0.013,0.036l0.064,0.185
		c0.043,0.124,0.086,0.248,0.13,0.372c0.165,0.505,0.364,0.98,0.557,1.469c0.414,0.972,0.859,1.962,1.384,2.933
		c0.063,0.122,0.128,0.245,0.191,0.367l0.204,0.364c0.137,0.243,0.271,0.488,0.411,0.73c0.287,0.483,0.571,0.972,0.877,1.454
		c0.601,0.97,1.24,1.934,1.897,2.902c1.305,1.941,2.688,3.893,3.969,5.938c0.637,1.024,1.247,2.074,1.799,3.156
		s1.025,2.209,1.405,3.363c0.377,1.155,0.657,2.341,0.8,3.535c0.136,1.195,0.138,2.391,0.031,3.554
		c-0.037,0.29-0.073,0.578-0.109,0.866c-0.015,0.144-0.045,0.285-0.072,0.426c-0.027,0.142-0.056,0.282-0.083,0.423
		c-0.028,0.141-0.056,0.28-0.083,0.42l-0.011,0.053l-0.005,0.025l-0.009,0.037l-0.024,0.1l-0.051,0.198
		c-0.062,0.257-0.148,0.542-0.227,0.815c-0.17,0.537-0.357,1.063-0.575,1.572c-0.224,0.507-0.472,0.997-0.746,1.467
		c-0.551,0.938-1.229,1.775-1.993,2.477c-0.771,0.694-1.629,1.246-2.521,1.615c-0.891,0.372-1.804,0.576-2.677,0.635
		c-0.874,0.064-1.708-0.041-2.46-0.238c-1.511-0.391-2.677-1.25-3.31-2.185c-0.32-0.466-0.503-0.946-0.599-1.369
		c-0.096-0.425-0.097-0.796-0.071-1.089c0.028-0.293,0.073-0.513,0.113-0.657c0.041-0.144,0.062-0.218,0.062-0.218
		c0.02-0.068,0.091-0.108,0.159-0.089c0.063,0.018,0.102,0.078,0.093,0.141l-0.001,0.01c0,0-0.009,0.071-0.027,0.211
		c-0.016,0.138-0.032,0.345-0.023,0.61c0.013,0.266,0.058,0.591,0.179,0.948c0.123,0.356,0.325,0.743,0.638,1.109
		c0.607,0.745,1.676,1.38,3.005,1.635c1.325,0.252,2.919,0.122,4.411-0.596c0.743-0.357,1.464-0.843,2.104-1.466
		c0.645-0.618,1.209-1.365,1.688-2.199c0.477-0.838,0.86-1.766,1.163-2.747c0.068-0.245,0.142-0.477,0.205-0.749l0.05-0.198
		l0.025-0.099l0.017-0.085c0.026-0.129,0.052-0.257,0.079-0.386c0.025-0.129,0.052-0.259,0.078-0.388
		c0.027-0.13,0.056-0.259,0.069-0.391c0.034-0.263,0.069-0.526,0.104-0.792c0.104-1.063,0.109-2.15-0.007-3.244
		c-0.124-1.094-0.375-2.188-0.72-3.267c-0.346-1.079-0.786-2.144-1.306-3.183c-0.513-1.043-1.087-2.067-1.694-3.078
		c-1.223-2.019-2.57-3.982-3.856-5.959c-0.641-0.989-1.265-1.983-1.854-2.984c-0.299-0.498-0.578-1.004-0.859-1.505
		c-0.139-0.252-0.271-0.507-0.404-0.759c-0.066-0.126-0.133-0.252-0.199-0.377c-0.063-0.128-0.126-0.256-0.188-0.383
		c-0.513-1.011-0.956-2.036-1.35-3.06c-0.187-0.519-0.381-1.034-0.527-1.534c-0.039-0.125-0.078-0.25-0.117-0.375l-0.059-0.187
		l-0.018-0.057l-0.013-0.048l-0.025-0.096c-0.068-0.255-0.136-0.508-0.203-0.76c-0.071-0.25-0.121-0.505-0.178-0.756
		c-0.053-0.252-0.116-0.498-0.159-0.748c-0.087-0.5-0.179-0.99-0.231-1.479c-0.072-0.486-0.096-0.97-0.133-1.441
		c-0.011-0.475-0.036-0.939-0.015-1.396c0.002-0.455,0.045-0.901,0.079-1.336c0.027-0.217,0.055-0.431,0.081-0.642
		c0.024-0.212,0.071-0.418,0.105-0.623c0.155-0.816,0.36-1.58,0.621-2.273c0.522-1.387,1.191-2.503,1.846-3.332
		c0.651-0.834,1.271-1.394,1.706-1.75c0.439-0.353,0.704-0.504,0.704-0.505h0.001c0.024-0.015,0.056-0.006,0.069,0.019
		C125.537,129.048,125.53,129.078,125.508,129.093z"/>
</g>
</svg>
