<?xml version="1.0" encoding="utf-8"?>
<!-- Generator: Adobe Illustrator 16.0.0, SVG Export Plug-In . SVG Version: 6.00 Build 0)  -->
<!DOCTYPE svg PUBLIC "-//W3C//DTD SVG 1.1//EN" "http://www.w3.org/Graphics/SVG/1.1/DTD/svg11.dtd">
<svg version="1.1" id="Layer_1" xmlns="http://www.w3.org/2000/svg" xmlns:xlink="http://www.w3.org/1999/xlink" x="0px" y="0px"
	 width="512px" height="512px" viewBox="0 0 512 512" enable-background="new 0 0 512 512" xml:space="preserve">
<g id="Layer_1_1_" display="none">
	<g display="inline">
		<path id="Yilan_County" fill="#FFD522" stroke="#D64949" stroke-width="0.25" stroke-linecap="round" stroke-linejoin="round" d="
			M332.479,227.615l-0.424-0.609l-1.813-1.029l-3.246,0.678l-4.582,2.445l-2.002,1.328l-6.082,1.242l-0.771,1.615l1.363,1.938
			l-0.889,2.07l-2.506,1.594l-1.922,0.674l-2.017,1.066l-1.777,2.244l-1.682,2.744l-2.748,1.959l-3.381,1.047l-7.351,4.4
			l-7.116,2.895l-2.074,1.242l-2.586,2.176l-1.043,2.701l0.071,2.266l0.558,1.738l0.229,1.109l-2.127,1.5l-3.629,1.764l-2.693,1.893
			l-2.074,1.781l-2.67,1.002l-3.148,0.881l-1.672,0.467l-2.928,2.133l1.701,6.783l-1.23,2.088l-1.875,0.697l-1.754-0.352
			l-2.133,0.873l-0.299,0.82l-1.266,3.541l-0.736,2.588l0.314,2.391l-2.049,3.176l-7.631,7.729l-2.369,5.707l1.992,0.546
			l-0.373,3.036l0.795,2.021l2.684,0.586l2.393,1.39l2.029,1.389l2.133-0.328l2.611-1.236h2.67l3.178,2.562l1.361,1.104l3.543,1.713
			l8.221,2.086l4.498,1.718l3.563,0.018l2.688-2.473l1.267-3.252l2.078-0.478l10.092,6.025l6.07,0.914l0.592,0.014l-0.113-0.125
			l-0.571-0.902l0.278-0.75l0.547-0.723l0.306-0.891l0.281-3.467l0.44-1.76l0.701-1.228l0.631-1.461l-0.234-3.804l0.13-1.721
			l3.84-4.402l3.383-1.969l1.379-1.295l-0.328-1.525l-0.922-1.475l-0.422-1.629l0.246-1.342l3.256-1.852l0.457-3.082l-0.736-3.539
			l-1.434-2.736l1.012-0.725l1.414-0.459l1.68-0.176l1.777,0.182v-0.979l-4.182-0.768l-3.545-2.197l-1.869-3.399l-0.105-4.41
			l0.771-2.16l0.104-2.158l-1.797-8.439l-0.141-4.051l0.289-4.172l0.83-4.197l1.271-3.666l1.611-2.623l10.188-12.424l3.013-2.613
			l6.532-3.234v-0.003H332.479z M329.316,249.027l-1.052-0.18l-0.129-0.064l-0.059,0.033l-0.09-0.014l-0.082,0.115l-1.355,0.777
			l-0.539-0.18l0.701,1.133l0.047,0.006l0.211,0.334l0.736,0.418l2.088,0.07l0.398-1.271l-0.353-0.342L329.316,249.027z"/>
		
			<polygon id="Taoyuan_City" fill="#FFD522" stroke="#D64949" stroke-width="0.25" stroke-linecap="round" stroke-linejoin="round" points="
			262.348,275.969 261.008,272.996 256.131,268.385 255.375,265.338 254.938,262.508 256.645,260.465 257.434,257.615 
			252.85,250.887 250.098,249.797 246.053,250.012 243.252,248.449 243.992,244.785 243.438,241.996 240.516,239.209 
			239.924,236.439 240.516,233.279 240.398,229.9 242.414,227.701 249.527,225.609 251.367,223.711 251.9,221.42 251.641,219.217 
			248.84,215.139 246.527,213.916 244.313,213.391 242.57,211.82 239.982,210.164 236.566,208.506 234.254,205.992 223.289,207.977 
			218.41,209.734 215.961,211.068 213.941,212.848 211.598,214.316 201.547,217.621 197.625,220.943 193.834,225.463 
			188.98,233.201 190.717,233.809 198.148,233.279 200.668,234.98 202.848,239.711 205.576,240.777 207.932,241.457 210.16,242.523 
			213.896,243.74 215.854,246.008 215.238,249.209 217.121,251.234 220.693,252.367 222.967,254.021 224.68,255.721 
			226.764,256.113 228.859,255.938 230.713,257.852 232.133,260.332 234.508,261.508 236.373,262.945 236.566,265.688 
			237.428,269.648 236.402,273.869 233.883,277.414 234.195,279.787 236.982,281.934 240.359,283.959 243.383,284.48 
			245.578,286.047 249.551,288.307 252.158,289.479 252.457,288.658 254.59,287.785 256.344,288.137 258.219,287.439 
			259.449,285.352 257.748,278.568 260.676,276.436 		"/>
		
			<polygon id="Taipei" fill="#FFD522" stroke="#D64949" stroke-width="0.25" stroke-linecap="round" stroke-linejoin="round" points="
			284.973,219.982 282.469,218.574 282.367,215.793 283.254,212.193 282.367,209.77 280.246,207.889 278.898,202.404 
			277.977,200.473 277.133,198.688 276.91,196.805 277.207,194.84 276.082,193.658 273.99,192.973 271.813,194.053 270.211,195.412 
			264.27,198.949 262.328,201.129 261.17,203.617 260.191,204.926 259.318,206.547 261.379,208.855 264.521,211.865 265.172,215.27 
			264.313,219.328 266.477,222.99 269.619,225.461 271.693,227.832 273.695,229.598 276.32,230.186 279.488,230.219 281.771,229.27 
			285.922,224.039 287.004,221.715 		"/>
		
			<path id="New_Taipei_City" fill="#FFD522" stroke="#D64949" stroke-width="0.25" stroke-linecap="round" stroke-linejoin="round" d="
			M334.09,222.855l-2.301-0.617l-1.959-0.207l-3.818,0.58l-1.151-0.527l-1.438-2.217l-1.328-4.74l-0.387-2.834l0.246-1.598
			l0.887-1.998l-1.764-1.121l-18.867-4.584l-0.162,6.518l0.092,1.652l2.017,2.111l-0.209,1.342l-1.379,1.014l-2.177,0.818
			l-2.805-0.359l-5.766-2.404l-1.629-1.162l-2-1.9l-1.558-1.898l-0.936-1.914l-1.556-2.014l-0.311-1.572l1.734-1.18l3.912-1.701
			l2.401-1.602l0.002-0.002l-1.256-0.883l-0.584-0.689l-0.047-1.193l0.549-0.969l0.574-0.703l0.065-0.482l-1.188-0.33l-1.683,0.195
			l-1.469,0.406l-0.641,0.27l-1.963-4.076l-5.461-7.709l-2.451-1.84l-5.893-0.695l-6.013,1.373l-5.237,2.672l-3.584,3.244
			l-1.738,3.188l-1.133,2.813l-0.434,0.504l-1.035,0.488l-0.994,0.826l-0.479,1.477l1.668,1.045l3.164,3.205l1.973,3.1l-1.891,0.768
			l-0.852-0.846l-0.666-1.5l-1.029-1.438l-1.912-0.639l-1.658,0.025l-1.236,0.219l-1.002,0.502l-3.363,2.799l-2.59,1.02
			l-6.137,1.107l-0.008,0.002l2.313,2.514l3.416,1.658l2.588,1.656l1.742,1.57l2.215,0.525l2.313,1.223l2.801,4.078l0.26,2.203
			l-0.533,2.291l-1.84,1.898l-7.113,2.092l-2.016,2.199l0.117,3.379l-0.592,3.16l0.592,2.77l2.922,2.787l0.555,2.789l-0.74,3.664
			l2.801,1.563l4.045-0.215l2.752,1.09l4.584,6.729l-0.789,2.851l-1.708,2.043l0.438,2.829l0.756,3.048l4.877,4.61l1.34,2.974
			l3.148-0.882l2.67-1.002l2.074-1.78l2.693-1.894l3.629-1.765l2.127-1.5l-0.229-1.108l-0.558-1.737l-0.071-2.267l1.043-2.701
			l2.586-2.176l2.074-1.242l7.116-2.895l7.351-4.4l3.381-1.047l2.748-1.959l1.682-2.744l1.777-2.244l2.017-1.066l1.922-0.674
			l2.506-1.594l0.889-2.07l-1.363-1.938l0.771-1.615l6.082-1.242l2.002-1.328l4.582-2.445l3.246-0.678l1.813,1.029l0.424,0.609
			v0.002l4.74-2.348l-1.098-1.391L334.09,222.855z M285.922,224.039l-4.15,5.23l-2.282,0.949l-3.169-0.033l-2.625-0.588
			l-2.002-1.766l-2.073-2.371l-3.144-2.471l-2.164-3.662l0.859-4.059l-0.65-3.404l-3.143-3.01l-2.061-2.309l0.873-1.621l0.979-1.309
			l1.158-2.488l1.941-2.18l5.94-3.537l1.603-1.359l2.178-1.08l2.092,0.686l1.125,1.182l-0.297,1.965l0.223,1.883l0.844,1.785
			l0.922,1.932l1.349,5.484l2.121,1.881l0.887,2.424l-0.887,3.6l0.102,2.781l2.505,1.408l2.03,1.732L285.922,224.039z"/>
		
			<polygon id="Keelung" fill="#FFD522" stroke="#D64949" stroke-width="0.25" stroke-linecap="round" stroke-linejoin="round" points="
			302.139,211.162 302.047,209.51 302.209,202.992 296.08,201.504 293.98,200.73 293.068,199.828 292.646,199.273 291.885,198.738 
			291.883,198.74 289.48,200.342 285.568,202.043 283.834,203.223 284.145,204.795 285.699,206.809 286.635,208.723 
			288.191,210.621 290.191,212.521 291.82,213.684 297.586,216.088 300.391,216.447 302.566,215.629 303.945,214.615 
			304.154,213.273 		"/>
		
			<polygon id="Hsinchu_County" fill="#FFD522" stroke="#D64949" stroke-width="0.25" stroke-linecap="round" stroke-linejoin="round" points="
			252.158,289.479 249.551,288.307 245.578,286.047 243.383,284.48 240.359,283.959 236.982,281.934 234.195,279.787 
			233.883,277.414 236.402,273.869 237.428,269.648 236.566,265.688 236.373,262.945 234.508,261.508 232.133,260.332 
			230.713,257.852 228.859,255.938 226.764,256.113 224.68,255.721 222.967,254.021 220.693,252.367 217.121,251.234 
			215.238,249.209 215.854,246.008 213.896,243.74 210.16,242.523 207.932,241.457 205.576,240.777 202.848,239.711 200.668,234.98 
			198.148,233.279 190.717,233.809 188.98,233.201 188.98,233.203 187.857,234.996 186.633,238.324 186.27,239.926 186.387,240.596 
			185.01,241.064 183.563,242.242 182.432,243.805 181.975,245.395 181.648,247.49 180.832,248.707 180.797,248.75 185.328,250.711 
			193.555,253.324 196.504,254.893 198.615,256.982 199.623,258.982 199.09,260.99 197.809,261.729 194.984,262.207 
			191.807,263.512 189.922,265.863 188.691,268.953 187.336,270.611 189.758,276.652 191.865,279.084 195.141,281.521 
			201.779,284.652 203.871,286.479 204.299,289.35 204.109,291.477 203.678,293.346 203.145,295.066 203.678,296.65 
			204.195,298.801 203.523,301.344 203.023,304.104 205.258,304.645 209.449,303.494 213.164,303.254 215.758,303.512 
			222.613,301.773 225.34,303.951 226.059,306.359 227.865,308.117 230.34,312.377 230.689,315.035 231.111,314.738 
			236.877,314.195 238.422,314.609 240.791,308.902 248.422,301.174 250.471,297.998 250.156,295.607 250.893,293.02 		"/>
		
			<polygon id="Hsinchu" fill="#FFD522" stroke="#D64949" stroke-width="0.25" stroke-linecap="round" stroke-linejoin="round" points="
			198.615,256.982 196.504,254.893 193.555,253.324 185.328,250.711 180.797,248.75 180.797,248.752 179.852,249.754 
			179.035,251.375 179.631,252.598 179.992,253.598 180.016,254.525 179.619,255.379 178.426,257.006 175.395,263.207 
			174.781,265.443 174.791,265.445 178.541,266.908 180.852,268.32 182.336,270.389 184.719,271.344 187.234,270.738 
			187.336,270.611 188.691,268.953 189.922,265.863 191.807,263.512 194.984,262.207 197.809,261.729 199.09,260.99 
			199.623,258.982 		"/>
	</g>
</g>
<g id="Layer_2" display="none">
	<g display="inline">
		
			<polygon id="Yunlin_County" fill="#7F7F7F" stroke="#EFEFEF" stroke-width="0.25" stroke-linecap="round" stroke-linejoin="round" points="
			247.435,328.95 242.931,329.434 239.224,330.566 236.052,329.175 233.888,326.62 234.392,323.479 235.431,320.665 
			234.868,316.486 235.431,312.568 236.524,310.014 235.489,306.046 234.927,306.43 228.39,305.136 225.216,305.18 218.583,301.895 
			207.833,300.686 201.509,298.266 197.872,297.271 193.759,297.055 181.767,298.48 177.624,296.091 177.622,296.089 
			177.161,296.971 174.118,299.305 173.696,300.134 173.136,301.62 169.774,306.063 169.087,307.693 167.815,312.484 
			167.134,317.956 164.757,322.136 163.233,327.484 162.841,334.18 162.958,343.146 160.458,345.952 160.974,345.921 
			161.054,345.861 166.806,345.218 171.341,347.771 174.63,347.807 176.794,346.093 177.712,343.409 178.841,341.792 
			181.747,341.337 185.54,338.232 187.97,336.939 190.046,334.87 198.938,329.727 202.853,328.657 209.728,327.366 213.493,327.169 
			216.368,329.693 219.097,332.896 225.974,335.419 227.989,335.128 232.524,333.835 235.103,335.645 236.407,337.813 
			239.845,337.458 246.249,336.163 248.382,335.452 248.382,333.577 248.591,330.857 248.856,330.886 		"/>
		
			<polygon id="Taichung" fill="#7F7F7F" stroke="#EFEFEF" stroke-width="0.25" stroke-linecap="round" stroke-linejoin="round" points="
			348.364,209.583 345.694,209.583 343.083,210.819 340.95,211.147 338.921,209.759 336.528,208.37 333.845,207.784 333.05,205.765 
			333.423,202.728 331.431,202.183 329.886,201.769 324.12,202.312 323.698,202.608 321.669,204.028 320.685,207.087 
			318.028,208.194 315.126,208.13 312.813,209.759 310.321,212.167 307.122,213.925 300.8,218.958 297.04,220.493 292.225,223.077 
			289.259,221.905 286.55,218.888 283.251,217.565 277.878,217.159 274.868,218.958 274.396,222.966 271.55,224.507 
			264.907,224.853 258.589,221.21 255.028,220.562 250.997,218.606 242.78,212.536 239.356,209.542 236.771,206.806 
			231.743,199.036 224.499,207.077 222.677,210.075 221.136,215.483 216.062,224.296 214.579,231.011 213.364,234.503 
			211.567,236.009 211.157,237.804 210.821,238.206 210.817,238.212 213.997,239.249 216.177,241.153 217.63,244.616 
			218.192,248.757 220.638,251.724 227.122,253.628 229.47,255.577 231.228,258.305 232.315,260.473 232.339,262.634 
			233.013,264.468 235.339,264.882 238.317,266.829 238.327,267.591 240.63,267.673 250.435,269.057 252.728,268.689 
			255.437,266.093 259.566,258.239 261.579,253.628 265.07,251.958 270.591,252.765 273.876,252.608 277.021,248.431 
			278.657,247.39 283.557,251.03 285.45,250.534 286.88,247.565 289.434,245.421 293.048,245.487 295.773,244.446 300.083,240.286 
			302.845,238.728 305.253,238.272 310.069,235.739 313.442,235.608 316.843,235.062 322.907,232.663 325.456,232.487 
			328.021,233.073 335.306,233.747 335.313,233.747 336.837,232.657 337.505,231.55 339.366,230.577 341.024,228.542 
			341.735,225.726 343.374,223.036 347.497,220.435 348.776,217.071 349.013,214.792 351.542,212.144 		"/>
		
			<polygon id="Nantou_County" fill="#7F7F7F" stroke="#EFEFEF" stroke-width="0.25" stroke-linecap="round" stroke-linejoin="round" points="
			333.364,240.46 336.185,239.138 336.052,237.169 335.306,233.747 328.021,233.073 325.456,232.487 322.907,232.663 
			316.843,235.062 313.442,235.608 310.069,235.739 305.253,238.272 302.845,238.728 300.083,240.286 295.773,244.446 
			293.048,245.487 289.434,245.421 286.88,247.565 285.45,250.534 283.557,251.03 278.657,247.39 277.021,248.431 273.876,252.608 
			270.591,252.765 265.07,251.958 261.579,253.628 259.566,258.239 255.437,266.093 252.728,268.689 250.435,269.057 
			240.63,267.673 238.327,267.591 238.341,269.555 236.007,270.378 235.339,271.979 235.653,274.188 234.548,276.65 
			233.657,279.611 233.599,282.706 232.97,286.313 232.493,293.618 233.599,297.055 235.591,298.868 237.712,299.646 
			240.751,301.184 240.237,303.104 238.142,303.948 236.763,305.18 235.489,306.046 236.524,310.014 235.431,312.568 
			234.868,316.486 235.431,320.665 234.392,323.479 233.888,326.62 236.052,329.175 239.224,330.566 242.931,329.434 
			247.435,328.95 248.856,330.886 252.179,331.247 255.853,332.671 258.105,333.318 260.921,334.835 260.716,337.716 
			259.083,340.527 259.768,343.146 261.216,346.704 261.425,349.874 262.021,351.977 266.169,352.716 280.13,352.814 
			280.62,352.934 283.005,353.491 286.177,354.721 288.46,357.886 288.816,358.982 292.105,357.111 293.779,355.563 292.854,352.18 
			293.686,350.732 294.493,348.516 297.325,346.425 301.356,345.521 305.388,345.393 308.276,342.805 309.017,338.148 
			311.169,335.348 315.345,333.835 317.778,332.107 318.669,329.35 320.399,322.445 321.075,317.895 320.563,313.982 
			319.913,311.007 318.192,308.807 317.021,306.62 320.126,301.505 320.243,299.473 321.63,295.628 323.722,291.005 
			325.403,286.227 326.247,280.805 326.581,276.673 325.618,274.227 324.478,272.409 325.782,268.257 328.538,262.438 
			332.909,256.745 333.05,254.667 332.243,252.179 329.411,250.335 327.856,248.671 327.716,243.233 329.731,241.675 		"/>
		
			<polygon id="Miaoli_County" fill="#7F7F7F" stroke="#EFEFEF" stroke-width="0.25" stroke-linecap="round" stroke-linejoin="round" points="
			323.349,199.95 320.874,195.69 319.067,193.933 318.349,191.524 315.622,189.347 308.767,191.085 306.173,190.827 
			302.458,191.067 298.267,192.218 296.032,191.677 296.532,188.917 297.204,186.374 296.688,184.224 296.152,182.64 
			296.688,180.919 297.118,179.05 297.309,176.923 296.88,174.052 294.788,172.226 288.148,169.095 284.874,166.657 
			282.768,164.226 280.346,158.185 280.243,158.312 277.729,158.917 275.346,157.962 273.859,155.894 271.55,154.481 267.8,153.019 
			267.79,153.017 267.6,153.731 265.639,154.716 265.182,155.718 264.18,158.847 262.148,160.901 260.665,162.919 261.189,165.909 
			257.268,165.163 254.224,165.966 251.712,167.823 249.425,170.21 248.681,171.546 248.06,172.985 247.022,174.14 243.333,175.229 
			242.493,176.694 241.618,180.101 238.397,185.794 237.196,188.841 236.716,192.438 235.702,194.642 231.743,199.036 
			231.743,199.036 236.771,206.806 239.356,209.542 242.78,212.536 250.997,218.606 255.028,220.562 258.589,221.21 
			264.907,224.853 271.55,224.507 274.396,222.966 274.868,218.958 277.878,217.159 283.251,217.565 286.55,218.888 
			289.259,221.905 292.225,223.077 297.04,220.493 300.8,218.958 307.122,213.925 310.321,212.167 312.813,209.759 315.126,208.13 
			318.028,208.194 320.685,207.087 321.669,204.028 323.698,202.608 		"/>
		
			<polygon id="Changhua_County" fill="#7F7F7F" stroke="#EFEFEF" stroke-width="0.25" stroke-linecap="round" stroke-linejoin="round" points="
			237.712,299.646 235.591,298.868 233.599,297.055 232.493,293.618 232.97,286.313 233.599,282.706 233.657,279.611 
			234.548,276.65 235.653,274.188 235.339,271.979 236.007,270.378 238.341,269.555 238.327,267.591 238.317,266.829 
			235.339,264.882 233.013,264.468 232.339,262.634 232.315,260.473 231.228,258.305 229.47,255.577 227.122,253.628 
			220.638,251.724 218.192,248.757 217.63,244.616 216.177,241.153 213.997,239.249 210.817,238.212 204.636,245.442 
			203.165,246.843 202.673,248.358 202.349,253.866 201.706,255.526 198.905,257.725 198.263,259.232 197.923,260.843 
			197.071,261.639 195.882,262.212 194.528,263.126 192.882,264.768 191.411,267.32 188.263,276.109 186.021,280.339 
			184.55,284.564 183.431,286.12 179.567,289.823 178.913,291.443 178.024,295.313 177.622,296.089 177.624,296.091 181.767,298.48 
			193.759,297.055 197.872,297.271 201.509,298.266 207.833,300.686 218.583,301.895 225.216,305.18 228.39,305.136 234.927,306.43 
			235.489,306.046 236.763,305.18 238.142,303.948 240.237,303.104 240.751,301.184 		"/>
	</g>
</g>
<g id="Layer_2_1_" display="none">
	<g display="inline">
		
			<polygon id="Yunlin_County_1_" fill="#FFD522" stroke="#D64949" stroke-width="0.25" stroke-linecap="round" stroke-linejoin="round" points="
			402.039,298.928 397.535,299.411 393.828,300.544 390.655,299.152 388.492,296.598 388.996,293.456 390.035,290.643 
			389.472,286.464 390.035,282.546 391.127,279.991 390.092,276.023 389.53,276.407 382.994,275.113 379.819,275.157 
			373.187,271.872 362.437,270.663 356.112,268.243 352.476,267.249 348.362,267.032 336.371,268.458 332.228,266.068 
			332.226,266.066 331.765,266.948 328.722,269.282 328.299,270.111 327.74,271.598 324.377,276.04 323.69,277.671 322.418,282.462 
			321.737,287.934 319.36,292.113 317.836,297.462 317.444,304.157 317.562,313.124 315.062,315.93 315.578,315.898 
			315.658,315.839 321.41,315.195 325.944,317.749 329.233,317.784 331.397,316.07 332.315,313.387 333.444,311.77 336.351,311.314 
			340.144,308.21 342.574,306.917 344.649,304.848 353.541,299.704 357.457,298.635 364.332,297.344 368.097,297.146 
			370.972,299.671 373.701,302.874 380.578,305.396 382.592,305.105 387.127,303.813 389.707,305.622 391.011,307.79 
			394.449,307.436 400.853,306.141 402.985,305.43 402.985,303.555 403.194,300.835 403.459,300.863 		"/>
		
			<polygon id="Taichung_1_" fill="#FFD522" stroke="#D64949" stroke-width="0.25" stroke-linecap="round" stroke-linejoin="round" points="
			502.968,179.561 500.298,179.561 497.687,180.796 495.554,181.125 493.524,179.736 491.132,178.348 488.448,177.762 
			487.653,175.743 488.026,172.706 486.034,172.161 484.489,171.747 478.724,172.29 478.302,172.585 476.272,174.005 
			475.288,177.064 472.632,178.171 469.729,178.107 467.416,179.736 464.925,182.145 461.726,183.902 455.403,188.936 
			451.644,190.471 446.828,193.055 443.862,191.882 441.153,188.866 437.854,187.542 432.481,187.137 429.472,188.936 429,192.943 
			426.153,194.484 419.511,194.831 413.192,191.188 409.631,190.54 405.601,188.583 397.383,182.514 393.959,179.52 
			391.375,176.784 386.347,169.014 379.103,177.055 377.28,180.053 375.74,185.46 370.666,194.273 369.183,200.988 367.967,204.48 
			366.17,205.986 365.761,207.782 365.424,208.184 365.42,208.189 368.601,209.227 370.78,211.13 372.233,214.594 372.795,218.734 
			375.242,221.702 381.726,223.605 384.074,225.555 385.832,228.282 386.918,230.45 386.942,232.611 387.617,234.445 
			389.942,234.859 392.92,236.807 392.931,237.568 395.233,237.65 405.039,239.034 407.332,238.667 410.041,236.07 414.17,228.217 
			416.183,223.605 419.674,221.936 425.194,222.743 428.479,222.585 431.625,218.409 433.261,217.368 438.16,221.007 
			440.054,220.512 441.483,217.542 444.037,215.398 447.651,215.464 450.377,214.423 454.687,210.264 457.448,208.706 
			459.856,208.25 464.673,205.717 468.046,205.585 471.446,205.04 477.511,202.641 480.06,202.464 482.625,203.051 489.909,203.725 
			489.916,203.725 491.44,202.635 492.108,201.527 493.97,200.555 495.628,198.52 496.339,195.704 497.978,193.014 502.101,190.413 
			503.38,187.048 503.616,184.77 506.146,182.122 		"/>
		
			<polygon id="Nantou_County_1_" fill="#FFD522" stroke="#D64949" stroke-width="0.25" stroke-linecap="round" stroke-linejoin="round" points="
			487.968,210.438 490.788,209.116 490.655,207.146 489.909,203.725 482.625,203.051 480.06,202.464 477.511,202.641 
			471.446,205.04 468.046,205.585 464.673,205.717 459.856,208.25 457.448,208.706 454.687,210.264 450.377,214.423 
			447.651,215.464 444.037,215.398 441.483,217.542 440.054,220.512 438.16,221.007 433.261,217.368 431.625,218.409 
			428.479,222.585 425.194,222.743 419.674,221.936 416.183,223.605 414.17,228.217 410.041,236.07 407.332,238.667 
			405.039,239.034 395.233,237.65 392.931,237.568 392.944,239.532 390.61,240.355 389.942,241.956 390.256,244.165 
			389.151,246.628 388.261,249.589 388.203,252.684 387.574,256.29 387.097,263.596 388.203,267.032 390.194,268.846 
			392.315,269.624 395.354,271.161 394.84,273.081 392.746,273.926 391.367,275.157 390.092,276.023 391.127,279.991 
			390.035,282.546 389.472,286.464 390.035,290.643 388.996,293.456 388.492,296.598 390.655,299.152 393.828,300.544 
			397.535,299.411 402.039,298.928 403.459,300.863 406.783,301.225 410.457,302.648 412.709,303.296 415.524,304.813 
			415.319,307.693 413.687,310.505 414.371,313.124 415.819,316.682 416.028,319.852 416.625,321.954 420.772,322.693 
			434.733,322.792 435.224,322.911 437.608,323.469 440.78,324.698 443.063,327.863 443.42,328.96 446.709,327.089 448.383,325.54 
			447.457,322.157 448.289,320.71 449.097,318.493 451.929,316.402 455.96,315.499 459.991,315.37 462.88,312.782 463.62,308.126 
			465.772,305.325 469.948,303.813 472.382,302.085 473.272,299.327 475.003,292.423 475.679,287.872 475.166,283.96 
			474.517,280.984 472.796,278.784 471.625,276.598 474.729,271.482 474.847,269.45 476.233,265.605 478.325,260.982 
			480.007,256.204 480.851,250.782 481.185,246.65 480.222,244.204 479.081,242.387 480.386,238.234 483.142,232.415 
			487.513,226.723 487.653,224.645 486.847,222.157 484.015,220.313 482.46,218.648 482.319,213.21 484.335,211.652 		"/>
		
			<polygon id="Miaoli_County_1_" fill="#FFD522" stroke="#D64949" stroke-width="0.25" stroke-linecap="round" stroke-linejoin="round" points="
			477.952,169.928 475.478,165.667 473.671,163.911 472.952,161.501 470.226,159.325 463.37,161.063 460.776,160.805 
			457.062,161.044 452.87,162.195 450.636,161.654 451.136,158.895 451.808,156.352 451.291,154.202 450.756,152.618 
			451.291,150.896 451.722,149.027 451.912,146.9 451.483,144.029 449.392,142.204 442.752,139.073 439.478,136.635 
			437.371,134.204 434.949,128.163 434.847,128.29 432.332,128.895 429.949,127.939 428.463,125.872 426.153,124.458 
			422.403,122.997 422.394,122.995 422.203,123.708 420.242,124.693 419.785,125.695 418.783,128.825 416.752,130.878 
			415.269,132.896 415.793,135.887 411.871,135.141 408.828,135.943 406.315,137.801 404.028,140.188 403.285,141.523 
			402.664,142.962 401.625,144.118 397.937,145.207 397.097,146.671 396.222,150.079 393,155.771 391.799,158.818 391.319,162.416 
			390.306,164.62 386.347,169.014 386.347,169.014 391.375,176.784 393.959,179.52 397.383,182.514 405.601,188.583 409.631,190.54 
			413.192,191.188 419.511,194.831 426.153,194.484 429,192.943 429.472,188.936 432.481,187.137 437.854,187.542 441.153,188.866 
			443.862,191.882 446.828,193.055 451.644,190.471 455.403,188.936 461.726,183.902 464.925,182.145 467.416,179.736 
			469.729,178.107 472.632,178.171 475.288,177.064 476.272,174.005 478.302,172.585 		"/>
		
			<polygon id="Changhua_County_1_" fill="#FFD522" stroke="#D64949" stroke-width="0.25" stroke-linecap="round" stroke-linejoin="round" points="
			392.315,269.624 390.194,268.846 388.203,267.032 387.097,263.596 387.574,256.29 388.203,252.684 388.261,249.589 
			389.151,246.628 390.256,244.165 389.942,241.956 390.61,240.355 392.944,239.532 392.931,237.568 392.92,236.807 
			389.942,234.859 387.617,234.445 386.942,232.611 386.918,230.45 385.832,228.282 384.074,225.555 381.726,223.605 
			375.242,221.702 372.795,218.734 372.233,214.594 370.78,211.13 368.601,209.227 365.42,208.189 359.24,215.419 357.769,216.82 
			357.276,218.335 356.953,223.844 356.31,225.503 353.508,227.702 352.867,229.21 352.526,230.82 351.674,231.616 350.485,232.189 
			349.131,233.104 347.485,234.745 346.015,237.298 342.867,246.087 340.625,250.316 339.153,254.542 338.035,256.098 
			334.17,259.801 333.517,261.421 332.627,265.29 332.226,266.066 332.228,266.068 336.371,268.458 348.362,267.032 
			352.476,267.249 356.112,268.243 362.437,270.663 373.187,271.872 379.819,275.157 382.994,275.113 389.53,276.407 
			390.092,276.023 391.367,275.157 392.746,273.926 394.84,273.081 395.354,271.161 		"/>
	</g>
</g>
<g id="Layer_3">
	<g>
		<path id="Tainan" fill="#FFD522" stroke="#D64949" stroke-width="0.25" stroke-linecap="round" stroke-linejoin="round" d="
			M183.782,210.621l-0.479-0.66l-0.387,0.012l-0.15,0.707l0.922,2.254l1.225,1.111l0.34-0.67l0.07-0.527l-1.18-1.211
			L183.782,210.621z M190.889,179.094l0.385-4.367l-0.279-0.098l-0.34,5.754l0.059,0.059L190.889,179.094z M189.733,186.918
			l-0.092-0.984l-0.293,0.039l-1.973,5.363h0.035L189.733,186.918z M267.857,184.816l-2.017-0.617l-2.729,0.355l-2.932,1.324
			l-2.049-0.031l-2.457-1.906l-0.861-2.484l0.949-7.742l-0.533-4.102l-5.396-5.52l-0.947-2.777l-1.127-2.293l-2.195-1.324
			l-3.91-1.293l-4.627,0.258l-8.299,1.553l-4.24,1.904l-3.348,2.488l-2.549,2.615l-3.619,2.811l-3.141,1.936l-1.365,2.709
			l-3.406,1.52l-3.943-1.004l-4.832-0.707l-2.861-1.082l-0.865,2.219l2.037,1.359l-1.4,0.355l-0.865,0.941l-1.844,4.891
			l-0.256,1.227l0.264,1.25l-1.24,1.438l-0.758,2.027l-0.508,1.607l0.748,1.756l0.443,2.137l-0.725,1.383l-1.48,0.496l-1.367,0.773
			l-0.373,2.186l1.529,1.748l2.322,2.008l0.42,1.434l-4.271,0.037v1.066l5.102,1.275l0.781,0.857l-0.572,1.65l-1.68,0.539
			l-2.031,0.271l-1.6,0.83l-0.641,1.262l-0.361,1.867l0.396,1.889l1.586,1.369l1.494-0.395l1.016-1.578l1.25-1.121l2.215,0.963
			l0.445,1.338l-0.27,3.824l0.713,1.215l1.809,0.078l0.969-1.465l0.57-1.844l0.666-1.016l3.453,0.494l0.586,2.859l-1.447,3.311
			l-2.592,1.844l2.123,2.141l0.994,1.977l0.523,3.422v0.004l3.363-2.016l0.074,0.24l2.164,4.732l2.607,1.32l8.537,1.223l4.506-0.484
			l4.598,0.547l2.281-0.805l1.926-1.414l3.527-1.416l3.439-2.414l1.303-2.994l1.633-2.865l2.873-3.832l3.352-3.51l3.527-2.934
			l4.061-3.961l3.526-4.543l5.455-9.281l5.689-8.256l1.246-3.607L267.857,184.816z M186.209,194.855l-0.117-0.076l-2.17,7.283
			l0.033,0.076l1.588-3.814l0.129-0.652l0.746-2.799L186.209,194.855z"/>
		
			<path id="Pingtung_County" fill="#FFD522" stroke="#D64949" stroke-width="0.25" stroke-linecap="round" stroke-linejoin="round" d="
			M306.273,250.004l-2.902-0.707l-0.416-2.637l-1.867-3.609l-0.029,0.008l-2.848-0.516l-2.34,0.129l-4.656,3.668l-3.199-3.023
			l-4.121-4.828l-3.942,0.965l-3.615,3.219l-7.144-3.605l-5.131,2.447l-3.469,3.857l-4.354,1.545l-9.725-0.576l-0.949,2.637
			l-0.711,3.922l-1.422,4.309l0.297,3.824l-0.059,5.174l-3.086,11.566l-0.088,3.885l1.512,4.078l0.209,4.494l-4.439,11.174
			l0.203,0.086l1.213,0.77l2.613,2.293l2.475,1.707l5.461,2.613l2.395,1.551l0.348,0.727l0.525,2.031l0.594,0.418l0.598,0.195
			l1.773,1.021l4.435,3.504l1.096,1.553l2.382,5.375l3.022,3.746l0.896,1.539l10.855,28.168l-0.303,1.643l-1.332,1.928l-0.314,1.72
			v5.854l-0.211,1.795l-0.035,1.097l0.246,1.34l3.012,5.021l-0.688,3.819l0.113,1.276l2.01,1.695l1.855,0.465l1.26-1.293
			l0.176-3.602l4.318,1.057l4.295,1.937l3.688,2.81l2.473,3.707l0.177-3.226l-0.771-4.981l-0.069-4.568l2.17-2.006l1.832-1.349
			l1.391-3.256l0.85-3.996l-0.465-28.159l-2.449,0.182l-5.571-2.563l-2.49-2.657l-1.779-3.236l-0.295-3.301l0.059-3.107l-1.69-2.438
			l-1.865-0.896l-1.481-2.115l0.295-2.502l1.125-2.115l2.906-1.731l1.362-2.082l-2.549-3.047l-1.422-2.728v-2.918l-0.563-3.883
			l-1.097-3.305l-0.685-3.563l0.445-8.027l1.662-4.078l2.016-3.598l1.304-3.599l2.935-2.44l4.18-0.898l2.606-1.48l5.31-2.246
			l1.096-2.701l0.088-2.825l1.512-7.523L306.273,250.004z M232.329,321.727l-0.113-0.303h-0.105l-0.176-0.26l-0.361,0.26h-1.121
			l-1.518,1.924l0.012,0.045l-0.748,1.443l0.445,1.686l0.012-0.021l0.012,0.115l1.645-1.429l0.91-0.723l0.188-0.172l1.471-0.996
			l-0.082-0.27l0.258-0.242L232.329,321.727z"/>
		
			<polygon id="Kaohsiung" fill="#FFD522" stroke="#D64949" stroke-width="0.25" stroke-linecap="round" stroke-linejoin="round" points="
			329.041,172.938 327.529,168.775 324.061,165.965 321.037,163.996 320.504,161.832 321.244,160.09 324.297,158.732 325.93,156.02 
			324.893,152.85 324.535,151.754 322.252,148.586 319.08,147.359 316.695,146.801 306.602,151.947 302.006,155.633 
			300.049,159.348 297.736,162.094 293.559,164.449 289.199,167.773 286.771,170.68 280.07,174.682 276.869,175.004 
			273.133,174.617 271.176,176.555 271.088,179.23 271.889,181.715 272.422,185.332 272.422,185.336 271.176,188.943 
			265.486,197.199 260.031,206.48 256.504,211.023 252.444,214.984 248.917,217.918 245.565,221.428 242.692,225.26 
			241.059,228.125 239.756,231.119 236.317,233.533 232.79,234.949 230.864,236.363 228.583,237.168 223.985,236.621 
			219.479,237.105 210.942,235.883 208.334,234.563 206.17,229.83 206.096,229.59 202.733,231.605 203.891,239.041 204.309,240.094 
			205.85,242.766 206.165,244.031 206.887,244.738 207.588,245.262 207.893,245.955 207.706,247.268 206.887,249.236 
			206.829,250.83 207.391,253.301 209.911,258.855 212.583,263.031 214.042,266.137 214.872,269.287 214.252,271.525 
			213.075,274.035 213.959,276.611 215.852,278.932 220.778,283.48 223.672,286.781 224.592,288.527 224.594,288.527 
			225.749,290.719 226.567,294.717 219.612,286.314 226.215,295.684 233.334,301.25 234.5,301.219 235.504,300.846 236.381,300.793 
			237.778,301.402 242.217,290.229 242.008,285.734 240.497,281.656 240.584,277.771 243.67,266.205 243.729,261.031 
			243.432,257.207 244.854,252.898 245.565,248.977 246.514,246.34 256.239,246.916 260.594,245.371 264.063,241.514 
			269.193,239.066 276.336,242.672 279.951,239.453 283.895,238.488 288.016,243.316 291.215,246.34 295.871,242.672 
			298.211,242.543 301.059,243.059 301.088,243.051 303.191,242.801 302.51,240.098 299.16,236.621 297.529,234.113 
			296.791,229.668 298.064,224.357 302.717,220.396 305.061,217.209 305.09,211.09 306.748,203.902 305.563,198.488 
			306.037,194.746 310.068,192.555 311.521,189.879 310.305,186.621 310.779,183.492 315.02,180.75 317.184,178.619 
			320.711,176.393 329.234,174.305 		"/>
		
			<path id="Chiayi_County" fill="#FFD522" stroke="#D64949" stroke-width="0.25" stroke-linecap="round" stroke-linejoin="round" d="
			M195.987,163.926l0.27-1.004l-0.49,0.205l-1.096,2.051l-0.117,0.994l0.525-0.619L195.987,163.926z M316.205,146.684l-13.963-0.102
			l-4.148-0.74l-0.594-2.1l-0.209-3.172l-1.449-3.555l-0.684-2.621l1.633-2.813l0.205-2.879l-2.816-1.518l-2.252-0.646l-3.674-1.426
			l-3.322-0.359l-0.268-0.029l-0.207,2.719v1.875l-2.133,0.713l-6.404,1.293l-3.438,0.355l-1.308-2.168l-2.578-1.811l-4.534,1.295
			l-2.017,0.289l-6.875-2.521l-2.729-3.201l-2.877-2.527l-3.764,0.197l-6.877,1.291l-3.914,1.07l-8.891,5.145l-2.078,2.068
			l-2.428,1.295l-3.795,3.102l-2.906,0.455l-1.127,1.617l-0.918,2.684l-2.164,1.713l-3.291-0.035l-4.535-2.551l-5.75,0.645
			l-0.08,0.059l-0.516,0.029l0.109,4.758l4.664-0.293l-2.215,2.873l-0.49,1.381l-0.945,1.139l-0.221,0.936l1.656,0.814v1.07
			l-1.049,1.982l2.275,4.395l1.998,5.693l-2.928-0.023l-2.01,0.141l-1.346,3.074l0.023,1.801l1.342,0.063l1.012,0.25l1.207-0.873
			l0.455,1.729l-0.77-0.252l-1.777,0.791l-2.102,0.141l2.861,1.082l4.832,0.707l3.943,1.004l3.406-1.52l1.365-2.709l3.141-1.936
			l3.619-2.811l2.549-2.615l3.348-2.488l4.24-1.904l8.299-1.553l4.627-0.258l3.91,1.293l2.195,1.324l1.127,2.293l0.947,2.777
			l5.396,5.52l0.533,4.102l-0.949,7.742l0.861,2.484l2.457,1.906l2.049,0.031l2.933-1.324l2.729-0.355l2.016,0.617l4.564,0.52
			v-0.004l-0.533-3.617l-0.801-2.484l0.088-2.676l1.957-1.938l3.736,0.387l3.201-0.322l6.701-4.002l2.428-2.906l4.358-3.324
			l4.178-2.355l2.313-2.746l1.957-3.715l4.596-3.686l10.094-5.146L316.205,146.684z M250.071,149.686l-2.461,0.326l-3.703,1.484
			l-4.002-0.906l-3.826-2.453l-3.318-1.324l-0.475-3.07l2.045-2.234l5.07-0.871l4.299-0.387l3.053,1.162l2.223,1.195l1.334,2.168
			l1.395,3.715L250.071,149.686z M195.393,169.09l-0.35-0.293l-0.572,0.832l-0.514,1.266l-1.283,1.689l0.197,0.596l0.969-0.725
			l0.83-1.729l0.781-1.049L195.393,169.09z M197.706,160.654l0.045-0.014l0.246-0.598l-0.035-1.57l-0.256-0.23V160.654z
			 M197.809,155.146l0.279,1.102l0.07-0.166l0.047,0.189l0.281-0.914l-0.049-0.014l0.012-0.02L197.809,155.146z M196.805,151.625
			l0.141,0.229l0.561,0.928l0.279-0.752l-0.115-0.045l0.035-0.131L196.805,151.625z"/>
		
			<polygon id="Chiayi_City" fill="#FFD522" stroke="#D64949" stroke-width="0.25" stroke-linecap="round" stroke-linejoin="round" points="
			250.309,144.775 248.975,142.607 246.752,141.412 243.7,140.25 239.401,140.637 234.331,141.508 232.286,143.742 232.76,146.813 
			236.079,148.137 239.905,150.59 243.907,151.496 247.61,150.012 250.071,149.686 251.704,148.49 		"/>
	</g>
</g>
<g id="Layer_3_1_" display="none">
	<g display="inline">
		<path id="Tainan_1_" fill="#7F7F7F" stroke="#EFEFEF" stroke-width="0.25" stroke-linecap="round" stroke-linejoin="round" d="
			M183.782,210.621l-0.479-0.66l-0.387,0.012l-0.15,0.707l0.922,2.254l1.225,1.111l0.34-0.67l0.07-0.527l-1.18-1.211
			L183.782,210.621z M190.889,179.094l0.385-4.367l-0.279-0.098l-0.34,5.754l0.059,0.059L190.889,179.094z M189.733,186.918
			l-0.092-0.984l-0.293,0.039l-1.973,5.363h0.035L189.733,186.918z M267.857,184.816l-2.017-0.617l-2.729,0.355l-2.932,1.324
			l-2.049-0.031l-2.457-1.906l-0.861-2.484l0.949-7.742l-0.533-4.102l-5.396-5.52l-0.947-2.777l-1.127-2.293l-2.195-1.324
			l-3.91-1.293l-4.627,0.258l-8.299,1.553l-4.24,1.904l-3.348,2.488l-2.549,2.615l-3.619,2.811l-3.141,1.936l-1.365,2.709
			l-3.406,1.52l-3.943-1.004l-4.832-0.707l-2.861-1.082l-0.865,2.219l2.037,1.359l-1.4,0.355l-0.865,0.941l-1.844,4.891
			l-0.256,1.227l0.264,1.25l-1.24,1.438l-0.758,2.027l-0.508,1.607l0.748,1.756l0.443,2.137l-0.725,1.383l-1.48,0.496l-1.367,0.773
			l-0.373,2.186l1.529,1.748l2.322,2.008l0.42,1.434l-4.271,0.037v1.066l5.102,1.275l0.781,0.857l-0.572,1.65l-1.68,0.539
			l-2.031,0.271l-1.6,0.83l-0.641,1.262l-0.361,1.867l0.396,1.889l1.586,1.369l1.494-0.395l1.016-1.578l1.25-1.121l2.215,0.963
			l0.445,1.338l-0.27,3.824l0.713,1.215l1.809,0.078l0.969-1.465l0.57-1.844l0.666-1.016l3.453,0.494l0.586,2.859l-1.447,3.311
			l-2.592,1.844l2.123,2.141l0.994,1.977l0.523,3.422v0.004l3.363-2.016l0.074,0.24l2.164,4.732l2.607,1.32l8.537,1.223l4.506-0.484
			l4.598,0.547l2.281-0.805l1.926-1.414l3.527-1.416l3.439-2.414l1.303-2.994l1.633-2.865l2.873-3.832l3.352-3.51l3.527-2.934
			l4.061-3.961l3.526-4.543l5.455-9.281l5.689-8.256l1.246-3.607L267.857,184.816z M186.209,194.855l-0.117-0.076l-2.17,7.283
			l0.033,0.076l1.588-3.814l0.129-0.652l0.746-2.799L186.209,194.855z"/>
		
			<path id="Pingtung_County_1_" fill="#7F7F7F" stroke="#EFEFEF" stroke-width="0.25" stroke-linecap="round" stroke-linejoin="round" d="
			M306.273,250.004l-2.902-0.707l-0.416-2.637l-1.867-3.609l-0.029,0.008l-2.848-0.516l-2.34,0.129l-4.656,3.668l-3.199-3.023
			l-4.121-4.828l-3.942,0.965l-3.615,3.219l-7.144-3.605l-5.131,2.447l-3.469,3.857l-4.354,1.545l-9.725-0.576l-0.949,2.637
			l-0.711,3.922l-1.422,4.309l0.297,3.824l-0.059,5.174l-3.086,11.566l-0.088,3.885l1.512,4.078l0.209,4.494l-4.439,11.174
			l0.203,0.086l1.213,0.77l2.613,2.293l2.475,1.707l5.461,2.613l2.395,1.551l0.348,0.727l0.525,2.031l0.594,0.418l0.598,0.195
			l1.773,1.021l4.435,3.504l1.096,1.553l2.382,5.375l3.022,3.746l0.896,1.539l10.855,28.168l-0.303,1.643l-1.332,1.928l-0.314,1.72
			v5.854l-0.211,1.795l-0.035,1.097l0.246,1.34l3.012,5.021l-0.688,3.819l0.113,1.276l2.01,1.695l1.855,0.465l1.26-1.293
			l0.176-3.602l4.318,1.057l4.295,1.937l3.688,2.81l2.473,3.707l0.177-3.226l-0.771-4.981l-0.069-4.568l2.17-2.006l1.832-1.349
			l1.391-3.256l0.85-3.996l-0.465-28.159l-2.449,0.182l-5.571-2.563l-2.49-2.657l-1.779-3.236l-0.295-3.301l0.059-3.107l-1.69-2.438
			l-1.865-0.896l-1.481-2.115l0.295-2.502l1.125-2.115l2.906-1.731l1.362-2.082l-2.549-3.047l-1.422-2.728v-2.918l-0.563-3.883
			l-1.097-3.305l-0.685-3.563l0.445-8.027l1.662-4.078l2.016-3.598l1.304-3.599l2.935-2.44l4.18-0.898l2.606-1.48l5.31-2.246
			l1.096-2.701l0.088-2.825l1.512-7.523L306.273,250.004z M232.329,321.727l-0.113-0.303h-0.105l-0.176-0.26l-0.361,0.26h-1.121
			l-1.518,1.924l0.012,0.045l-0.748,1.443l0.445,1.686l0.012-0.021l0.012,0.115l1.645-1.429l0.91-0.723l0.188-0.172l1.471-0.996
			l-0.082-0.27l0.258-0.242L232.329,321.727z"/>
		
			<polygon id="Kaohsiung_1_" fill="#7F7F7F" stroke="#EFEFEF" stroke-width="0.25" stroke-linecap="round" stroke-linejoin="round" points="
			329.041,172.938 327.529,168.775 324.061,165.965 321.037,163.996 320.504,161.832 321.244,160.09 324.297,158.732 325.93,156.02 
			324.893,152.85 324.535,151.754 322.252,148.586 319.08,147.359 316.695,146.801 306.602,151.947 302.006,155.633 
			300.049,159.348 297.736,162.094 293.559,164.449 289.199,167.773 286.771,170.68 280.07,174.682 276.869,175.004 
			273.133,174.617 271.176,176.555 271.088,179.23 271.889,181.715 272.422,185.332 272.422,185.336 271.176,188.943 
			265.486,197.199 260.031,206.48 256.504,211.023 252.444,214.984 248.917,217.918 245.565,221.428 242.692,225.26 
			241.059,228.125 239.756,231.119 236.317,233.533 232.79,234.949 230.864,236.363 228.583,237.168 223.985,236.621 
			219.479,237.105 210.942,235.883 208.334,234.563 206.17,229.83 206.096,229.59 202.733,231.605 203.891,239.041 204.309,240.094 
			205.85,242.766 206.165,244.031 206.887,244.738 207.588,245.262 207.893,245.955 207.706,247.268 206.887,249.236 
			206.829,250.83 207.391,253.301 209.911,258.855 212.583,263.031 214.042,266.137 214.872,269.287 214.252,271.525 
			213.075,274.035 213.959,276.611 215.852,278.932 220.778,283.48 223.672,286.781 224.592,288.527 224.594,288.527 
			225.749,290.719 226.567,294.717 219.612,286.314 226.215,295.684 233.334,301.25 234.5,301.219 235.504,300.846 236.381,300.793 
			237.778,301.402 242.217,290.229 242.008,285.734 240.497,281.656 240.584,277.771 243.67,266.205 243.729,261.031 
			243.432,257.207 244.854,252.898 245.565,248.977 246.514,246.34 256.239,246.916 260.594,245.371 264.063,241.514 
			269.193,239.066 276.336,242.672 279.951,239.453 283.895,238.488 288.016,243.316 291.215,246.34 295.871,242.672 
			298.211,242.543 301.059,243.059 301.088,243.051 303.191,242.801 302.51,240.098 299.16,236.621 297.529,234.113 
			296.791,229.668 298.064,224.357 302.717,220.396 305.061,217.209 305.09,211.09 306.748,203.902 305.563,198.488 
			306.037,194.746 310.068,192.555 311.521,189.879 310.305,186.621 310.779,183.492 315.02,180.75 317.184,178.619 
			320.711,176.393 329.234,174.305 		"/>
		
			<path id="Chiayi_County_1_" fill="#7F7F7F" stroke="#EFEFEF" stroke-width="0.25" stroke-linecap="round" stroke-linejoin="round" d="
			M195.987,163.926l0.27-1.004l-0.49,0.205l-1.096,2.051l-0.117,0.994l0.525-0.619L195.987,163.926z M316.205,146.684l-13.963-0.102
			l-4.148-0.74l-0.594-2.1l-0.209-3.172l-1.449-3.555l-0.684-2.621l1.633-2.813l0.205-2.879l-2.816-1.518l-2.252-0.646l-3.674-1.426
			l-3.322-0.359l-0.268-0.029l-0.207,2.719v1.875l-2.133,0.713l-6.404,1.293l-3.438,0.355l-1.308-2.168l-2.578-1.811l-4.534,1.295
			l-2.017,0.289l-6.875-2.521l-2.729-3.201l-2.877-2.527l-3.764,0.197l-6.877,1.291l-3.914,1.07l-8.891,5.145l-2.078,2.068
			l-2.428,1.295l-3.795,3.102l-2.906,0.455l-1.127,1.617l-0.918,2.684l-2.164,1.713l-3.291-0.035l-4.535-2.551l-5.75,0.645
			l-0.08,0.059l-0.516,0.029l0.109,4.758l4.664-0.293l-2.215,2.873l-0.49,1.381l-0.945,1.139l-0.221,0.936l1.656,0.814v1.07
			l-1.049,1.982l2.275,4.395l1.998,5.693l-2.928-0.023l-2.01,0.141l-1.346,3.074l0.023,1.801l1.342,0.063l1.012,0.25l1.207-0.873
			l0.455,1.729l-0.77-0.252l-1.777,0.791l-2.102,0.141l2.861,1.082l4.832,0.707l3.943,1.004l3.406-1.52l1.365-2.709l3.141-1.936
			l3.619-2.811l2.549-2.615l3.348-2.488l4.24-1.904l8.299-1.553l4.627-0.258l3.91,1.293l2.195,1.324l1.127,2.293l0.947,2.777
			l5.396,5.52l0.533,4.102l-0.949,7.742l0.861,2.484l2.457,1.906l2.049,0.031l2.933-1.324l2.729-0.355l2.016,0.617l4.564,0.52
			v-0.004l-0.533-3.617l-0.801-2.484l0.088-2.676l1.957-1.938l3.736,0.387l3.201-0.322l6.701-4.002l2.428-2.906l4.358-3.324
			l4.178-2.355l2.313-2.746l1.957-3.715l4.596-3.686l10.094-5.146L316.205,146.684z M250.071,149.686l-2.461,0.326l-3.703,1.484
			l-4.002-0.906l-3.826-2.453l-3.318-1.324l-0.475-3.07l2.045-2.234l5.07-0.871l4.299-0.387l3.053,1.162l2.223,1.195l1.334,2.168
			l1.395,3.715L250.071,149.686z M195.393,169.09l-0.35-0.293l-0.572,0.832l-0.514,1.266l-1.283,1.689l0.197,0.596l0.969-0.725
			l0.83-1.729l0.781-1.049L195.393,169.09z M197.706,160.654l0.045-0.014l0.246-0.598l-0.035-1.57l-0.256-0.23V160.654z
			 M197.809,155.146l0.279,1.102l0.07-0.166l0.047,0.189l0.281-0.914l-0.049-0.014l0.012-0.02L197.809,155.146z M196.805,151.625
			l0.141,0.229l0.561,0.928l0.279-0.752l-0.115-0.045l0.035-0.131L196.805,151.625z"/>
		
			<polygon id="Chiayi_City_1_" fill="#7F7F7F" stroke="#EFEFEF" stroke-width="0.25" stroke-linecap="round" stroke-linejoin="round" points="
			250.309,144.775 248.975,142.607 246.752,141.412 243.7,140.25 239.401,140.637 234.331,141.508 232.286,143.742 232.76,146.813 
			236.079,148.137 239.905,150.59 243.907,151.496 247.61,150.012 250.071,149.686 251.704,148.49 		"/>
	</g>
</g>
<g id="Layer_4" display="none">
	<g display="inline">
		
			<path id="Taitung_County" fill="#FFD522" stroke="#D64949" stroke-width="0.25" stroke-linecap="round" stroke-linejoin="round" d="
			M289.727,343.316l0.035-0.594l-0.199-0.888l0.199-0.907l0.49-0.873l0.432-2.15l-0.396-1.049l-0.606-0.355l-5.486,0.406
			l-0.303,0.328l0.76,2.301l1.537,2.676l1.438,0.574l0.244,0.305l0.487,0.111h0.945L289.727,343.316z M287.346,218.566l-1.908-0.551
			l-5.867,2.842l-2.104,2.975l0.918,3.746l0.326,3.744l-1.985,3.744l-1.836,2.842l-1.484,3.615l-1.303,4.582l-2.017,4.195
			l-2.606,7.226l-1.72,3.287l0.06,3.676l-0.504,3.385l-3.527,2.029l-4.477-0.646l-6.407-5.252l-5.006-8.74l-3.084-0.836
			l-3.441-0.484l-2.723-2.613l-3.352-1.551l-4.24-1.547l-2.756-4.42l-0.607-4.025l-8.521,2.09l-3.527,2.227l-2.166,2.129
			l-4.24,2.742l-0.473,3.129l1.215,3.258l-1.453,2.678l-4.031,2.19l-0.475,3.74l1.186,5.414l-1.656,7.188l-0.031,6.12l-2.344,3.188
			l-4.652,3.962l-1.273,5.311l0.738,4.443l1.633,2.508l3.348,3.479l0.684,2.701l-2.105,0.252l1.867,3.609l0.416,2.637l2.904,0.705
			l3.023,1.996l-1.512,7.522l-0.09,2.828l-1.094,2.699l-5.309,2.248l-2.609,1.479l-4.18,0.899l-2.934,2.438l-1.303,3.599
			l-2.016,3.598l-1.662,4.078l-0.445,8.026l0.684,3.563l1.096,3.306l0.564,3.883v2.918l1.422,2.727l2.549,3.047l-1.361,2.084
			l-2.906,1.732l-1.125,2.113l-0.297,2.504l1.482,2.113l1.865,0.897l1.691,2.438l-0.059,3.106l0.297,3.299l1.777,3.238l2.49,2.655
			l5.572,2.563l2.449-0.18l-0.141-7.99l0.91-8.789l0.748-3.104l5.203-9.118l2.615-9.14l1.027-6.699l1.773-3.262l4.391-5.477
			l1.422-2.75l2.848-7.32l1.156-1.5l1.434-0.758l5.906-6.477l8.775-5.859l2.568-2.439l2.59-3.293l1.168-1.916l0.676-1.739
			l0.094-1.525l-0.348-3.42l0.254-1.438l1.799-2.074l7.572-6.424l0.701-1.482l5.602-8.078l1.158-3.213l1.607-7.125l2.614-4.604
			l0.91-3.166l0.573-1.236l1.152-1.199l2.613-1.902l1.135-1.16l2.648-5.434l0.537-5.266l-0.07-5.535l0.793-6.219l1.131-3.352
			l1.439-2.664l3.848-5.133l1.227-2.656L287.346,218.566z"/>
		
			<polygon id="Hualien_County" fill="#FFD522" stroke="#D64949" stroke-width="0.25" stroke-linecap="round" stroke-linejoin="round" points="
			329.289,80.912 328.902,80.105 328.414,79.299 328.051,78.889 328.051,78.887 327.459,78.871 321.389,77.961 311.297,71.934 
			309.219,72.408 307.953,75.662 305.264,78.135 301.699,78.115 297.201,76.398 288.98,74.316 285.438,72.602 284.076,71.498 
			281.547,74.146 281.311,76.424 280.031,79.787 275.908,82.389 274.27,85.076 273.559,87.895 271.9,89.93 270.039,90.904 
			269.371,92.01 267.846,93.1 267.84,93.1 268.586,96.52 268.719,98.49 265.898,99.813 262.266,101.025 260.25,102.584 
			260.391,108.023 261.945,109.688 264.777,111.531 265.584,114.02 265.443,116.098 261.072,121.789 258.316,127.609 
			257.012,131.762 258.152,133.578 259.115,136.025 258.781,140.156 257.938,145.578 256.256,150.357 254.164,154.98 
			252.777,158.824 252.66,160.857 249.555,165.973 250.727,168.158 252.447,170.359 253.098,173.336 253.609,177.246 
			252.934,181.799 251.203,188.701 250.313,191.461 247.879,193.188 243.703,194.699 241.551,197.502 240.811,202.156 
			237.922,204.744 233.891,204.873 229.859,205.777 227.027,207.867 226.219,210.086 225.389,211.531 226.314,214.914 
			224.641,216.465 221.352,218.336 222.389,221.504 220.758,224.219 217.703,225.574 216.963,227.316 217.496,229.482 
			220.52,231.451 223.988,234.262 225.5,238.424 225.693,239.789 226.301,243.814 229.057,248.234 233.297,249.781 236.648,251.332 
			239.371,253.945 242.813,254.43 245.896,255.266 250.902,264.006 257.309,269.258 261.785,269.902 265.313,267.873 
			265.816,264.488 265.758,260.813 267.477,257.525 270.084,250.301 272.1,246.105 273.402,241.523 274.887,237.908 
			276.723,235.066 278.709,231.322 278.383,227.578 277.465,223.832 279.57,220.857 285.438,218.016 287.346,218.566 
			287.346,218.566 293.367,183.605 295.994,178.262 300.371,156.438 303.836,147.121 305.586,138.25 305.797,134.748 
			306.215,132.848 308.211,129.723 308.809,127.75 308.773,125.984 308.316,125.238 307.605,124.664 306.775,123.453 
			305.797,120.598 305.691,118.031 306.496,115.633 310.547,109.699 312.109,103.049 313.641,99.762 315.004,98.443 318.646,95.691 
			319.102,94.873 318.717,93.723 319.523,92.646 322.043,90.629 325.461,85.9 328.637,82.801 329.395,81.496 		"/>
	</g>
</g>
<g id="Layer_4_1_" display="none">
	<g display="inline">
		
			<path id="Taitung_County_1_" fill="#7F7F7F" stroke="#EFEFEF" stroke-width="0.25" stroke-linecap="round" stroke-linejoin="round" d="
			M289.727,343.316l0.035-0.594l-0.199-0.888l0.199-0.907l0.49-0.873l0.432-2.15l-0.396-1.049l-0.606-0.355l-5.486,0.406
			l-0.303,0.328l0.76,2.301l1.537,2.676l1.438,0.574l0.244,0.305l0.487,0.111h0.945L289.727,343.316z M287.346,218.566l-1.908-0.551
			l-5.867,2.842l-2.104,2.975l0.918,3.746l0.326,3.744l-1.985,3.744l-1.836,2.842l-1.484,3.615l-1.303,4.582l-2.017,4.195
			l-2.606,7.226l-1.72,3.287l0.06,3.676l-0.504,3.385l-3.527,2.029l-4.477-0.646l-6.407-5.252l-5.006-8.74l-3.084-0.836
			l-3.441-0.484l-2.723-2.613l-3.352-1.551l-4.24-1.547l-2.756-4.42l-0.607-4.025l-8.521,2.09l-3.527,2.227l-2.166,2.129
			l-4.24,2.742l-0.473,3.129l1.215,3.258l-1.453,2.678l-4.031,2.19l-0.475,3.74l1.186,5.414l-1.656,7.188l-0.031,6.12l-2.344,3.188
			l-4.652,3.962l-1.273,5.311l0.738,4.443l1.633,2.508l3.348,3.479l0.684,2.701l-2.105,0.252l1.867,3.609l0.416,2.637l2.904,0.705
			l3.023,1.996l-1.512,7.522l-0.09,2.828l-1.094,2.699l-5.309,2.248l-2.609,1.479l-4.18,0.899l-2.934,2.438l-1.303,3.599
			l-2.016,3.598l-1.662,4.078l-0.445,8.026l0.684,3.563l1.096,3.306l0.564,3.883v2.918l1.422,2.727l2.549,3.047l-1.361,2.084
			l-2.906,1.732l-1.125,2.113l-0.297,2.504l1.482,2.113l1.865,0.897l1.691,2.438l-0.059,3.106l0.297,3.299l1.777,3.238l2.49,2.655
			l5.572,2.563l2.449-0.18l-0.141-7.99l0.91-8.789l0.748-3.104l5.203-9.118l2.615-9.14l1.027-6.699l1.773-3.262l4.391-5.477
			l1.422-2.75l2.848-7.32l1.156-1.5l1.434-0.758l5.906-6.477l8.775-5.859l2.568-2.439l2.59-3.293l1.168-1.916l0.676-1.739
			l0.094-1.525l-0.348-3.42l0.254-1.438l1.799-2.074l7.572-6.424l0.701-1.482l5.602-8.078l1.158-3.213l1.607-7.125l2.614-4.604
			l0.91-3.166l0.573-1.236l1.152-1.199l2.613-1.902l1.135-1.16l2.648-5.434l0.537-5.266l-0.07-5.535l0.793-6.219l1.131-3.352
			l1.439-2.664l3.848-5.133l1.227-2.656L287.346,218.566z"/>
		
			<polygon id="Hualien_County_1_" fill="#7F7F7F" stroke="#EFEFEF" stroke-width="0.25" stroke-linecap="round" stroke-linejoin="round" points="
			329.289,80.912 328.902,80.105 328.414,79.299 328.051,78.889 328.051,78.887 327.459,78.871 321.389,77.961 311.297,71.934 
			309.219,72.408 307.953,75.662 305.264,78.135 301.699,78.115 297.201,76.398 288.98,74.316 285.438,72.602 284.076,71.498 
			281.547,74.146 281.311,76.424 280.031,79.787 275.908,82.389 274.27,85.076 273.559,87.895 271.9,89.93 270.039,90.904 
			269.371,92.01 267.846,93.1 267.84,93.1 268.586,96.52 268.719,98.49 265.898,99.813 262.266,101.025 260.25,102.584 
			260.391,108.023 261.945,109.688 264.777,111.531 265.584,114.02 265.443,116.098 261.072,121.789 258.316,127.609 
			257.012,131.762 258.152,133.578 259.115,136.025 258.781,140.156 257.938,145.578 256.256,150.357 254.164,154.98 
			252.777,158.824 252.66,160.857 249.555,165.973 250.727,168.158 252.447,170.359 253.098,173.336 253.609,177.246 
			252.934,181.799 251.203,188.701 250.313,191.461 247.879,193.188 243.703,194.699 241.551,197.502 240.811,202.156 
			237.922,204.744 233.891,204.873 229.859,205.777 227.027,207.867 226.219,210.086 225.389,211.531 226.314,214.914 
			224.641,216.465 221.352,218.336 222.389,221.504 220.758,224.219 217.703,225.574 216.963,227.316 217.496,229.482 
			220.52,231.451 223.988,234.262 225.5,238.424 225.693,239.789 226.301,243.814 229.057,248.234 233.297,249.781 236.648,251.332 
			239.371,253.945 242.813,254.43 245.896,255.266 250.902,264.006 257.309,269.258 261.785,269.902 265.313,267.873 
			265.816,264.488 265.758,260.813 267.477,257.525 270.084,250.301 272.1,246.105 273.402,241.523 274.887,237.908 
			276.723,235.066 278.709,231.322 278.383,227.578 277.465,223.832 279.57,220.857 285.438,218.016 287.346,218.566 
			287.346,218.566 293.367,183.605 295.994,178.262 300.371,156.438 303.836,147.121 305.586,138.25 305.797,134.748 
			306.215,132.848 308.211,129.723 308.809,127.75 308.773,125.984 308.316,125.238 307.605,124.664 306.775,123.453 
			305.797,120.598 305.691,118.031 306.496,115.633 310.547,109.699 312.109,103.049 313.641,99.762 315.004,98.443 318.646,95.691 
			319.102,94.873 318.717,93.723 319.523,92.646 322.043,90.629 325.461,85.9 328.637,82.801 329.395,81.496 		"/>
	</g>
</g>
</svg>
