<?xml version="1.0" encoding="utf-8"?>
<!-- Generator: Adobe Illustrator 16.0.0, SVG Export Plug-In . SVG Version: 6.00 Build 0)  -->
<!DOCTYPE svg PUBLIC "-//W3C//DTD SVG 1.1//EN" "http://www.w3.org/Graphics/SVG/1.1/DTD/svg11.dtd">
<svg version="1.1" xmlns="http://www.w3.org/2000/svg" xmlns:xlink="http://www.w3.org/1999/xlink" x="0px" y="0px" width="512px"
	 height="512px" viewBox="0 0 512 512" enable-background="new 0 0 512 512" xml:space="preserve">
<g id="Layer_1" display="none">
	<g display="inline">
		<path id="Yilan_County" fill="#7F7F7F" stroke="#EFEFEF" stroke-width="0.25" stroke-linecap="round" stroke-linejoin="round" d="
			M231.479,246.252l-0.424-0.609l-1.814-1.029l-3.246,0.678l-4.582,2.445l-2.002,1.328l-6.082,1.242l-0.77,1.615l1.363,1.938
			l-0.889,2.07l-2.506,1.594l-1.922,0.674l-2.016,1.066l-1.777,2.244l-1.682,2.744l-2.748,1.959l-3.381,1.047l-7.35,4.4
			l-7.117,2.895l-2.074,1.242l-2.586,2.176l-1.043,2.701l0.072,2.266l0.557,1.738l0.229,1.109l-2.127,1.5l-3.629,1.764l-2.693,1.893
			l-2.074,1.781l-2.67,1.002l-3.148,0.881l-1.672,0.467l-2.928,2.133l1.701,6.783l-1.23,2.088l-1.875,0.697l-1.754-0.352
			l-2.133,0.873l-0.299,0.82l-1.266,3.541l-0.736,2.588l0.314,2.391l-2.049,3.176l-7.631,7.729l-2.369,5.707l1.992,0.545
			l-0.373,3.037l0.795,2.02l2.684,0.586l2.393,1.389l2.029,1.389l2.133-0.328l2.611-1.236h2.67l3.178,2.561l1.361,1.105l3.543,1.713
			l8.221,2.086l4.498,1.717l3.564,0.018l2.689-2.473l1.266-3.252l2.078-0.477l10.092,6.025l6.07,0.914l0.592,0.014l-0.113-0.125
			l-0.572-0.902l0.279-0.75l0.547-0.723l0.305-0.891l0.281-3.467l0.441-1.76l0.701-1.227l0.631-1.461l-0.234-3.803l0.129-1.721
			l3.84-4.402l3.383-1.969l1.379-1.295l-0.328-1.525l-0.922-1.475l-0.422-1.629l0.246-1.342l3.256-1.852l0.457-3.082l-0.736-3.539
			l-1.434-2.736l1.012-0.725l1.414-0.459l1.68-0.176l1.777,0.182v-0.979L214.322,306l-3.545-2.197l-1.869-3.4l-0.105-4.41
			l0.771-2.16l0.105-2.158l-1.797-8.439l-0.141-4.051l0.289-4.172l0.83-4.197l1.271-3.666l1.611-2.623l10.189-12.424l3.012-2.613
			l6.533-3.234V246.252z M228.316,267.664l-1.051-0.18l-0.129-0.064l-0.059,0.033l-0.09-0.014l-0.082,0.115l-1.355,0.777
			l-0.539-0.18l0.701,1.133l0.047,0.006l0.211,0.334l0.736,0.418l2.088,0.07l0.398-1.271l-0.352-0.342L228.316,267.664z"/>
		
			<polygon id="Taoyuan_City" fill-rule="evenodd" clip-rule="evenodd" fill="#7F7F7F" stroke="#EFEFEF" stroke-width="0.25" stroke-linecap="round" stroke-linejoin="round" points="
			161.348,294.605 160.008,291.633 155.131,287.021 154.375,283.975 153.938,281.145 155.645,279.102 156.434,276.252 
			151.85,269.523 149.098,268.434 145.053,268.648 142.252,267.086 142.992,263.422 142.438,260.633 139.516,257.846 
			138.924,255.076 139.516,251.916 139.398,248.537 141.414,246.338 148.527,244.246 150.367,242.348 150.9,240.057 
			150.641,237.854 147.84,233.775 145.527,232.553 143.313,232.027 141.57,230.457 138.982,228.801 135.566,227.143 
			133.254,224.629 122.289,226.613 117.41,228.371 114.961,229.705 112.941,231.484 110.598,232.953 100.547,236.258 96.625,239.58 
			92.834,244.1 87.98,251.838 89.717,252.445 97.148,251.916 99.668,253.617 101.848,258.348 104.576,259.414 106.932,260.094 
			109.16,261.16 112.896,262.377 114.854,264.645 114.238,267.846 116.121,269.871 119.693,271.004 121.967,272.658 123.68,274.357 
			125.764,274.75 127.859,274.574 129.713,276.488 131.133,278.969 133.508,280.145 135.373,281.582 135.566,284.324 
			136.428,288.285 135.402,292.506 132.883,296.051 133.195,298.424 135.982,300.57 139.359,302.596 142.383,303.117 
			144.578,304.684 148.551,306.943 151.158,308.115 151.457,307.295 153.59,306.422 155.344,306.773 157.219,306.076 
			158.449,303.988 156.748,297.205 159.676,295.072 		"/>
		
			<polygon id="Taipei" fill-rule="evenodd" clip-rule="evenodd" fill="#7F7F7F" stroke="#EFEFEF" stroke-width="0.25" stroke-linecap="round" stroke-linejoin="round" points="
			183.973,238.619 181.469,237.211 181.367,234.43 182.254,230.83 181.367,228.406 179.246,226.525 177.898,221.041 
			176.977,219.109 176.133,217.324 175.91,215.441 176.207,213.477 175.082,212.295 172.99,211.609 170.813,212.689 
			169.211,214.049 163.27,217.586 161.328,219.766 160.17,222.254 159.191,223.563 158.318,225.184 160.379,227.492 
			163.521,230.502 164.172,233.906 163.313,237.965 165.477,241.627 168.619,244.098 170.693,246.469 172.695,248.234 
			175.32,248.822 178.488,248.855 180.771,247.906 184.922,242.676 186.004,240.352 		"/>
		
			<path id="New_Taipei_City" fill="#7F7F7F" stroke="#EFEFEF" stroke-width="0.25" stroke-linecap="round" stroke-linejoin="round" d="
			M233.09,241.492l-2.301-0.617l-1.959-0.207l-3.818,0.58l-1.152-0.527l-1.438-2.217l-1.328-4.74l-0.387-2.834l0.246-1.598
			l0.887-1.998l-1.764-1.121l-18.867-4.584l-0.162,6.518l0.092,1.652l2.016,2.111l-0.209,1.342l-1.379,1.014l-2.176,0.818
			l-2.805-0.359l-5.766-2.404l-1.629-1.162l-2-1.9l-1.557-1.898l-0.936-1.914l-1.555-2.014l-0.311-1.572l1.734-1.18l3.912-1.701
			l2.402-1.602l0.002-0.002l-1.256-0.883l-0.584-0.689l-0.047-1.193l0.549-0.969l0.574-0.703l0.066-0.482l-1.189-0.33l-1.682,0.195
			l-1.469,0.406l-0.641,0.27l-1.963-4.076l-5.461-7.709l-2.451-1.84l-5.893-0.695l-6.012,1.373l-5.238,2.672l-3.584,3.244
			l-1.738,3.188l-1.133,2.813l-0.434,0.504l-1.035,0.488l-0.994,0.826l-0.479,1.477l1.668,1.045l3.164,3.205l1.973,3.1l-1.891,0.768
			l-0.852-0.846l-0.666-1.5l-1.029-1.438l-1.912-0.639l-1.658,0.025l-1.236,0.219l-1.002,0.502l-3.363,2.799l-2.59,1.02
			l-6.137,1.107l-0.008,0.002l2.313,2.514l3.416,1.658l2.588,1.656l1.742,1.57l2.215,0.525l2.313,1.223l2.801,4.078l0.26,2.203
			l-0.533,2.291l-1.84,1.898l-7.113,2.092l-2.016,2.199l0.117,3.379l-0.592,3.16l0.592,2.77l2.922,2.787l0.555,2.789l-0.74,3.664
			l2.801,1.563l4.045-0.215l2.752,1.09l4.584,6.729l-0.789,2.85l-1.707,2.043l0.438,2.83l0.756,3.047l4.877,4.611l1.34,2.973
			l3.148-0.881l2.67-1.002l2.074-1.781l2.693-1.893l3.629-1.764l2.127-1.5l-0.229-1.109l-0.557-1.738l-0.072-2.266l1.043-2.701
			l2.586-2.176l2.074-1.242l7.117-2.895l7.35-4.4l3.381-1.047l2.748-1.959l1.682-2.744l1.777-2.244l2.016-1.066l1.922-0.674
			l2.506-1.594l0.889-2.07l-1.363-1.938l0.77-1.615l6.082-1.242l2.002-1.328l4.582-2.445l3.246-0.678l1.814,1.029l0.424,0.609v0.002
			l4.74-2.348l-1.098-1.391L233.09,241.492z M184.922,242.676l-4.15,5.23l-2.283,0.949l-3.168-0.033l-2.625-0.588l-2.002-1.766
			l-2.074-2.371l-3.143-2.471l-2.164-3.662l0.859-4.059l-0.65-3.404l-3.143-3.01l-2.061-2.309l0.873-1.621l0.979-1.309l1.158-2.488
			l1.941-2.18l5.941-3.537l1.602-1.359l2.178-1.08l2.092,0.686l1.125,1.182l-0.297,1.965l0.223,1.883l0.844,1.785l0.922,1.932
			l1.348,5.484l2.121,1.881l0.887,2.424l-0.887,3.6l0.102,2.781l2.504,1.408l2.031,1.732L184.922,242.676z"/>
		
			<polygon id="Keelung" fill-rule="evenodd" clip-rule="evenodd" fill="#7F7F7F" stroke="#EFEFEF" stroke-width="0.25" stroke-linecap="round" stroke-linejoin="round" points="
			201.139,229.799 201.047,228.146 201.209,221.629 195.08,220.141 192.98,219.367 192.068,218.465 191.646,217.91 190.885,217.375 
			190.883,217.377 188.48,218.979 184.568,220.68 182.834,221.859 183.145,223.432 184.699,225.445 185.635,227.359 
			187.191,229.258 189.191,231.158 190.82,232.32 196.586,234.725 199.391,235.084 201.566,234.266 202.945,233.252 203.154,231.91 
					"/>
		
			<polygon id="Hsinchu_County" fill-rule="evenodd" clip-rule="evenodd" fill="#7F7F7F" stroke="#EFEFEF" stroke-width="0.25" stroke-linecap="round" stroke-linejoin="round" points="
			151.158,308.115 148.551,306.943 144.578,304.684 142.383,303.117 139.359,302.596 135.982,300.57 133.195,298.424 
			132.883,296.051 135.402,292.506 136.428,288.285 135.566,284.324 135.373,281.582 133.508,280.145 131.133,278.969 
			129.713,276.488 127.859,274.574 125.764,274.75 123.68,274.357 121.967,272.658 119.693,271.004 116.121,269.871 
			114.238,267.846 114.854,264.645 112.896,262.377 109.16,261.16 106.932,260.094 104.576,259.414 101.848,258.348 99.668,253.617 
			97.148,251.916 89.717,252.445 87.98,251.838 87.98,251.84 86.857,253.633 85.633,256.961 85.27,258.563 85.387,259.232 
			84.01,259.701 82.563,260.879 81.432,262.441 80.975,264.031 80.648,266.127 79.832,267.344 79.797,267.387 84.328,269.348 
			92.555,271.961 95.504,273.529 97.615,275.619 98.623,277.619 98.09,279.627 96.809,280.365 93.984,280.844 90.807,282.148 
			88.922,284.5 87.691,287.59 86.336,289.248 88.758,295.289 90.865,297.721 94.141,300.158 100.779,303.289 102.871,305.115 
			103.299,307.986 103.109,310.113 102.678,311.982 102.145,313.703 102.678,315.287 103.195,317.438 102.523,319.98 
			102.023,322.74 104.258,323.281 108.449,322.131 112.164,321.891 114.758,322.148 121.613,320.41 124.34,322.588 125.059,324.996 
			126.865,326.754 129.34,331.014 129.689,333.672 130.111,333.375 135.877,332.832 137.422,333.246 139.791,327.539 
			147.422,319.811 149.471,316.635 149.156,314.244 149.893,311.656 		"/>
		
			<polygon id="Hsinchu" fill-rule="evenodd" clip-rule="evenodd" fill="#7F7F7F" stroke="#EFEFEF" stroke-width="0.25" stroke-linecap="round" stroke-linejoin="round" points="
			97.615,275.619 95.504,273.529 92.555,271.961 84.328,269.348 79.797,267.387 79.797,267.389 78.852,268.391 78.035,270.012 
			78.631,271.234 78.992,272.234 79.016,273.162 78.619,274.016 77.426,275.643 74.395,281.844 73.781,284.08 73.791,284.082 
			77.541,285.545 79.852,286.957 81.336,289.025 83.719,289.98 86.234,289.375 86.336,289.248 87.691,287.59 88.922,284.5 
			90.807,282.148 93.984,280.844 96.809,280.365 98.09,279.627 98.623,277.619 		"/>
	</g>
</g>
<g id="Layer_2" display="none">
	<g display="inline">
		
			<polygon id="Yunlin_County" fill-rule="evenodd" clip-rule="evenodd" fill="#7F7F7F" stroke="#EFEFEF" stroke-width="0.25" stroke-linecap="round" stroke-linejoin="round" points="
			20.557,189.384 16.053,189.866 12.346,191.001 9.174,189.608 7.01,187.054 7.514,183.913 8.553,181.099 7.99,176.921 
			8.553,173.003 9.646,170.446 8.611,166.479 8.049,166.862 1.512,165.569 -1.662,165.612 -8.295,162.327 -19.045,161.118 
			-25.369,158.698 -29.006,157.706 -33.119,157.487 -45.111,158.915 -49.254,156.524 -49.256,156.522 -49.717,157.403 
			-52.76,159.737 -53.182,160.567 -53.742,162.054 -57.104,166.497 -57.791,168.128 -59.063,172.919 -59.744,178.39 
			-62.121,182.569 -63.645,187.919 -64.037,194.612 -63.92,203.581 -66.42,206.386 -65.904,206.354 -65.824,206.296 
			-60.072,205.651 -55.537,208.204 -52.248,208.239 -50.084,206.526 -49.166,203.843 -48.037,202.226 -45.131,201.771 
			-41.338,198.667 -38.908,197.374 -36.832,195.304 -27.939,190.159 -24.025,189.091 -17.15,187.8 -13.385,187.603 -10.51,190.128 
			-7.781,193.331 -0.904,195.853 1.111,195.562 5.646,194.269 8.225,196.077 9.529,198.245 12.967,197.892 19.371,196.597 
			21.504,195.886 21.504,194.011 21.713,191.292 21.979,191.319 		"/>
		
			<polygon id="Taichung" fill-rule="evenodd" clip-rule="evenodd" fill="#7F7F7F" stroke="#EFEFEF" stroke-width="0.25" stroke-linecap="round" stroke-linejoin="round" points="
			121.486,70.017 118.816,70.017 116.205,71.253 114.072,71.581 112.043,70.192 109.65,68.804 106.967,68.218 106.172,66.198 
			106.545,63.161 104.553,62.616 103.008,62.202 97.242,62.745 96.82,63.042 94.791,64.462 93.807,67.521 91.15,68.628 
			88.248,68.563 85.934,70.192 83.443,72.601 80.244,74.358 73.922,79.392 70.162,80.927 65.346,83.511 62.381,82.339 
			59.672,79.321 56.373,77.999 51,77.593 47.99,79.392 47.518,83.399 44.672,84.94 38.029,85.286 31.711,81.644 28.15,80.995 
			24.119,79.04 15.902,72.97 12.479,69.976 9.893,67.239 4.865,59.47 -2.379,67.511 -4.201,70.509 -5.742,75.917 -10.816,84.729 
			-12.299,91.444 -13.514,94.937 -15.311,96.442 -15.721,98.237 -16.057,98.64 -16.061,98.646 -12.881,99.683 -10.701,101.587 
			-9.248,105.05 -8.686,109.19 -6.24,112.157 0.244,114.062 2.592,116.011 4.35,118.737 5.438,120.905 5.461,123.067 6.135,124.901 
			8.461,125.315 11.439,127.263 11.449,128.024 13.752,128.106 23.557,129.489 25.85,129.124 28.559,126.526 32.689,118.673 
			34.701,114.062 38.193,112.392 43.713,113.198 46.998,113.042 50.143,108.864 51.779,107.823 56.678,111.464 58.572,110.968 
			60.002,107.999 62.555,105.854 66.17,105.921 68.896,104.88 73.205,100.72 75.967,99.161 78.375,98.706 83.191,96.173 
			86.564,96.042 89.965,95.495 96.029,93.097 98.578,92.921 101.143,93.507 108.428,94.181 108.434,94.181 109.959,93.091 
			110.627,91.983 112.488,91.011 114.146,88.976 114.857,86.159 116.496,83.47 120.619,80.868 121.898,77.505 122.135,75.226 
			124.664,72.577 		"/>
		
			<polygon id="Nantou_County" fill-rule="evenodd" clip-rule="evenodd" fill="#7F7F7F" stroke="#EFEFEF" stroke-width="0.25" stroke-linecap="round" stroke-linejoin="round" points="
			106.486,100.894 109.307,99.571 109.174,97.603 108.428,94.181 101.143,93.507 98.578,92.921 96.029,93.097 89.965,95.495 
			86.564,96.042 83.191,96.173 78.375,98.706 75.967,99.161 73.205,100.72 68.896,104.88 66.17,105.921 62.555,105.854 
			60.002,107.999 58.572,110.968 56.678,111.464 51.779,107.823 50.143,108.864 46.998,113.042 43.713,113.198 38.193,112.392 
			34.701,114.062 32.689,118.673 28.559,126.526 25.85,129.124 23.557,129.489 13.752,128.106 11.449,128.024 11.463,129.987 
			9.129,130.812 8.461,132.413 8.775,134.62 7.67,137.085 6.779,140.046 6.721,143.14 6.092,146.745 5.615,154.052 6.721,157.487 
			8.713,159.302 10.834,160.081 13.873,161.616 13.359,163.538 11.264,164.382 9.885,165.612 8.611,166.479 9.646,170.446 
			8.553,173.003 7.99,176.921 8.553,181.099 7.514,183.913 7.01,187.054 9.174,189.608 12.346,191.001 16.053,189.866 
			20.557,189.384 21.979,191.319 25.301,191.681 28.975,193.104 31.229,193.753 34.043,195.269 33.838,198.149 32.205,200.962 
			32.889,203.581 34.338,207.138 34.547,210.308 35.143,212.409 39.291,213.149 53.252,213.249 53.742,213.366 56.127,213.925 
			59.299,215.153 61.582,218.319 61.939,219.417 65.229,217.546 66.902,215.995 65.977,212.612 66.807,211.167 67.615,208.948 
			70.447,206.858 74.479,205.954 78.51,205.825 81.398,203.237 82.139,198.583 84.291,195.78 88.467,194.269 90.9,192.542 
			91.791,189.782 93.521,182.88 94.197,178.327 93.686,174.417 93.035,171.44 91.314,169.239 90.143,167.054 93.248,161.938 
			93.365,159.905 94.752,156.062 96.844,151.438 98.525,146.659 99.369,141.237 99.703,137.106 98.74,134.659 97.6,132.843 
			98.904,128.69 101.66,122.87 106.031,117.179 106.172,115.101 105.365,112.612 102.533,110.769 100.979,109.104 100.838,103.667 
			102.854,102.108 		"/>
		
			<polygon id="Miaoli_County" fill-rule="evenodd" clip-rule="evenodd" fill="#7F7F7F" stroke="#EFEFEF" stroke-width="0.25" stroke-linecap="round" stroke-linejoin="round" points="
			96.471,60.384 93.996,56.124 92.189,54.366 91.471,51.958 88.744,49.78 81.889,51.519 79.295,51.261 75.58,51.501 71.389,52.651 
			69.154,52.11 69.654,49.351 70.326,46.808 69.809,44.657 69.275,43.073 69.809,41.353 70.24,39.483 70.43,37.356 70.002,34.485 
			67.91,32.659 61.271,29.528 57.996,27.091 55.889,24.659 53.467,18.618 53.365,18.745 50.85,19.351 48.467,18.396 46.982,16.327 
			44.672,14.915 40.922,13.452 40.912,13.45 40.721,14.165 38.76,15.149 38.303,16.151 37.301,19.28 35.271,21.335 33.787,23.353 
			34.313,26.343 30.389,25.597 27.346,26.399 24.834,28.257 22.547,30.644 21.803,31.979 21.182,33.419 20.145,34.573 
			16.455,35.663 15.615,37.128 14.74,40.534 11.52,46.228 10.318,49.274 9.838,52.872 8.824,55.075 4.865,59.47 4.865,59.47 
			9.893,67.239 12.479,69.976 15.902,72.97 24.119,79.04 28.15,80.995 31.711,81.644 38.029,85.286 44.672,84.94 47.518,83.399 
			47.99,79.392 51,77.593 56.373,77.999 59.672,79.321 62.381,82.339 65.346,83.511 70.162,80.927 73.922,79.392 80.244,74.358 
			83.443,72.601 85.934,70.192 88.248,68.563 91.15,68.628 93.807,67.521 94.791,64.462 96.82,63.042 		"/>
		
			<polygon id="Changhua_County" fill-rule="evenodd" clip-rule="evenodd" fill="#7F7F7F" stroke="#EFEFEF" stroke-width="0.25" stroke-linecap="round" stroke-linejoin="round" points="
			10.834,160.081 8.713,159.302 6.721,157.487 5.615,154.052 6.092,146.745 6.721,143.14 6.779,140.046 7.67,137.085 8.775,134.62 
			8.461,132.413 9.129,130.812 11.463,129.987 11.449,128.024 11.439,127.263 8.461,125.315 6.135,124.901 5.461,123.067 
			5.438,120.905 4.35,118.737 2.592,116.011 0.244,114.062 -6.24,112.157 -8.686,109.19 -9.248,105.05 -10.701,101.587 
			-12.881,99.683 -16.061,98.646 -22.242,105.876 -23.713,107.276 -24.205,108.792 -24.529,114.3 -25.172,115.96 -27.973,118.157 
			-28.615,119.667 -28.955,121.276 -29.807,122.071 -30.996,122.646 -32.35,123.56 -33.996,125.2 -35.467,127.755 -38.615,136.544 
			-40.857,140.772 -42.328,144.999 -43.447,146.554 -47.311,150.257 -47.965,151.878 -48.854,155.745 -49.256,156.522 
			-49.254,156.524 -45.111,158.915 -33.119,157.487 -29.006,157.706 -25.369,158.698 -19.045,161.118 -8.295,162.327 
			-1.662,165.612 1.512,165.569 8.049,166.862 8.611,166.479 9.885,165.612 11.264,164.382 13.359,163.538 13.873,161.616 		"/>
	</g>
</g>
<g id="Layer_3">
	<g>
		<path id="Tainan" fill="#7F7F7F" stroke="#EFEFEF" stroke-width="0.25" stroke-linecap="round" stroke-linejoin="round" d="
			M183.782,210.621l-0.479-0.66l-0.387,0.012l-0.15,0.707l0.922,2.254l1.225,1.111l0.34-0.67l0.07-0.527l-1.18-1.211
			L183.782,210.621z M190.889,179.094l0.385-4.367l-0.279-0.098l-0.34,5.754l0.059,0.059L190.889,179.094z M189.733,186.918
			l-0.092-0.984l-0.293,0.039l-1.973,5.363h0.035L189.733,186.918z M267.857,184.816l-2.016-0.617l-2.729,0.355l-2.932,1.324
			l-2.049-0.031l-2.457-1.906l-0.861-2.484l0.949-7.742l-0.533-4.102l-5.396-5.52l-0.947-2.777l-1.127-2.293l-2.195-1.324
			l-3.91-1.293l-4.627,0.258l-8.299,1.553l-4.24,1.904l-3.348,2.488l-2.549,2.615l-3.619,2.811l-3.141,1.936l-1.365,2.709
			l-3.406,1.52l-3.943-1.004l-4.832-0.707l-2.861-1.082l-0.865,2.219l2.037,1.359l-1.4,0.355l-0.865,0.941l-1.844,4.891
			l-0.256,1.227l0.264,1.25l-1.24,1.438l-0.758,2.027l-0.508,1.607l0.748,1.756l0.443,2.137l-0.725,1.383l-1.48,0.496l-1.367,0.773
			l-0.373,2.186l1.529,1.748l2.322,2.008l0.42,1.434l-4.271,0.037v1.066l5.102,1.275l0.781,0.857l-0.572,1.65l-1.68,0.539
			l-2.031,0.271l-1.6,0.83l-0.641,1.262l-0.361,1.867l0.396,1.889l1.586,1.369l1.494-0.395l1.016-1.578l1.25-1.121l2.215,0.963
			l0.445,1.338l-0.27,3.824l0.713,1.215l1.809,0.078l0.969-1.465l0.57-1.844l0.666-1.016l3.453,0.494l0.586,2.859l-1.447,3.311
			l-2.592,1.844l2.123,2.141l0.994,1.977l0.523,3.422v0.004l3.363-2.016l0.074,0.24l2.164,4.732l2.607,1.32l8.537,1.223l4.506-0.484
			l4.598,0.547l2.281-0.805l1.926-1.414l3.527-1.416l3.439-2.414l1.303-2.994l1.633-2.865l2.873-3.832l3.352-3.51l3.527-2.934
			l4.061-3.961l3.527-4.543l5.455-9.281l5.689-8.256l1.246-3.607L267.857,184.816z M186.209,194.855l-0.117-0.076l-2.17,7.283
			l0.033,0.076l1.588-3.814l0.129-0.652l0.746-2.799L186.209,194.855z"/>
		
			<path id="Pingtung_County" fill="#7F7F7F" stroke="#EFEFEF" stroke-width="0.25" stroke-linecap="round" stroke-linejoin="round" d="
			M306.273,250.004l-2.902-0.707l-0.416-2.637l-1.867-3.609l-0.029,0.008l-2.848-0.516l-2.34,0.129l-4.656,3.668l-3.199-3.023
			l-4.121-4.828l-3.943,0.965l-3.615,3.219l-7.143-3.605l-5.131,2.447l-3.469,3.857l-4.355,1.545l-9.725-0.576l-0.949,2.637
			l-0.711,3.922l-1.422,4.309l0.297,3.824l-0.059,5.174l-3.086,11.566l-0.088,3.885l1.512,4.078l0.209,4.494l-4.439,11.174
			l0.203,0.086l1.213,0.77l2.613,2.293l2.475,1.707l5.461,2.613l2.395,1.551l0.348,0.727l0.525,2.031l0.594,0.418l0.598,0.195
			l1.773,1.021l4.435,3.504l1.096,1.553l2.381,5.375l3.023,3.746l0.896,1.539l10.855,28.168l-0.303,1.643l-1.332,1.928l-0.314,1.719
			v5.855l-0.211,1.795l-0.035,1.096l0.246,1.34l3.012,5.02l-0.688,3.82l0.113,1.277l2.01,1.695l1.855,0.465l1.26-1.293l0.176-3.602
			l4.318,1.057l4.295,1.936l3.688,2.809l2.473,3.707l0.176-3.225l-0.77-4.982l-0.07-4.568l2.17-2.006l1.832-1.348l1.391-3.256
			l0.85-3.996l-0.465-28.16l-2.449,0.182l-5.572-2.563l-2.49-2.658l-1.779-3.236l-0.295-3.301l0.059-3.107l-1.691-2.438
			l-1.865-0.896l-1.482-2.115l0.295-2.502l1.125-2.115l2.906-1.732l1.363-2.082l-2.549-3.047l-1.422-2.727v-2.918l-0.564-3.883
			l-1.096-3.305l-0.684-3.563l0.445-8.027l1.662-4.078l2.016-3.598l1.303-3.598l2.934-2.441l4.18-0.898l2.607-1.48l5.309-2.246
			l1.096-2.701l0.088-2.826l1.512-7.523L306.273,250.004z M232.329,321.727l-0.113-0.303h-0.105l-0.176-0.26l-0.361,0.26h-1.121
			l-1.518,1.924l0.012,0.045l-0.748,1.443l0.445,1.686l0.012-0.021l0.012,0.115l1.645-1.428l0.91-0.723l0.188-0.172l1.471-0.996
			l-0.082-0.27l0.258-0.242L232.329,321.727z"/>
		
			<polygon id="Kaohsiung" fill-rule="evenodd" clip-rule="evenodd" fill="#7F7F7F" stroke="#EFEFEF" stroke-width="0.25" stroke-linecap="round" stroke-linejoin="round" points="
			329.041,172.938 327.529,168.775 324.061,165.965 321.037,163.996 320.504,161.832 321.244,160.09 324.297,158.732 325.93,156.02 
			324.893,152.85 324.535,151.754 322.252,148.586 319.08,147.359 316.695,146.801 306.602,151.947 302.006,155.633 
			300.049,159.348 297.736,162.094 293.559,164.449 289.199,167.773 286.771,170.68 280.07,174.682 276.869,175.004 
			273.133,174.617 271.176,176.555 271.088,179.23 271.889,181.715 272.422,185.332 272.422,185.336 271.176,188.943 
			265.486,197.199 260.031,206.48 256.504,211.023 252.444,214.984 248.917,217.918 245.565,221.428 242.692,225.26 
			241.059,228.125 239.756,231.119 236.317,233.533 232.79,234.949 230.864,236.363 228.583,237.168 223.985,236.621 
			219.479,237.105 210.942,235.883 208.334,234.563 206.17,229.83 206.096,229.59 202.733,231.605 203.891,239.041 204.309,240.094 
			205.85,242.766 206.165,244.031 206.887,244.738 207.588,245.262 207.893,245.955 207.706,247.268 206.887,249.236 
			206.829,250.83 207.391,253.301 209.911,258.855 212.583,263.031 214.042,266.137 214.872,269.287 214.252,271.525 
			213.075,274.035 213.959,276.611 215.852,278.932 220.778,283.48 223.672,286.781 224.592,288.527 224.594,288.527 
			225.749,290.719 226.567,294.717 219.612,286.314 226.215,295.684 233.334,301.25 234.5,301.219 235.504,300.846 236.381,300.793 
			237.778,301.402 242.217,290.229 242.008,285.734 240.497,281.656 240.584,277.771 243.67,266.205 243.729,261.031 
			243.432,257.207 244.854,252.898 245.565,248.977 246.514,246.34 256.239,246.916 260.594,245.371 264.063,241.514 
			269.193,239.066 276.336,242.672 279.951,239.453 283.895,238.488 288.016,243.316 291.215,246.34 295.871,242.672 
			298.211,242.543 301.059,243.059 301.088,243.051 303.191,242.801 302.51,240.098 299.16,236.621 297.529,234.113 
			296.791,229.668 298.064,224.357 302.717,220.396 305.061,217.209 305.09,211.09 306.748,203.902 305.563,198.488 
			306.037,194.746 310.068,192.555 311.521,189.879 310.305,186.621 310.779,183.492 315.02,180.75 317.184,178.619 
			320.711,176.393 329.234,174.305 		"/>
		
			<path id="Chiayi_County" fill="#7F7F7F" stroke="#EFEFEF" stroke-width="0.25" stroke-linecap="round" stroke-linejoin="round" d="
			M195.987,163.926l0.27-1.004l-0.49,0.205l-1.096,2.051l-0.117,0.994l0.525-0.619L195.987,163.926z M316.205,146.684l-13.963-0.102
			l-4.148-0.74l-0.594-2.1l-0.209-3.172l-1.449-3.555l-0.684-2.621l1.633-2.813l0.205-2.879l-2.816-1.518l-2.252-0.646l-3.674-1.426
			l-3.322-0.359l-0.268-0.029l-0.207,2.719v1.875l-2.133,0.713l-6.404,1.293l-3.438,0.355l-1.307-2.168l-2.578-1.811l-4.535,1.295
			l-2.016,0.289l-6.875-2.521l-2.729-3.201l-2.877-2.527l-3.764,0.197l-6.877,1.291l-3.914,1.07l-8.891,5.145l-2.078,2.068
			l-2.428,1.295l-3.795,3.102l-2.906,0.455l-1.127,1.617l-0.918,2.684l-2.164,1.713l-3.291-0.035l-4.535-2.551l-5.75,0.645
			l-0.08,0.059l-0.516,0.029l0.109,4.758l4.664-0.293l-2.215,2.873l-0.49,1.381l-0.945,1.139l-0.221,0.936l1.656,0.814v1.07
			l-1.049,1.982l2.275,4.395l1.998,5.693l-2.928-0.023l-2.01,0.141l-1.346,3.074l0.023,1.801l1.342,0.063l1.012,0.25l1.207-0.873
			l0.455,1.729l-0.77-0.252l-1.777,0.791l-2.102,0.141l2.861,1.082l4.832,0.707l3.943,1.004l3.406-1.52l1.365-2.709l3.141-1.936
			l3.619-2.811l2.549-2.615l3.348-2.488l4.24-1.904l8.299-1.553l4.627-0.258l3.91,1.293l2.195,1.324l1.127,2.293l0.947,2.777
			l5.396,5.52l0.533,4.102l-0.949,7.742l0.861,2.484l2.457,1.906l2.049,0.031l2.932-1.324l2.729-0.355l2.016,0.617l4.564,0.52
			v-0.004l-0.533-3.617l-0.801-2.484l0.088-2.676l1.957-1.938l3.736,0.387l3.201-0.322l6.701-4.002l2.428-2.906l4.359-3.324
			l4.178-2.355l2.313-2.746l1.957-3.715l4.596-3.686l10.094-5.146L316.205,146.684z M250.071,149.686l-2.461,0.326l-3.703,1.484
			l-4.002-0.906l-3.826-2.453l-3.318-1.324l-0.475-3.07l2.045-2.234l5.07-0.871l4.299-0.387l3.053,1.162l2.223,1.195l1.334,2.168
			l1.395,3.715L250.071,149.686z M195.393,169.09l-0.35-0.293l-0.572,0.832l-0.514,1.266l-1.283,1.689l0.197,0.596l0.969-0.725
			l0.83-1.729l0.781-1.049L195.393,169.09z M197.706,160.654l0.045-0.014l0.246-0.598l-0.035-1.57l-0.256-0.23V160.654z
			 M197.809,155.146l0.279,1.102l0.07-0.166l0.047,0.189l0.281-0.914l-0.049-0.014l0.012-0.02L197.809,155.146z M196.805,151.625
			l0.141,0.229l0.561,0.928l0.279-0.752l-0.115-0.045l0.035-0.131L196.805,151.625z"/>
		
			<polygon id="Chiayi_City" fill-rule="evenodd" clip-rule="evenodd" fill="#7F7F7F" stroke="#EFEFEF" stroke-width="0.25" stroke-linecap="round" stroke-linejoin="round" points="
			250.309,144.775 248.975,142.607 246.752,141.412 243.7,140.25 239.401,140.637 234.331,141.508 232.286,143.742 232.76,146.813 
			236.079,148.137 239.905,150.59 243.907,151.496 247.61,150.012 250.071,149.686 251.704,148.49 		"/>
	</g>
</g>
<g id="Layer_4" display="none">
	<g display="inline">
		
			<path id="Taitung_County" fill-rule="evenodd" clip-rule="evenodd" fill="#7F7F7F" stroke="#EFEFEF" stroke-width="0.25" stroke-linecap="round" stroke-linejoin="round" d="
			M301.91,436.719l-2.52-1.918l-0.49-1.379l0.186-1.568l0.469-1.314l0.277-0.594v-0.957h-10.691l0.971,1.145l0.549,1.275
			l0.023,1.389l-0.643,1.473l2.135,2.012l3.689,2.604l4.014,1.617l2.977-0.943l0.176-1.492L301.91,436.719z M289.727,343.316
			l0.035-0.594l-0.199-0.887l0.199-0.908l0.49-0.873l0.432-2.15l-0.396-1.049l-0.607-0.355l-5.486,0.406l-0.303,0.328l0.76,2.301
			l1.537,2.676l1.439,0.574l0.244,0.305l0.488,0.111h0.945L289.727,343.316z M287.346,218.566l-1.908-0.551l-5.867,2.842
			l-2.105,2.975l0.918,3.746l0.326,3.744l-1.986,3.744l-1.836,2.842l-1.484,3.615l-1.303,4.582l-2.016,4.195l-2.607,7.225
			l-1.719,3.287l0.059,3.676l-0.504,3.385l-3.527,2.029l-4.477-0.645l-6.406-5.252l-5.006-8.74l-3.084-0.836l-3.441-0.484
			l-2.723-2.613l-3.352-1.551l-4.24-1.547l-2.756-4.42l-0.607-4.025l-8.521,2.09l-3.527,2.227l-2.166,2.129l-4.24,2.742
			l-0.473,3.129l1.215,3.258l-1.453,2.678l-4.031,2.191l-0.475,3.74l1.186,5.414l-1.656,7.188l-0.031,6.121l-2.344,3.188
			l-4.652,3.961l-1.273,5.311l0.738,4.443l1.633,2.508l3.348,3.479l0.684,2.701l-2.105,0.252l1.867,3.609l0.416,2.637l2.904,0.705
			l3.023,1.996l-1.512,7.523l-0.09,2.828l-1.094,2.699l-5.309,2.248l-2.609,1.479l-4.18,0.9l-2.934,2.439l-1.303,3.598l-2.016,3.598
			l-1.662,4.078l-0.445,8.027l0.684,3.563l1.096,3.305l0.564,3.883v2.918l1.422,2.727l2.549,3.047l-1.361,2.084l-2.906,1.732
			l-1.125,2.113l-0.297,2.504l1.482,2.113l1.865,0.898l1.691,2.438l-0.059,3.107l0.297,3.299l1.777,3.238l2.49,2.656l5.572,2.563
			l2.449-0.18l-0.141-7.99l0.91-8.789l0.748-3.104l5.203-9.119l2.615-9.139l1.027-6.699l1.773-3.262l4.391-5.477l1.422-2.75
			l2.848-7.32l1.156-1.5l1.434-0.758l5.906-6.477l8.775-5.859l2.568-2.439l2.59-3.293l1.168-1.916l0.676-1.74l0.094-1.525
			l-0.348-3.42l0.254-1.439l1.799-2.074l7.572-6.424l0.701-1.482l5.602-8.078l1.158-3.213l1.607-7.125l2.615-4.604l0.91-3.166
			l0.574-1.236l1.152-1.199l2.613-1.902l1.135-1.16l2.648-5.434l0.537-5.266l-0.07-5.535l0.793-6.219l1.131-3.352l1.439-2.664
			l3.848-5.133l1.227-2.656L287.346,218.566z"/>
		
			<polygon id="Hualien_County" fill-rule="evenodd" clip-rule="evenodd" fill="#7F7F7F" stroke="#EFEFEF" stroke-width="0.25" stroke-linecap="round" stroke-linejoin="round" points="
			329.289,80.912 328.902,80.105 328.414,79.299 328.051,78.889 328.051,78.887 327.459,78.871 321.389,77.961 311.297,71.934 
			309.219,72.408 307.953,75.662 305.264,78.135 301.699,78.115 297.201,76.398 288.98,74.316 285.438,72.602 284.076,71.498 
			281.547,74.146 281.311,76.424 280.031,79.787 275.908,82.389 274.27,85.076 273.559,87.895 271.9,89.93 270.039,90.904 
			269.371,92.01 267.846,93.1 267.84,93.1 268.586,96.52 268.719,98.49 265.898,99.813 262.266,101.025 260.25,102.584 
			260.391,108.023 261.945,109.688 264.777,111.531 265.584,114.02 265.443,116.098 261.072,121.789 258.316,127.609 
			257.012,131.762 258.152,133.578 259.115,136.025 258.781,140.156 257.938,145.578 256.256,150.357 254.164,154.98 
			252.777,158.824 252.66,160.857 249.555,165.973 250.727,168.158 252.447,170.359 253.098,173.336 253.609,177.246 
			252.934,181.799 251.203,188.701 250.313,191.461 247.879,193.188 243.703,194.699 241.551,197.502 240.811,202.156 
			237.922,204.744 233.891,204.873 229.859,205.777 227.027,207.867 226.219,210.086 225.389,211.531 226.314,214.914 
			224.641,216.465 221.352,218.336 222.389,221.504 220.758,224.219 217.703,225.574 216.963,227.316 217.496,229.482 
			220.52,231.451 223.988,234.262 225.5,238.424 225.693,239.789 226.301,243.814 229.057,248.234 233.297,249.781 236.648,251.332 
			239.371,253.945 242.813,254.43 245.896,255.266 250.902,264.006 257.309,269.258 261.785,269.902 265.313,267.873 
			265.816,264.488 265.758,260.813 267.477,257.525 270.084,250.301 272.1,246.105 273.402,241.523 274.887,237.908 
			276.723,235.066 278.709,231.322 278.383,227.578 277.465,223.832 279.57,220.857 285.438,218.016 287.346,218.566 
			287.346,218.566 293.367,183.605 295.994,178.262 300.371,156.438 303.836,147.121 305.586,138.25 305.797,134.748 
			306.215,132.848 308.211,129.723 308.809,127.75 308.773,125.984 308.316,125.238 307.605,124.664 306.775,123.453 
			305.797,120.598 305.691,118.031 306.496,115.633 310.547,109.699 312.109,103.049 313.641,99.762 315.004,98.443 318.646,95.691 
			319.102,94.873 318.717,93.723 319.523,92.646 322.043,90.629 325.461,85.9 328.637,82.801 329.395,81.496 		"/>
	</g>
</g>
</svg>
